<svg xmlns="http://www.w3.org/2000/svg" width="825" height="264" viewBox="0 0 825 264" version="1.1"><path d="M 136.299 25.500 L 134.630 29 92.806 29 L 50.983 29 41.918 37.127 C 36.933 41.598, 32.429 46.372, 31.909 47.738 C 31.337 49.243, 31.071 81.901, 31.233 130.592 L 31.500 210.962 34.798 214.231 C 36.675 216.091, 37.814 216.746, 37.441 215.750 C 37.081 214.788, 36.390 214, 35.905 214 C 35.409 214, 34.852 181.146, 34.629 138.750 C 34.412 97.362, 33.910 61.094, 33.514 58.153 C 33.044 54.663, 33.177 52.423, 33.897 51.703 C 34.504 51.096, 35.001 49.903, 35.001 49.050 C 35.003 47.286, 39.252 42, 40.668 42 C 41.183 42, 44.056 39.757, 47.052 37.015 C 50.949 33.450, 53.354 32.011, 55.500 31.960 C 57.150 31.920, 75.275 31.885, 95.778 31.881 C 125.427 31.876, 133.740 31.589, 136.401 30.477 C 139.756 29.075, 140.928 27.015, 140.228 23.750 C 139.640 21.007, 138.118 21.685, 136.299 25.500 M 184 37.376 L 195.500 49.032 195.799 128.766 C 196.018 186.966, 195.786 209.574, 194.941 212.476 C 193.673 216.834, 181.278 230.418, 175.014 234.314 L 171.500 236.500 110 236.500 C 38.818 236.500, 46.458 237.678, 33.250 224.669 C 28.712 220.200, 25 217.011, 25 217.582 C 25 219.194, 42.105 235.523, 45.743 237.385 C 48.679 238.887, 54.943 239.018, 112.160 238.772 C 161.615 238.559, 175.424 238.229, 175.750 237.250 C 175.979 236.562, 176.793 236, 177.559 236 C 179.641 236, 195 220.833, 195 218.778 C 195 217.800, 195.450 217, 196 217 C 196.550 217, 197 216.127, 197 215.059 C 197 213.991, 197.427 212.854, 197.948 212.532 C 199.103 211.818, 198.682 56.131, 197.512 51.064 C 196.926 48.527, 194.129 45.144, 186.818 38.130 C 172.399 24.295, 170.626 23.821, 184 37.376 M 148.441 30.532 C 149.701 31.485, 152.742 32, 157.108 32 C 160.807 32, 163.983 32.354, 164.167 32.786 C 164.350 33.218, 166.075 34.663, 168 35.997 C 172.900 39.392, 169.831 35.633, 164.600 31.833 C 161.173 29.344, 159.839 29.004, 153.600 29.032 C 147.139 29.061, 146.675 29.196, 148.441 30.532 M 132 53.748 C 132 54.301, 133.800 56.664, 136 59 C 138.200 61.336, 139.982 62.854, 139.959 62.374 C 139.900 61.110, 132 52.549, 132 53.748 M 145.911 54.694 C 146.516 55.901, 147.424 57.144, 147.929 57.456 C 148.434 57.768, 149.593 60.268, 150.504 63.012 C 151.455 65.876, 152.765 68, 153.580 68 C 154.361 68, 155 67.550, 155 67 C 155 66.450, 154.550 66, 154 66 C 153.450 66, 153 65.100, 153 64 C 153 62.900, 152.550 62, 152 62 C 151.450 62, 151 61.301, 151 60.446 C 151 59.591, 149.607 57.453, 147.905 55.696 C 145.666 53.384, 145.115 53.107, 145.911 54.694 M 165 71.632 C 166.375 72.500, 168.400 74.594, 169.500 76.285 C 170.600 77.976, 172.139 79.566, 172.920 79.820 C 174.147 80.218, 174.147 80.038, 172.920 78.501 C 169.807 74.599, 164.792 70.001, 163.679 70.027 C 163.030 70.041, 163.625 70.764, 165 71.632 M 96.250 72.716 C 97.763 72.945, 100.237 72.945, 101.750 72.716 C 103.263 72.487, 102.025 72.300, 99 72.300 C 95.975 72.300, 94.737 72.487, 96.250 72.716 M 107.264 72.718 C 108.784 72.947, 111.034 72.941, 112.264 72.704 C 113.494 72.467, 112.250 72.279, 109.500 72.286 C 106.750 72.294, 105.744 72.488, 107.264 72.718 M 117.477 75.822 C 117.956 77.403, 117.624 78.758, 116.435 80.072 C 114.792 81.888, 113.078 82, 87.045 82 C 66.877 82, 59.075 81.675, 58.200 80.800 C 57.464 80.064, 57 80.004, 57 80.645 C 57 81.220, 57.823 82.435, 58.829 83.345 C 60.440 84.803, 64.038 85, 89.106 85 C 116.372 85, 117.627 84.916, 119.278 82.989 C 121.555 80.329, 121.450 78.387, 118.886 75.708 L 116.773 73.500 117.477 75.822 M 801.091 77.128 C 804.226 81.531, 804.683 88.590, 802.100 92.701 C 796.468 101.665, 782.816 101.279, 777.863 92.016 C 776.148 88.807, 776 88.728, 776.001 91.016 C 776.003 93.947, 780.031 99, 782.366 99 C 783.265 99, 784 99.450, 784 100 C 784 101.602, 796.323 101.184, 799.768 99.466 C 803.793 97.458, 807 91.899, 807 86.929 C 807 82.830, 805.870 80.102, 802.576 76.250 C 799.684 72.869, 798.540 73.545, 801.091 77.128 M 148.500 76.402 C 149.600 77.246, 151.738 77.951, 153.250 77.968 C 154.762 77.986, 156 78.450, 156 79 C 156 79.550, 156.719 80, 157.599 80 C 158.478 80, 160.391 81.237, 161.849 82.750 C 163.307 84.263, 166.750 87.223, 169.500 89.330 C 173.269 92.217, 172.563 91.304, 166.631 85.618 C 159.232 78.527, 156.870 77.135, 149.500 75.524 C 146.642 74.899, 146.594 74.941, 148.500 76.402 M 334.899 84.537 C 340.214 90.591, 341.366 94.374, 341.437 106 C 341.494 115.528, 341.243 117.024, 338.720 122.161 C 335.383 128.957, 329.728 134.302, 322.120 137.852 C 317.129 140.182, 315.018 140.515, 303.250 140.836 L 290 141.196 290 161.598 L 290 182 277.250 182.022 C 264.763 182.044, 264.548 182.082, 266.844 183.847 C 268.753 185.316, 270.998 185.636, 278.940 185.575 C 285.642 185.524, 289.210 185.071, 290.346 184.128 C 291.774 182.943, 292 180.265, 292 164.578 C 292 151.773, 292.355 146.045, 293.200 145.200 C 293.977 144.423, 298.012 144, 304.653 144 C 310.292 144, 315.940 143.599, 317.203 143.109 C 324.729 140.191, 328 138.597, 328 137.848 C 328 137.382, 328.701 137, 329.558 137 C 331.495 137, 339.571 128.928, 340.471 126.092 C 340.836 124.942, 341.554 124, 342.067 124 C 342.580 124, 343 122.200, 343 120 C 343 117.800, 343.450 116, 344 116 C 344.588 116, 345 112.520, 345 107.559 C 345 102.916, 344.550 98.840, 344 98.500 C 343.450 98.160, 343 96.999, 343 95.920 C 343 93.761, 338.755 86.781, 335.295 83.250 C 331.784 79.667, 331.482 80.646, 334.899 84.537 M 753 101.929 C 753 112.789, 753.176 113.992, 754.750 113.921 C 755.795 113.874, 755.997 113.639, 755.250 113.338 C 753.744 112.730, 753.529 103.409, 755 102.500 C 756.578 101.525, 756.198 93.055, 754.500 91.357 C 753.167 90.024, 753 91.198, 753 101.929 M 290 106.366 C 290 115.950, 290.364 121, 291.053 121 C 291.746 121, 292.037 116.699, 291.903 108.436 C 291.731 97.861, 291.963 95.609, 293.366 94.206 C 294.739 92.832, 295.378 92.755, 297.003 93.770 C 298.086 94.446, 300.077 95, 301.427 95 C 302.777 95, 304.160 95.450, 304.500 96 C 304.840 96.550, 306.351 97, 307.859 97 C 309.367 97, 311.140 97.540, 311.800 98.200 C 312.626 99.026, 313 99.054, 313 98.289 C 313 96.146, 303.921 92.727, 296.893 92.224 L 290 91.731 290 106.366 M 158.989 107.487 C 160.749 109.607, 159.439 113.649, 156.761 114.367 C 152.686 115.459, 61.022 115.082, 58.934 113.965 C 56.375 112.595, 56.483 113.440, 59.189 115.961 C 61.565 118.175, 66.908 118.692, 68.717 116.883 C 69.475 116.125, 73.310 115.950, 80.667 116.338 C 93.491 117.013, 111.188 117.132, 134.309 116.698 C 143.554 116.524, 151.343 116.746, 151.618 117.191 C 152.298 118.291, 159 118.224, 159 117.117 C 159 116.631, 159.900 115.998, 161 115.710 C 163.604 115.029, 163.712 109.954, 161.171 107.655 C 158.896 105.596, 157.319 105.475, 158.989 107.487 M 373 118.988 C 373 123.252, 373.027 123.286, 375.008 121.493 C 376.929 119.755, 376.940 119.584, 375.269 117.588 C 374.308 116.439, 373.404 115.313, 373.261 115.083 C 373.117 114.854, 373 116.611, 373 118.988 M 408.464 115.941 C 408.784 116.459, 406.925 121.151, 404.333 126.369 L 399.621 135.855 396.560 134.229 C 392.379 132.007, 383.125 132.033, 379.701 134.276 C 374.185 137.890, 373.530 140.701, 373.175 162.250 L 372.850 182 361.270 182 C 349.753 182, 349.700 182.011, 351.500 184 C 353.073 185.738, 354.580 186, 363 186 C 376.922 186, 376.410 186.907, 376.460 162.189 C 376.497 144.109, 376.663 142.278, 378.500 139.781 C 379.600 138.286, 381.063 137.049, 381.750 137.031 C 382.438 137.014, 383 136.550, 383 136 C 383 135.450, 385.025 135, 387.500 135 C 389.975 135, 392 135.450, 392 136 C 392 136.550, 394.436 137, 397.413 137 L 402.827 137 406.413 129.741 C 409.920 122.644, 411.231 115, 408.941 115 C 408.359 115, 408.144 115.424, 408.464 115.941 M 490 148.500 L 490 182 478.750 182.015 C 471.117 182.026, 467.982 182.342, 469 183 C 469.825 183.533, 473.117 183.976, 476.316 183.985 C 479.514 183.993, 483.019 184.475, 484.104 185.055 C 486.341 186.253, 489.277 185.580, 491.494 183.363 C 492.772 182.086, 492.998 177.127, 492.986 150.679 C 492.979 133.530, 492.701 118.487, 492.370 117.250 C 490.576 110.555, 490 118.144, 490 148.500 M 555.757 116.034 L 558.013 116.940 554.261 124.523 C 551.059 130.994, 550.216 132.010, 548.505 131.457 C 547.402 131.101, 544.028 130.125, 541.007 129.288 C 531.993 126.791, 526.222 129.349, 528.553 134.808 C 529.168 136.249, 529.366 136.156, 529.889 134.186 C 530.226 132.914, 531.742 131.120, 533.258 130.200 C 535.518 128.829, 536.371 128.750, 537.994 129.764 C 539.082 130.444, 540.841 131, 541.903 131 C 542.965 131, 543.990 131.470, 544.181 132.044 C 544.373 132.618, 546.489 133.165, 548.885 133.261 C 552.620 133.410, 553.580 133.011, 555.616 130.467 C 556.922 128.835, 557.992 126.514, 557.995 125.309 C 557.998 124.104, 558.450 122.840, 559 122.500 C 561.623 120.879, 558.350 114.910, 554.921 115.063 C 554.140 115.098, 554.515 115.535, 555.757 116.034 M 767 123.500 L 767 132 760 132 L 753 132 753 145.277 C 753 155.676, 753.338 159.037, 754.557 160.777 C 755.413 162, 756.650 162.993, 757.307 162.985 C 758.056 162.975, 758.128 162.696, 757.500 162.235 C 754.904 160.328, 754 156.513, 754 147.468 C 754 138.763, 754.210 137.699, 756.354 135.555 C 757.966 133.943, 759.148 133.480, 760.104 134.085 C 762.136 135.372, 765.960 135.194, 767.321 133.750 C 771.520 129.297, 772.337 115, 768.393 115 C 767.312 115, 767 116.901, 767 123.500 M 802 148.500 L 802 182 790.800 182 C 781.840 182, 779.850 182.250, 780.850 183.250 C 781.550 183.950, 784.829 184.552, 788.300 184.619 C 791.710 184.684, 795.701 185.067, 797.169 185.470 C 799.331 186.063, 800.279 185.695, 802.163 183.528 C 804.481 180.862, 804.488 180.760, 804.657 149.677 C 804.826 118.388, 804.658 115, 802.933 115 C 802.374 115, 802 128.447, 802 148.500 M 646 148.845 L 646 181.934 634.750 182.217 L 623.500 182.500 627.307 184.391 C 630.634 186.043, 631.594 186.124, 634.913 185.029 C 637.580 184.149, 639.280 184.079, 640.620 184.796 C 641.988 185.529, 643.472 185.421, 645.861 184.416 C 649.179 183.021, 649.191 182.991, 648.544 177.757 C 647.803 171.758, 647.804 171.395, 648.568 140.928 C 649.063 121.198, 648.937 118.192, 647.567 117.056 C 646.150 115.879, 646 118.916, 646 148.845 M 709.727 124.750 C 707.663 128.738, 705.868 131.994, 705.737 131.987 C 705.607 131.980, 702.647 131.080, 699.161 129.987 C 691.301 127.523, 687.861 127.482, 684.978 129.817 C 683.067 131.364, 682.907 131.958, 683.902 133.817 C 685.466 136.739, 687 136.582, 687 133.500 C 687 131.703, 687.539 131, 688.917 131 C 689.971 131, 691.037 130.438, 691.286 129.750 C 691.648 128.750, 692.162 128.750, 693.856 129.750 C 695.020 130.438, 696.879 131, 697.986 131 C 699.094 131, 700 131.450, 700 132 C 700 132.550, 701.955 133, 704.345 133 C 708.821 133, 712 130.870, 712 127.871 C 712 127.062, 712.483 125.917, 713.073 125.327 C 713.663 124.737, 713.996 122.735, 713.813 120.877 C 713.486 117.562, 713.411 117.633, 709.727 124.750 M 443.411 133.891 C 436.991 137.806, 434.071 144.236, 435.428 151.471 C 436.134 155.231, 439.932 160.363, 443.358 162.184 C 444.664 162.878, 444.087 161.906, 441.881 159.693 C 436.809 154.604, 436.011 149.074, 439.328 142 C 440.922 138.599, 442.554 137, 444.429 137 C 445.293 137, 446 136.550, 446 136 C 446 135.436, 448.833 135, 452.500 135 C 456.167 135, 459 135.436, 459 136 C 459 136.550, 459.472 137, 460.048 137 C 460.624 137, 462.227 138.238, 463.608 139.750 C 465.331 141.636, 465.816 141.871, 465.152 140.500 C 464 138.121, 460.355 134.690, 457.316 133.125 C 453.948 131.391, 446.872 131.781, 443.411 133.891 M 598.604 134.266 C 596.461 135.495, 593.874 138.068, 592.854 139.984 C 589.424 146.430, 591.213 156.934, 596.353 160.535 C 599.821 162.964, 600.177 162.187, 596.991 159.142 C 594.213 156.487, 594 155.772, 594 149.108 C 594 142.255, 594.155 141.778, 597.467 138.467 C 600.765 135.168, 601.275 135, 607.967 135 C 611.989 135, 615 135.428, 615 136 C 615 136.550, 615.675 137, 616.500 137 C 617.325 137, 618 137.450, 618 138 C 618 138.550, 618.520 139, 619.155 139 C 621.080 139, 616.725 134.819, 613.282 133.362 C 608.593 131.377, 603.047 131.719, 598.604 134.266 M 722.559 133.468 C 725.129 135.412, 729 135.431, 729 133.500 C 729 132.405, 727.868 132, 724.809 132 C 720.909 132, 720.753 132.102, 722.559 133.468 M 115.750 139.031 C 117.975 139.926, 118 140.148, 118 159.433 C 118 177.906, 117.895 178.986, 116 180 C 113.819 181.167, 110.577 180.021, 109.666 177.761 C 109.370 177.027, 109.125 176.962, 109.079 177.604 C 108.984 178.933, 113.529 184, 114.816 184 C 115.317 184, 116.914 182.814, 118.364 181.364 L 121 178.727 121 161.898 C 121 148.180, 120.688 144.414, 119.315 141.534 C 118.164 139.120, 116.975 138.020, 115.565 138.063 C 113.601 138.124, 113.610 138.171, 115.750 139.031 M 88.985 142.250 C 88.952 147.087, 87.907 147.479, 74.118 147.828 C 65.734 148.040, 60.409 147.754, 59.034 147.018 C 57.056 145.960, 56.998 146.024, 58.195 147.940 C 59.401 149.872, 60.419 150, 74.541 150 C 84.920 150, 89.973 149.627, 90.800 148.800 C 92.094 147.506, 92.371 144.131, 91.393 141.582 C 90.497 139.246, 89.002 139.661, 88.985 142.250 M 146.500 159.669 C 146.500 176.843, 146.361 178.265, 144.552 179.586 C 143.481 180.369, 141.681 180.766, 140.552 180.468 C 139.278 180.132, 139.593 180.548, 141.381 181.564 C 143.626 182.840, 144.785 182.963, 146.631 182.122 L 149 181.043 149 162.144 C 149 148.244, 148.669 142.971, 147.750 142.210 C 146.758 141.388, 146.500 144.988, 146.500 159.669 M 550.937 145.069 C 561.938 153.038, 561.502 171.031, 550.127 178.523 C 539.618 185.445, 517.605 185.676, 506.250 178.983 C 504.462 177.929, 503.007 177.390, 503.015 177.784 C 503.071 180.370, 508.558 184, 512.414 184 C 513.616 184, 515.108 184.508, 515.728 185.128 C 517.333 186.733, 540.600 186.800, 542.196 185.204 C 542.858 184.542, 544.141 184, 545.046 184 C 550.405 184, 560 175.571, 560 170.864 C 560 169.354, 560.450 167.840, 561 167.500 C 561.550 167.160, 562 164.910, 562 162.500 C 562 160.090, 561.550 157.840, 561 157.500 C 560.450 157.160, 560 155.789, 560 154.452 C 560 150.549, 552.272 142, 548.744 142 C 547.161 142, 547.656 142.693, 550.937 145.069 M 709.605 147.542 C 713.645 151.826, 715.414 157.751, 714.491 163.905 C 712.560 176.785, 704.584 182.525, 687 183.691 C 677.735 184.305, 669.294 182.721, 662.001 179.001 C 659.801 177.878, 658 177.226, 658 177.551 C 658 179.560, 665.983 184, 669.595 184 C 670.853 184, 672.160 184.450, 672.500 185 C 672.840 185.550, 674.415 186, 676 186 C 677.585 186, 679.186 186.492, 679.558 187.094 C 679.979 187.776, 681.791 187.949, 684.367 187.555 C 686.640 187.207, 690.750 186.673, 693.500 186.369 C 696.250 186.065, 698.928 185.407, 699.450 184.908 C 699.973 184.409, 701.435 184, 702.700 184 C 703.965 184, 705 183.580, 705 183.067 C 705 182.554, 705.816 181.876, 706.814 181.559 C 707.811 181.243, 710.286 179.464, 712.314 177.607 L 716 174.230 716 163.115 L 716 152 712 148 C 707.058 143.058, 705.005 142.666, 709.605 147.542 M 664 145.751 C 664 146.934, 669.667 152, 670.991 152 C 671.546 152, 672 152.450, 672 153 C 672 153.550, 672.675 154, 673.500 154 C 674.325 154, 675 154.450, 675 155 C 675 155.550, 676.548 156, 678.441 156 C 680.334 156, 682.160 156.450, 682.500 157 C 682.840 157.550, 683.799 158, 684.630 158 C 686.327 158, 688.384 159.785, 689.260 162.018 C 689.732 163.220, 689.857 163.183, 689.921 161.823 C 690.003 160.091, 685.588 156.008, 683.615 155.990 C 681.486 155.972, 671.748 150.968, 667.884 147.908 C 665.748 146.216, 664 145.245, 664 145.751 M 510.003 147.750 C 510.004 148.162, 511.353 149.400, 513 150.500 C 514.647 151.600, 515.996 152.838, 515.997 153.250 C 515.999 153.662, 516.873 154, 517.941 154 C 519.009 154, 520.160 154.450, 520.500 155 C 520.840 155.550, 522.329 155.968, 523.809 155.929 C 526.178 155.867, 525.964 155.621, 522.020 153.873 C 519.556 152.780, 516.099 150.787, 514.337 149.443 C 510.983 146.885, 509.998 146.500, 510.003 147.750 M 527.500 157 C 527.840 157.550, 528.710 158, 529.434 158 C 530.158 158, 531.471 159.463, 532.352 161.250 C 533.542 163.664, 533.956 163.986, 533.962 162.500 C 533.971 159.946, 533.045 158.586, 530.316 157.150 C 527.629 155.735, 526.687 155.685, 527.500 157 M 765.013 163.595 C 765.021 164.093, 766.117 167.875, 767.448 172 L 769.870 179.500 765.685 181.485 C 762.542 182.976, 759.384 183.474, 753 183.485 C 745.767 183.498, 743.855 183.130, 740.170 181.021 C 737.739 179.629, 734.783 176.778, 733.430 174.521 C 730.542 169.705, 730.222 170.555, 732.927 175.857 C 735.107 180.130, 735.898 180.885, 741.500 184.039 C 744.825 185.911, 746.992 186.287, 754.339 186.267 C 763.992 186.240, 770.114 184.351, 772.426 180.687 C 773.190 179.475, 773.139 178.452, 772.243 177.017 C 771.559 175.923, 771 174.346, 771 173.514 C 771 172.681, 770.550 172, 770 172 C 769.450 172, 769 170.720, 769 169.155 C 769 167.580, 768.107 165.502, 767 164.500 C 765.900 163.505, 765.006 163.097, 765.013 163.595 M 415 169 C 415 170.367, 426.407 181.370, 429.134 182.635 C 430.435 183.239, 432.767 184.334, 434.315 185.070 C 437.699 186.678, 454.717 186.683, 456.323 185.077 C 456.915 184.485, 458.408 184, 459.641 184 C 460.874 184, 462.160 183.550, 462.500 183 C 462.840 182.450, 463.991 182, 465.059 182 C 466.611 182, 467 181.298, 467 178.500 C 467 176.575, 466.779 175, 466.509 175 C 466.238 175, 464.024 176.522, 461.588 178.381 C 456.036 182.619, 448.714 184.449, 440.416 183.674 C 432.311 182.918, 425.748 179.576, 419.730 173.143 C 417.129 170.361, 415 168.497, 415 169 M 571 170 C 571 170.550, 571.450 171, 572 171 C 572.550 171, 573 171.623, 573 172.385 C 573 173.147, 574.187 174.548, 575.639 175.499 C 578.112 177.120, 578.070 176.970, 574.971 173.114 C 571.479 168.769, 571 168.393, 571 170 M 89 176.109 C 89 180.553, 87.536 181, 73 181 C 63.756 181, 59.016 180.616, 58.200 179.800 C 57.464 179.064, 57 179.004, 57 179.645 C 57 180.220, 57.823 181.435, 58.829 182.345 C 60.346 183.718, 63.030 184, 74.606 184 C 87.344 184, 88.705 183.825, 90.278 181.989 C 92.360 179.557, 92.403 178.116, 90.468 175.559 C 89.051 173.685, 89 173.704, 89 176.109 M 616.677 178.576 C 614.025 180.430, 610.200 182.406, 608.177 182.967 C 599.833 185.285, 588.491 183.553, 581.822 178.942 L 578.500 176.645 580.924 179.322 C 582.258 180.795, 583.945 182, 584.674 182 C 585.403 182, 586 182.398, 586 182.883 C 586 183.868, 588.527 184.854, 594.500 186.202 C 601.997 187.893, 608.272 186.935, 616.236 182.883 C 617.191 182.397, 618.879 182, 619.986 182 C 621.621 182, 622 181.341, 622 178.500 C 622 176.575, 621.888 175.046, 621.750 175.103 C 621.612 175.160, 619.330 176.722, 616.677 178.576" stroke="none" fill="#181816" fill-rule="evenodd"/><path d="M 54.500 21 C 54.160 21.550, 52.777 22, 51.427 22 C 49.258 22, 45.416 23.559, 44 25.014 C 43.725 25.296, 41.025 27.524, 38 29.964 C 29.410 36.893, 25 42.044, 25 45.151 C 25 46.653, 24.550 48.160, 24 48.500 C 23.347 48.904, 23 77.360, 23 130.609 C 23 199.273, 23.225 212.524, 24.427 214.800 C 26.416 218.562, 40.764 232.404, 45 234.647 C 48.298 236.393, 52.050 236.500, 110 236.500 L 171.500 236.500 175.014 234.314 C 181.278 230.418, 193.673 216.834, 194.941 212.476 C 195.786 209.574, 196.018 186.966, 195.799 128.767 L 195.500 49.034 184.500 37.967 C 170.368 23.748, 164.496 20.050, 156 20.016 C 152.089 20.001, 147.401 23.339, 146.843 26.537 C 146.537 28.286, 147.155 28.528, 152.500 28.757 C 155.800 28.899, 159.575 29.261, 160.889 29.561 C 162.203 29.862, 168.616 35.333, 175.139 41.719 L 187 53.329 187 72.165 C 187 82.524, 186.768 91, 186.484 91 C 185.261 91, 168.972 76.488, 168.490 74.969 C 168.197 74.047, 166.280 72.485, 164.229 71.499 C 162.178 70.513, 159.719 69.322, 158.764 68.853 C 157.809 68.384, 155.932 68, 154.594 68 C 152.557 68, 151.886 67.172, 150.471 62.912 C 149.296 59.375, 147.131 56.175, 143.369 52.412 C 140.392 49.435, 137.361 47, 136.633 47 C 135.148 47, 132 50.140, 132 51.622 C 132 52.153, 134.233 55.228, 136.962 58.455 C 139.692 61.683, 143.179 66.741, 144.712 69.695 C 146.674 73.475, 148.241 75.231, 150 75.623 C 158.090 77.424, 161.445 79.950, 182.750 100.271 L 187 104.324 187 157.676 C 187 198.535, 186.707 211.534, 185.750 213.193 C 183.401 217.264, 174.347 225.700, 171.421 226.544 C 169.814 227.008, 142.284 227.532, 110.241 227.709 C 43.097 228.081, 49.209 228.940, 38 217.548 L 31.500 210.942 31.233 130.582 C 31.071 81.898, 31.337 49.243, 31.909 47.738 C 32.429 46.372, 36.933 41.598, 41.918 37.127 L 50.983 29 92.806 29 L 134.630 29 136.163 25.750 C 137.006 23.962, 137.502 21.938, 137.265 21.250 C 136.713 19.651, 55.485 19.406, 54.500 21 M 266.711 73.250 C 265.188 74.389, 265.035 79.146, 264.986 127 C 264.957 155.875, 264.948 180.063, 264.966 180.750 C 264.991 181.682, 268.185 182, 277.500 182 L 290 182 290 161.598 L 290 141.196 303.250 140.836 C 315.018 140.515, 317.129 140.182, 322.120 137.852 C 329.728 134.302, 335.383 128.957, 338.720 122.161 C 341.233 117.044, 341.497 115.491, 341.470 106 C 341.445 97.131, 341.086 94.778, 339.159 90.854 C 334.982 82.348, 324.546 75.127, 313.470 73.079 C 305.027 71.518, 268.849 71.651, 266.711 73.250 M 782.923 74.286 C 776.129 80.122, 774.519 85.762, 777.863 92.016 C 782.814 101.276, 796.574 101.666, 802.040 92.701 C 805.737 86.639, 803.581 77.545, 797.580 73.886 C 793.250 71.245, 786.239 71.437, 782.923 74.286 M 59.306 75.439 C 56.994 77.449, 56.695 78.198, 57.608 79.689 C 58.629 81.357, 60.932 81.521, 86.690 81.765 C 113.658 82.021, 114.728 81.958, 116.490 80.011 C 118.002 78.341, 118.121 77.561, 117.180 75.496 L 116.043 73 89.077 73 L 62.112 73 59.306 75.439 M 730.541 90.954 C 729.082 92.567, 728.819 94.446, 729.039 101.704 C 729.404 113.745, 729.377 113.867, 726.260 114.650 C 721.590 115.822, 719 120.006, 719 126.379 C 719 131.232, 719.886 132, 725.483 132 L 728.802 132 729.151 149.250 C 729.486 165.806, 729.614 166.731, 732.324 172.251 C 734.515 176.713, 736.197 178.619, 739.824 180.751 C 743.942 183.172, 745.514 183.498, 753 183.485 C 759.390 183.474, 762.534 182.978, 765.667 181.485 L 769.833 179.500 767.252 171.250 L 764.672 163 760.393 163 C 753.736 163, 753 161.237, 753 145.277 L 753 132 760 132 L 767 132 767 122.912 L 767 113.824 763.022 114.496 C 760.834 114.866, 757.684 114.870, 756.022 114.505 L 753 113.841 753 101.421 L 753 89 742.655 89 C 733.661 89, 732.079 89.255, 730.541 90.954 M 290 106.005 C 290 118.427, 290.227 120.452, 291.750 121.608 C 293.814 123.175, 299.613 123.434, 300.500 122 C 300.840 121.450, 302.441 121, 304.059 121 C 305.677 121, 307 120.550, 307 120 C 307 119.450, 307.881 119, 308.958 119 C 311.484 119, 316 111.430, 316 107.196 C 316 98.407, 309.236 93.108, 296.893 92.224 L 290 91.731 290 106.005 M 59.174 108.314 C 56.491 111.170, 56.430 112.624, 58.934 113.965 C 61.022 115.082, 152.686 115.459, 156.761 114.367 C 159.439 113.649, 160.749 109.607, 158.989 107.487 C 157.928 106.209, 150.992 106, 109.552 106 L 61.349 106 59.174 108.314 M 386 114.653 C 383.525 116.066, 381.350 117.622, 381.167 118.111 C 380.983 118.600, 380.112 119, 379.231 119 C 378.350 119, 376.587 119.978, 375.314 121.174 L 373 123.349 373 119.174 L 373 115 362.500 115 C 352.773 115, 352 115.143, 352 116.941 C 352 118.009, 351.550 119.160, 351 119.500 C 350.368 119.890, 350 131.510, 350 151.059 L 350 182 361.425 182 L 372.850 182 373.175 162.250 C 373.530 140.701, 374.185 137.890, 379.701 134.276 C 383.125 132.033, 392.379 132.007, 396.560 134.229 L 399.621 135.855 404.377 126.280 C 409.611 115.744, 409.566 115.283, 403.101 113.131 C 397.414 111.239, 390.979 111.811, 386 114.653 M 435.441 113.468 C 434.374 114.276, 432.669 114.951, 431.654 114.968 C 426.658 115.054, 415 127.406, 415 132.614 C 415 133.376, 414.550 134, 414 134 C 413.450 134, 413 135.035, 413 136.300 C 413 137.565, 412.441 139.159, 411.758 139.842 C 410.249 141.351, 410.262 156.131, 411.776 159.336 C 412.338 160.526, 413.389 163.075, 414.112 165 C 415.951 169.899, 423.555 177.741, 429.280 180.642 C 439.238 185.688, 453.305 184.704, 461.588 178.381 C 464.024 176.522, 466.238 175, 466.509 175 C 466.779 175, 467 176.575, 467 178.500 L 467 182 478.513 182 L 490.027 182 489.763 148.250 L 489.500 114.500 480 114.867 C 474.775 115.069, 470.350 115.632, 470.167 116.117 C 469.983 116.603, 468.971 117, 467.917 117 C 466.852 117, 466 117.689, 466 118.551 C 466 119.778, 465.321 119.601, 462.750 117.702 C 460.962 116.382, 457.578 114.559, 455.230 113.651 C 449.781 111.544, 438.127 111.437, 435.441 113.468 M 524 113.684 C 522.075 114.540, 519.719 115.636, 518.764 116.120 C 517.809 116.604, 516.556 117, 515.980 117 C 514.358 117, 508 123.746, 508 125.467 C 508 126.310, 507.550 127, 507 127 C 506.431 127, 506.003 129.912, 506.007 133.750 C 506.011 138.660, 506.524 141.274, 507.885 143.339 C 510.566 147.406, 517.685 152.168, 525.900 155.391 C 531.614 157.633, 533.134 158.685, 533.654 160.758 C 534.147 162.721, 533.761 163.775, 532.040 165.169 C 528.884 167.724, 525.461 167.429, 518.500 164 C 515.200 162.375, 511.813 161.035, 510.972 161.022 C 509.009 160.994, 506 164.496, 506 166.811 C 506 167.795, 505.566 169.034, 505.036 169.564 C 504.505 170.095, 503.943 172.058, 503.786 173.927 C 503.545 176.788, 503.975 177.608, 506.505 179.112 C 517.310 185.535, 539.149 185.397, 549.760 178.839 C 560.399 172.264, 562.084 154.297, 552.795 146.481 C 548.347 142.738, 542.530 140, 539.026 140 C 533.639 140, 527.650 135.505, 528.168 131.849 C 528.809 127.317, 535.297 127.192, 548.505 131.457 C 550.216 132.010, 551.059 130.994, 554.258 124.529 L 558.007 116.953 555.438 115.977 C 554.026 115.439, 552.279 115, 551.557 115 C 550.835 115, 548.629 114.325, 546.654 113.500 C 541.890 111.509, 528.650 111.617, 524 113.684 M 592 113.500 C 590.625 114.286, 588.712 114.945, 587.750 114.965 C 586.788 114.984, 586 115.450, 586 116 C 586 116.550, 585.100 117, 584 117 C 582.900 117, 582 117.450, 582 118 C 582 118.550, 581.438 119.002, 580.750 119.005 C 577.522 119.018, 569 130.221, 569 134.452 C 569 135.212, 568.517 135.994, 567.926 136.191 C 566.413 136.696, 566.363 159.288, 567.874 159.791 C 568.493 159.998, 569 161.177, 569 162.412 C 569 165.790, 574.749 173.791, 579.919 177.608 C 585.420 181.669, 592.549 184.002, 599.432 183.994 C 606.363 183.987, 610.989 182.545, 616.948 178.535 L 622 175.135 622 178.568 L 622 182 634 182 L 646 182 646 148.583 C 646 122.743, 645.717 115.071, 644.750 114.743 C 644.063 114.509, 639.239 114.538, 634.031 114.807 C 624.913 115.277, 622 116.287, 622 118.979 C 622 119.597, 620.538 119, 618.750 117.654 C 611.852 112.458, 597.675 110.256, 592 113.500 M 681 113.432 C 679.625 114.255, 677.802 114.945, 676.949 114.965 C 674.872 115.012, 670.018 117.310, 670.008 118.250 C 670.004 118.662, 669.355 119, 668.567 119 C 667.779 119, 666.849 119.900, 666.500 121 C 666.151 122.100, 665.446 123, 664.933 123 C 664.420 123, 664 123.900, 664 125 C 664 126.100, 663.550 127, 663 127 C 662.422 127, 662 130.167, 662 134.500 C 662 141.906, 662.050 142.050, 665.966 145.966 C 669.981 149.981, 676.507 153.759, 683.129 155.901 C 690.198 158.188, 692.008 163.906, 686.345 166.059 C 683.245 167.237, 680.056 166.585, 672.839 163.297 C 666.437 160.380, 665.085 160.563, 662.985 164.629 C 662.170 166.208, 661.277 167.725, 661.002 168 C 659.658 169.339, 658 173.188, 658 174.966 C 658 177.427, 663.524 180.405, 672.251 182.648 C 683.385 185.509, 699.518 183.328, 707.089 177.937 C 712.927 173.779, 716.180 163.096, 714.034 155.126 C 712.660 150.023, 706.213 143.193, 701.969 142.344 C 700.336 142.017, 699 141.356, 699 140.875 C 699 140.394, 697.419 140, 695.486 140 C 691.556 140, 688.594 138.610, 685.254 135.198 C 682.441 132.326, 682.436 131.508, 685.223 129.557 C 688.173 127.490, 691.526 127.594, 699.161 129.987 C 702.647 131.080, 705.607 131.980, 705.737 131.987 C 705.868 131.994, 707.603 128.766, 709.594 124.814 C 713.020 118.011, 713.116 117.558, 711.402 116.305 C 706.394 112.642, 685.599 110.677, 681 113.432 M 781.822 114.809 C 780.461 115.060, 780.028 116.765, 779.534 123.809 C 778.207 142.740, 777.904 164.304, 778.951 165.351 C 780.286 166.686, 780.322 172.683, 779 173.500 C 778.450 173.840, 778 175.891, 778 178.059 L 778 182 790 182 L 802 182 802 148.008 L 802 114.016 792.750 114.258 C 787.663 114.391, 782.745 114.639, 781.822 114.809 M 442.990 134.250 C 437.312 138.115, 435.500 141.440, 435.500 148 C 435.500 154.328, 437.141 157.528, 442.392 161.438 C 444.589 163.074, 446.576 163.485, 452.005 163.425 C 458.518 163.354, 459.028 163.172, 462.536 159.664 C 466.030 156.170, 466.229 155.619, 466.361 149.072 C 466.473 143.491, 466.099 141.623, 464.408 139.333 C 460.870 134.542, 456.223 132, 451 132 C 447.768 132, 445.261 132.704, 442.990 134.250 M 598.604 134.266 C 593.782 137.031, 591 142.056, 591 148 C 591 154.333, 593.744 159.027, 599.074 161.814 C 602.836 163.781, 604.401 164.033, 609.500 163.493 C 612.800 163.144, 615.650 162.440, 615.833 161.929 C 616.017 161.418, 616.752 161, 617.468 161 C 619.007 161, 622 156.730, 622 154.535 C 622 153.691, 622.450 153, 623 153 C 624.767 153, 624.067 146.181, 621.899 142.280 C 618.938 136.955, 616.979 134.927, 613.282 133.362 C 608.593 131.377, 603.047 131.719, 598.604 134.266 M 61.315 139.332 C 60.114 139.929, 58.618 141.543, 57.991 142.918 C 55.971 147.353, 58.600 148.167, 73.788 147.811 C 84.268 147.566, 87.277 147.183, 88.023 146 C 89.762 143.244, 89.102 140.367, 86.453 139.161 C 83.273 137.712, 64.314 137.841, 61.315 139.332 M 112.750 140.067 C 111.787 140.635, 111 141.950, 111 142.991 C 111 144.031, 110.499 145.192, 109.887 145.570 C 109.163 146.017, 108.988 148.137, 109.387 151.629 C 109.724 154.583, 110.281 159.473, 110.623 162.495 C 111.018 165.973, 110.793 169.086, 110.010 170.976 C 107.632 176.716, 111.447 182.436, 116.021 179.989 C 117.959 178.952, 118.031 178.096, 117.771 159.217 C 117.484 138.339, 117.242 137.416, 112.750 140.067 M 140.853 139.670 C 138.412 140.318, 138.268 141.854, 138.789 161.705 C 139.294 180.925, 139.687 182.308, 144 180 C 146.498 178.663, 147.250 171.957, 146.833 154.712 C 146.570 143.804, 146.187 140.725, 145 139.977 C 144.175 139.456, 143.275 139.076, 143 139.131 C 142.725 139.187, 141.759 139.429, 140.853 139.670 M 59.011 174.590 C 57.012 176.541, 56.738 177.361, 57.618 178.759 C 58.558 180.252, 60.675 180.540, 72.470 180.779 C 87.042 181.074, 89 180.577, 89 176.578 C 89 173.340, 84.169 172.074, 72 172.121 C 62.260 172.159, 61.320 172.338, 59.011 174.590" stroke="none" fill="#cdc4ae" fill-rule="evenodd"/></svg>