<svg xmlns="http://www.w3.org/2000/svg" width="600" height="168" viewBox="0 0 600 168" version="1.1"><path d="M 36.762 23.707 C 38.006 23.946, 39.806 23.937, 40.762 23.687 C 41.718 23.437, 40.700 23.241, 38.500 23.252 C 36.300 23.263, 35.518 23.468, 36.762 23.707 M 65.728 23.722 C 67.503 23.943, 70.653 23.946, 72.728 23.730 C 74.802 23.513, 73.350 23.333, 69.500 23.328 C 65.650 23.324, 63.952 23.501, 65.728 23.722 M 558.709 23.915 C 574.258 25.804, 576.009 46.696, 560.980 51.006 C 553.753 53.078, 545.425 47.833, 543.964 40.287 L 543.230 36.500 543.115 40.555 C 543.022 43.836, 543.620 45.274, 546.250 48.094 C 550.503 52.655, 556.893 54.802, 561.380 53.180 C 563.174 52.531, 565.392 52, 566.310 52 C 568.381 52, 572 48.997, 572 47.278 C 572 46.575, 572.450 46, 573 46 C 573.571 46, 574 43, 574 39 C 574 35, 573.571 32, 573 32 C 572.450 32, 572 31.172, 572 30.159 C 572 27.320, 563.234 22.968, 557.865 23.141 L 553.500 23.282 558.709 23.915 M 102.041 35.699 C 107.693 42.137, 109.399 47.288, 109.441 58.043 C 109.475 66.848, 109.224 68.102, 106.194 74.258 C 102.544 81.672, 98.330 85.699, 90 89.730 C 85.053 92.125, 83.117 92.434, 70.750 92.810 L 57 93.227 57 113.613 L 57 134 44.878 134 C 34.108 134, 32.897 134.171, 34.025 135.530 C 35.059 136.776, 37.459 137.009, 46.898 136.780 L 58.500 136.500 58.773 118.074 C 58.944 106.551, 59.458 99.153, 60.146 98.324 C 60.901 97.414, 63.920 97, 69.801 97 C 74.508 97, 79.965 96.482, 81.929 95.850 C 89.850 93.298, 94.202 91.413, 96.012 89.750 C 97.059 88.787, 98.290 88, 98.746 88 C 100.798 88, 106.220 81.984, 108.977 76.648 C 111.844 71.099, 112 70.182, 112 58.898 C 112 51.633, 111.611 47, 111 47 C 110.450 47, 110 46.394, 110 45.654 C 110 43.155, 107.047 38.364, 103.539 35.172 C 98.834 30.890, 98.058 31.163, 102.041 35.699 M 521 53.941 C 521 65.699, 521.055 66, 523.200 66 C 524.911 66, 525.133 65.733, 524.200 64.800 C 523.423 64.023, 523 59.991, 523 53.359 C 523 47.610, 522.561 42.847, 522 42.500 C 521.354 42.101, 521 46.156, 521 53.941 M 496.320 49 C 496.320 52.575, 496.502 54.038, 496.723 52.250 C 496.945 50.462, 496.945 47.538, 496.723 45.750 C 496.502 43.962, 496.320 45.425, 496.320 49 M 57 58.500 C 57 72.894, 57.016 72.999, 59.250 72.921 C 60.487 72.878, 60.938 72.615, 60.250 72.338 C 58.349 71.571, 58.509 49.349, 60.429 47.429 C 62.062 45.795, 67.575 45.503, 68.500 47 C 68.840 47.550, 70.865 48, 73 48 C 75.135 48, 77.160 48.450, 77.500 49 C 77.840 49.550, 78.654 49.985, 79.309 49.967 C 79.964 49.948, 79.482 49.085, 78.239 48.047 C 75.625 45.867, 67.880 44, 61.451 44 L 57 44 57 58.500 M 210.750 63.706 C 211.988 63.944, 214.012 63.944, 215.250 63.706 C 216.488 63.467, 215.475 63.272, 213 63.272 C 210.525 63.272, 209.512 63.467, 210.750 63.706 M 302.750 63.706 C 303.988 63.944, 306.012 63.944, 307.250 63.706 C 308.488 63.467, 307.475 63.272, 305 63.272 C 302.525 63.272, 301.512 63.467, 302.750 63.706 M 366.750 63.706 C 367.988 63.944, 370.012 63.944, 371.250 63.706 C 372.488 63.467, 371.475 63.272, 369 63.272 C 366.525 63.272, 365.512 63.467, 366.750 63.706 M 457.264 63.718 C 458.784 63.947, 461.034 63.941, 462.264 63.704 C 463.494 63.467, 462.250 63.279, 459.500 63.286 C 456.750 63.294, 455.744 63.488, 457.264 63.718 M 413 99.917 L 413 134 401.500 134 L 390 134 390 130.438 L 390 126.876 385.672 129.984 C 371.490 140.169, 351.204 136.927, 341.004 122.846 C 339.221 120.385, 338 119.371, 338 120.350 C 338 121.257, 338.450 122, 339 122 C 339.550 122, 340 122.581, 340 123.292 C 340 124.914, 348.152 133, 349.788 133 C 350.455 133, 351 133.395, 351 133.879 C 351 134.362, 352.462 135.299, 354.250 135.962 C 356.038 136.625, 358.281 137.579, 359.236 138.083 C 363.140 140.144, 376.287 138.883, 382.236 135.877 C 384.609 134.678, 392.738 134.767, 393.500 136 C 393.840 136.550, 398.160 137, 403.101 137 C 417.067 137, 416.079 139.885, 415.764 99.996 C 415.561 74.411, 415.210 66.569, 414.250 66.250 C 413.266 65.922, 413 73.095, 413 99.917 M 535 74.809 L 535 84 528 84 L 521 84 521 97.845 C 521 109.988, 521.225 111.893, 522.829 113.345 C 523.835 114.255, 525.522 114.964, 526.579 114.921 C 528 114.863, 528.114 114.691, 527.018 114.260 C 523.469 112.867, 523 111.204, 523 100 C 523 91.676, 523.361 88.496, 524.429 87.429 C 526.076 85.781, 529.593 85.533, 530.500 87 C 531.491 88.604, 535.163 88.153, 536.608 86.250 C 538.493 83.767, 538.391 70.101, 536.468 67.559 C 535.143 65.807, 535 66.513, 535 74.809 M 569 99.929 L 569 134 557.878 134 C 548.104 134, 546.906 134.182, 548 135.500 C 549.597 137.425, 568.921 137.679, 570.800 135.800 C 571.685 134.915, 572 125.962, 572 101.729 C 572 73.843, 571.772 68.630, 570.500 67.357 C 569.167 66.024, 569 69.643, 569 99.929 M 258 100.441 L 258 134 246.309 134 C 235.815 134, 234.816 134.150, 236.559 135.468 C 237.961 136.529, 241.312 136.945, 248.635 136.968 C 258.534 136.999, 258.811 136.938, 260.523 134.325 C 261.981 132.100, 262.084 131.121, 261.138 128.504 C 260.387 126.429, 260 115.616, 260 96.738 C 260 78.737, 259.629 67.889, 259 67.500 C 258.341 67.093, 258 78.323, 258 100.441 M 141 71.655 C 141 75.211, 141.052 75.262, 142.944 73.551 C 144.543 72.103, 144.678 71.457, 143.703 69.896 C 141.906 67.019, 141 67.609, 141 71.655 M 229.083 68.261 C 229.313 68.404, 230.512 69.374, 231.750 70.416 C 233.973 72.287, 234 72.284, 234 70.155 C 234 68.487, 233.397 68, 231.333 68 C 229.867 68, 228.854 68.117, 229.083 68.261 M 385 68.385 C 385 68.597, 386.125 69.507, 387.500 70.408 C 389.883 71.969, 390 71.951, 390 70.023 C 390 68.532, 389.343 68, 387.500 68 C 386.125 68, 385 68.173, 385 68.385 M 480.474 68.959 C 480.800 69.486, 479.448 73.131, 477.470 77.059 C 474.294 83.367, 473.619 84.119, 471.687 83.505 C 463.311 80.843, 458.322 79.905, 455.429 80.447 C 451.743 81.139, 450.062 84.165, 452.040 86.548 C 453.361 88.140, 455.472 88.572, 454.537 87.060 C 453.835 85.924, 457.840 82, 459.702 82 C 460.992 82, 462.109 82.452, 466.736 84.844 C 469.695 86.373, 475.832 86.319, 477.359 84.750 C 478.028 84.063, 479.358 81.832, 480.315 79.792 C 481.271 77.753, 482.440 75.846, 482.913 75.553 C 484.089 74.827, 485.712 76.978, 486.268 80 C 486.521 81.375, 486.789 79.222, 486.864 75.215 C 486.995 68.221, 486.920 67.972, 485 69 C 483.644 69.726, 483 69.737, 483 69.035 C 483 68.466, 482.298 68, 481.441 68 C 480.584 68, 480.149 68.431, 480.474 68.959 M 171.722 78.521 L 166.993 88.041 164.457 86.380 C 160.579 83.839, 150.893 83.958, 147.329 86.590 C 142.031 90.504, 141.527 92.774, 141.192 114.250 L 140.883 134 128.870 134 C 118.192 134, 117.024 134.167, 118.357 135.500 C 120.567 137.710, 140.205 137.652, 142.429 135.429 C 143.754 134.103, 144 130.679, 144 113.565 L 144 93.273 146.636 90.636 C 148.973 88.300, 150.054 88, 156.136 88 C 160.045 88, 163 88.430, 163 89 C 163 89.550, 164.545 90, 166.433 90 C 168.987 90, 170.028 89.488, 170.500 88 C 170.849 86.900, 171.554 86, 172.067 86 C 172.580 86, 173 85.176, 173 84.169 C 173 83.163, 174.123 80.125, 175.496 77.419 C 177.979 72.525, 178.703 69, 177.226 69 C 176.800 69, 174.323 73.284, 171.722 78.521 M 321.500 77 C 319.561 80.850, 317.868 83.994, 317.737 83.987 C 317.607 83.980, 314.647 83.080, 311.161 81.987 C 303.349 79.538, 299.861 79.482, 297.050 81.759 C 294.557 83.777, 295.063 86.428, 298.269 88.144 C 299.948 89.042, 300.200 88.964, 299.714 87.697 C 298.429 84.347, 305.643 79.995, 307.500 83 C 307.840 83.550, 309.216 84, 310.559 84 C 311.902 84, 313 84.450, 313 85 C 313 85.550, 314.350 86, 316 86 C 317.650 86, 319 85.550, 319 85 C 319 84.450, 319.717 84, 320.594 84 C 321.470 84, 322.423 83.100, 322.710 82 C 322.998 80.900, 323.631 80, 324.117 80 C 324.602 80, 325 78.875, 325 77.500 C 325 76.125, 325.450 75, 326 75 C 326.550 75, 327 73.875, 327 72.500 C 327 68.222, 325.164 69.724, 321.500 77 M 211.218 85.663 C 201.489 90.458, 200.126 107.024, 208.977 112.901 C 211.233 114.399, 211.256 114.382, 209.904 112.218 C 209.142 110.998, 208.177 110, 207.759 110 C 207.342 110, 207 109.100, 207 108 C 207 106.900, 206.550 106, 206 106 C 205.450 106, 205 104.002, 205 101.559 C 205 99.116, 205.450 96.840, 206 96.500 C 206.550 96.160, 207 95.213, 207 94.396 C 207 92.471, 211.471 88, 213.396 88 C 214.213 88, 215.160 87.550, 215.500 87 C 216.257 85.775, 221.392 85.687, 223.764 86.857 C 224.719 87.329, 227.075 88.529, 229 89.524 L 232.500 91.333 230.500 89.029 C 226.246 84.126, 217.451 82.591, 211.218 85.663 M 367 85.790 C 361.629 88.726, 359 93.296, 359 99.698 C 359 108.446, 363.247 113.994, 371 115.374 C 374.481 115.994, 374.476 115.987, 370.197 114.017 C 365.169 111.704, 363 109.761, 363 107.571 C 363 106.707, 362.550 106, 362 106 C 361.450 106, 361 104.002, 361 101.559 C 361 99.116, 361.450 96.840, 362 96.500 C 362.550 96.160, 363 95.201, 363 94.370 C 363 90.615, 368.666 88, 376.798 88 C 382.284 88, 384.052 88.400, 385.811 90.039 C 387.015 91.160, 388 91.633, 388 91.090 C 388 90.546, 386.393 88.876, 384.428 87.377 C 379.682 83.757, 371.999 83.057, 367 85.790 M 490.500 85 C 490.840 85.550, 492.183 86, 493.486 86 C 494.900 86, 496.038 86.705, 496.311 87.750 C 496.592 88.827, 496.813 88.442, 496.884 86.750 C 496.990 84.243, 496.685 84, 493.441 84 C 491.323 84, 490.132 84.405, 490.500 85 M 472.947 95.959 C 479.401 100.240, 481.989 105.052, 481.995 112.782 C 482.001 120.054, 480.415 124.404, 476.373 128.196 C 471.357 132.904, 464.715 135.150, 454.127 135.722 C 444.615 136.235, 439.214 135.130, 428.614 130.505 C 427.207 129.891, 426.846 130.040, 427.194 131.091 C 427.654 132.480, 429.601 133.636, 435.500 136.020 C 437.150 136.688, 439.281 137.631, 440.236 138.117 C 442.645 139.342, 463.733 139.240, 464.500 138 C 464.840 137.450, 466.147 137, 467.405 137 C 472.057 137, 479.279 131.902, 481.925 126.750 C 482.702 125.237, 483.712 124, 484.169 124 C 484.626 124, 485 119.689, 485 114.420 L 485 104.840 479.080 98.920 C 475.232 95.072, 472.344 93.001, 470.830 93.004 C 468.866 93.008, 469.199 93.472, 472.947 95.959 M 275 96.446 C 275 97.072, 276.918 99.703, 279.262 102.292 C 282.669 106.056, 284.172 107, 286.762 107 C 288.543 107, 290 107.450, 290 108 C 290 108.550, 291.040 109, 292.311 109 C 294.910 109, 299 112.346, 299 114.472 C 299 118.084, 289.425 117.376, 284.718 113.416 C 281.686 110.865, 280 110.353, 280 111.983 C 280 113.291, 288.870 117.739, 292.015 118.008 C 298.123 118.532, 300.044 117.999, 301.201 115.458 C 302.776 112.002, 300.661 110.077, 290.869 106.050 C 286.603 104.296, 281.422 101.236, 279.119 99.110 C 276.854 97.018, 275 95.819, 275 96.446 M 431 96.804 C 431 98.763, 441.185 107, 443.608 107 C 444.924 107, 446 107.450, 446 108 C 446 108.550, 447.055 109, 448.345 109 C 451.001 109, 454 111.826, 454 114.329 C 454 115.665, 453.009 116, 449.059 116 C 446.341 116, 443.840 115.550, 443.500 115 C 443.160 114.450, 441.896 114.020, 440.691 114.044 C 438.934 114.080, 439.246 114.482, 442.264 116.075 C 448.405 119.317, 456.304 118.768, 457.281 115.032 C 457.813 113.001, 455.555 109, 453.878 109 C 451.507 109, 438.152 102.072, 434.730 99.068 C 432.678 97.267, 431 96.248, 431 96.804 M 323.271 101.582 C 326.169 105.696, 326.494 106.865, 326.445 113 C 326.345 125.389, 319.625 132.482, 305.500 135.108 C 296.824 136.720, 285.565 135.712, 277.962 132.641 C 274.461 131.227, 271.350 130.323, 271.048 130.632 C 270.747 130.942, 272.058 132.501, 273.962 134.098 C 276.426 136.163, 278.500 137, 281.153 137 C 283.204 137, 285.160 137.450, 285.500 138 C 286.497 139.613, 305.864 139.192, 310.870 137.449 C 320.731 134.015, 327 129.009, 327 124.568 C 327 123.221, 327.450 121.840, 328 121.500 C 328.550 121.160, 329 117.534, 329 113.441 C 329 109.147, 328.577 106, 328 106 C 327.450 106, 327 105.321, 327 104.491 C 327 102.862, 322.192 97, 320.855 97 C 320.408 97, 321.494 99.062, 323.271 101.582 M 496.336 104 C 496.336 108.125, 496.513 109.813, 496.728 107.750 C 496.944 105.688, 496.944 102.313, 496.728 100.250 C 496.513 98.188, 496.336 99.875, 496.336 104 M 532.425 115.177 C 532.655 115.905, 533.821 119.553, 535.015 123.286 C 536.209 127.018, 536.943 130.706, 536.646 131.481 C 535.908 133.403, 526.736 136, 520.685 136 C 513.755 136, 508.285 134.134, 504.358 130.431 C 502.511 128.689, 501 127.741, 501 128.324 C 501 130.224, 509.109 137, 511.384 137 C 512.603 137, 514.089 137.489, 514.687 138.087 C 515.361 138.761, 518.375 138.986, 522.637 138.679 C 532.730 137.953, 536.297 137.029, 538.228 134.639 C 540.140 132.272, 540.552 128.459, 539 127.500 C 538.450 127.160, 538 125.874, 538 124.641 C 538 123.408, 537.585 121.973, 537.077 121.450 C 536.569 120.927, 536.007 119.154, 535.827 117.509 C 535.621 115.623, 534.854 114.395, 533.754 114.186 C 532.669 113.980, 532.165 114.356, 532.425 115.177 M 186 125.841 C 186 127.358, 193.855 133.506, 197.250 134.646 C 198.213 134.969, 199 135.631, 199 136.117 C 199 136.602, 200.125 137, 201.500 137 C 202.875 137, 204 137.450, 204 138 C 204 139.239, 218.340 139.346, 220.764 138.125 C 228.199 134.379, 231.383 133, 232.595 133 C 233.482 133, 234 131.920, 234 130.068 L 234 127.135 228.928 130.548 C 222.310 135.002, 217.025 136.356, 208.884 135.685 C 201.003 135.034, 197.110 133.525, 190.750 128.652 C 188.137 126.651, 186 125.386, 186 125.841" stroke="none" fill="#181816" fill-rule="evenodd"/><path d="M 33.200 25.200 C 32.296 26.104, 32 39.689, 32 80.200 L 32 134 44.500 134 L 57 134 57 113.613 L 57 93.227 70.750 92.810 C 83.117 92.434, 85.053 92.125, 90 89.730 C 98.330 85.699, 102.544 81.672, 106.194 74.258 C 109.224 68.102, 109.475 66.848, 109.441 58.043 C 109.398 47.115, 107.611 41.882, 101.703 35.378 C 98.494 31.846, 96.584 30.607, 89 27.136 C 83.903 24.804, 75.201 24, 55.064 24 C 40.325 24, 34.056 24.344, 33.200 25.200 M 551.500 25.216 C 548.530 26.930, 547 28.675, 547 30.345 C 547 31.164, 546.542 31.986, 545.982 32.173 C 545.422 32.359, 544.693 34.795, 544.363 37.586 C 543.807 42.275, 544.005 42.936, 546.972 46.316 C 552.639 52.770, 561.060 53.191, 567.181 47.327 C 573.133 41.624, 572.810 32.675, 566.451 27.091 C 563.563 24.555, 562.084 24.005, 558.215 24.030 C 555.622 24.047, 552.600 24.580, 551.500 25.216 M 498.048 41.442 C 497.213 42.448, 496.873 45.868, 497.025 51.725 C 497.388 65.768, 497.348 66, 494.559 66 C 493.216 66, 491.840 66.450, 491.500 67 C 491.160 67.550, 489.990 68, 488.899 68 C 487.067 68, 486.938 68.591, 487.208 75.750 L 487.500 83.500 492.250 83.805 C 496.853 84.100, 497.001 84.208, 497.036 87.305 C 497.383 117.758, 497.511 119.425, 499.876 124.277 C 503.668 132.057, 510.595 136, 520.468 136 C 526.624 136, 535.894 133.440, 536.623 131.539 C 536.909 130.795, 536.019 126.657, 534.645 122.343 L 532.148 114.500 528.393 114.741 C 521.635 115.175, 521 113.723, 521 97.845 L 521 84 528 84 L 535 84 535 75 L 535 66 528.030 66 L 521.060 66 520.780 53.250 L 520.500 40.500 509.899 40.218 C 501.425 39.992, 499.048 40.238, 498.048 41.442 M 57 58.439 L 57 72.877 61.648 73.575 C 67.823 74.501, 76.442 71.808, 80.208 67.778 C 82.651 65.162, 83 64.003, 83 58.498 C 83 52.588, 82.793 52.025, 79.579 49.203 C 75.906 45.979, 69.013 44, 61.451 44 L 57 44 57 58.439 M 158 65 C 157.175 65.533, 155.375 65.988, 154 66.012 C 152.497 66.037, 149.507 67.830, 146.500 70.510 L 141.500 74.966 141.195 70.483 L 140.890 66 130.945 66 C 125.475 66, 121 66.398, 121 66.883 C 121 67.369, 120.100 68.002, 119 68.290 C 117.371 68.716, 117 69.654, 117 73.347 C 117 75.841, 117.450 78.160, 118 78.500 C 118.550 78.840, 119 81.315, 119 84 C 119 86.685, 118.550 89.160, 118 89.500 C 117.382 89.882, 117 98.510, 117 112.059 L 117 134 128.942 134 L 140.883 134 141.192 114.250 C 141.527 92.774, 142.031 90.504, 147.329 86.590 C 150.887 83.962, 160.579 83.839, 164.445 86.372 L 166.969 88.026 172.007 77.987 L 177.044 67.948 172.439 65.974 C 167.540 63.874, 160.480 63.398, 158 65 M 205.500 65 C 205.160 65.550, 203.559 66, 201.941 66 C 200.323 66, 199 66.450, 199 67 C 199 67.550, 198.100 68, 197 68 C 195.900 68, 195 68.450, 195 69 C 195 69.550, 194.378 70, 193.619 70 C 190.633 70, 182 81.587, 182 85.595 C 182 86.368, 181.550 87, 181 87 C 180.450 87, 180 88.035, 180 89.300 C 180 90.565, 179.492 92.108, 178.871 92.729 C 178.137 93.463, 177.895 96.772, 178.181 102.179 C 179.174 121.022, 191.196 134.224, 208.672 135.667 C 217.041 136.358, 222.253 135.041, 228.928 130.548 L 234 127.135 234 130.568 L 234 134 246 134 L 258 134 258 100 L 258 66 248.699 66 C 238.787 66, 234.021 67.368, 234.008 70.216 C 234.001 71.670, 233.351 71.506, 229.750 69.141 C 227.412 67.606, 223.648 65.822, 221.384 65.175 C 216.356 63.740, 206.347 63.629, 205.500 65 M 293.500 65.241 C 279.125 68.791, 275.206 72.845, 273.328 86.110 C 272.215 93.966, 279.152 101.529, 292.146 106.627 C 300.662 109.968, 302.762 112.032, 301.180 115.504 C 299.334 119.555, 292.200 119.249, 283.723 114.755 C 278.113 111.781, 277.904 111.748, 276.505 113.596 C 275.712 114.643, 275.049 116.063, 275.032 116.750 C 275.014 117.438, 274.660 118, 274.244 118 C 273.375 118, 271.491 122.239, 270.591 126.223 C 270.045 128.638, 270.430 129.179, 273.989 130.994 C 281.294 134.721, 289.730 136.305, 299 135.691 C 312.680 134.784, 319.342 131.686, 323.737 124.186 C 325.875 120.538, 326.402 118.343, 326.446 112.915 C 326.494 106.976, 326.138 105.658, 323.460 101.837 C 320.114 97.064, 309.675 91.022, 304.750 91.008 C 303.238 91.003, 302 90.599, 302 90.108 C 302 89.618, 300.888 88.938, 299.529 88.597 C 298.170 88.255, 296.535 86.999, 295.896 85.805 C 294.909 83.961, 295.072 83.360, 296.978 81.817 C 299.861 79.482, 303.301 79.523, 311.161 81.987 C 314.647 83.080, 317.607 83.980, 317.737 83.987 C 317.868 83.994, 319.603 80.766, 321.594 76.814 C 324.995 70.060, 325.105 69.550, 323.432 68.327 C 322.453 67.611, 320.043 66.766, 318.076 66.449 C 316.109 66.132, 313.466 65.451, 312.203 64.936 C 309.323 63.762, 298.792 63.934, 293.500 65.241 M 358.441 65.381 C 356.209 65.996, 353.187 67.287, 351.726 68.250 C 350.266 69.213, 348.833 70, 348.543 70 C 346.175 70, 338 80.453, 338 83.480 C 338 84.316, 337.550 85, 337 85 C 336.450 85, 336 86.350, 336 88 C 336 89.650, 335.508 91, 334.906 91 C 334.166 91, 333.926 94.146, 334.163 100.750 C 334.566 111.961, 337.097 118.782, 343.475 125.840 C 353.657 137.111, 372.300 139.143, 385.050 130.372 L 390 126.967 390 130.483 L 390 134 401.500 134 L 413 134 413 100 L 413 66 403 66 C 397 66, 393 66.400, 393 67 C 393 67.550, 392.325 68, 391.500 68 C 390.663 68, 390 68.890, 390 70.014 C 390 71.951, 389.856 71.933, 386.250 69.553 C 378.195 64.236, 368.089 62.720, 358.441 65.381 M 451 65 C 450.175 65.533, 448.305 65.976, 446.845 65.985 C 441.176 66.017, 431.004 73.250, 431.001 77.250 C 431.001 78.213, 430.550 79, 430 79 C 429.440 79, 429.002 81.748, 429.004 85.250 C 429.010 95.445, 433.245 100.272, 447.697 106.554 C 456.044 110.183, 458.080 111.979, 457.286 115.013 C 456.232 119.046, 448.469 119.285, 441.026 115.513 C 435.121 112.521, 431.833 112.913, 430.012 116.826 C 429.327 118.297, 428.369 120.281, 427.883 121.236 C 427.397 122.191, 427 124.499, 427 126.363 C 427 129.456, 427.418 129.934, 431.763 131.803 C 440.103 135.390, 445.639 136.319, 455.045 135.710 C 468.309 134.851, 477.255 130.155, 480.623 122.282 C 482.796 117.204, 482.395 107.476, 479.826 102.904 C 476.834 97.581, 466.348 91, 460.858 91 C 458.356 91, 450.996 86.317, 451.015 84.737 C 451.082 79.311, 457.256 78.944, 471.687 83.509 C 473.620 84.120, 474.300 83.355, 477.543 76.914 C 480.991 70.068, 481.105 69.550, 479.432 68.327 C 478.453 67.611, 476.043 66.760, 474.076 66.436 C 472.109 66.111, 469.195 65.430, 467.601 64.923 C 463.801 63.713, 452.913 63.764, 451 65 M 546.241 67.986 C 545.320 69.460, 545 78.240, 545 101.986 L 545 134 557 134 L 569 134 569 100 L 569 66 558.241 66 C 548.589 66, 547.353 66.204, 546.241 67.986 M 211.218 85.663 C 206.282 88.096, 203.660 92.457, 203.239 98.935 C 202.764 106.252, 205.111 110.712, 211.036 113.750 C 218.745 117.703, 225.766 116.458, 231.750 110.075 C 234.651 106.982, 235 105.981, 235 100.762 C 235 97.547, 234.545 94.372, 233.989 93.708 C 233.433 93.044, 232.008 91.208, 230.821 89.629 C 226.768 84.234, 217.799 82.420, 211.218 85.663 M 367 85.790 C 361.629 88.726, 359 93.296, 359 99.698 C 359 109.408, 363.819 114.713, 373.552 115.718 C 379.439 116.325, 382.704 115.257, 386.595 111.450 C 390.476 107.653, 391.528 97.856, 388.652 92.295 C 384.901 85.041, 374.233 81.836, 367 85.790" stroke="none" fill="#d1c9b1" fill-rule="evenodd"/></svg>