<svg xmlns="http://www.w3.org/2000/svg" width="776" height="925" viewBox="0 0 776 925" version="1.1"><path d="M 238.500 57.059 C 235.750 57.404, 264.962 57.756, 303.417 57.843 C 341.871 57.929, 373.146 57.828, 372.917 57.619 C 372.180 56.944, 243.684 56.409, 238.500 57.059 M 396.750 57.732 C 399.087 57.943, 402.913 57.943, 405.250 57.732 C 407.587 57.522, 405.675 57.349, 401 57.349 C 396.325 57.349, 394.413 57.522, 396.750 57.732 M 419.750 57.706 C 420.988 57.944, 423.012 57.944, 424.250 57.706 C 425.488 57.467, 424.475 57.272, 422 57.272 C 419.525 57.272, 418.512 57.467, 419.750 57.706 M 171.629 58.791 C 171.360 59.226, 172.796 59.425, 174.820 59.233 C 181.004 58.647, 181.733 58.238, 176.809 58.116 C 174.229 58.052, 171.898 58.356, 171.629 58.791 M 515.567 59.313 C 516.109 60.726, 514.393 64.220, 506.637 77.500 C 504.389 81.350, 501.571 86.300, 500.376 88.500 L 498.203 92.500 339.851 93 L 181.500 93.500 175.981 96.211 C 172.945 97.701, 169.560 99.726, 168.457 100.711 C 167.355 101.695, 162.413 106.095, 157.476 110.489 C 152.539 114.884, 147.825 119.161, 147 119.995 C 146.175 120.829, 140.550 126.006, 134.500 131.499 C 109.789 153.936, 106.073 158.041, 103.265 166 C 102.295 168.748, 102.027 235.837, 102.015 478.212 C 102 783.449, 102.022 786.985, 103.980 792.217 C 106.507 798.972, 109.386 801.981, 146.184 836.337 C 160.741 849.928, 166.722 854.110, 175.500 856.834 C 178.646 857.811, 226.338 858.014, 399 857.786 L 618.500 857.495 397.809 857.248 C 252.029 857.084, 176.908 856.661, 176.500 856 C 176.160 855.450, 175.051 855, 174.035 855 C 171.812 855, 164 850.963, 164 849.814 C 164 849.367, 163.345 849, 162.544 849 C 161.743 849, 156.879 844.837, 151.734 839.750 C 146.590 834.663, 138.822 827.350, 134.473 823.500 C 122.076 812.527, 109.665 799.861, 107.227 795.693 C 106.002 793.599, 105 790.588, 105 789.002 C 105 787.416, 104.550 785.840, 104 785.500 C 103.337 785.090, 103 681.843, 103 479 C 103 276.157, 103.337 172.910, 104 172.500 C 104.550 172.160, 105 170.826, 105 169.535 C 105 164.989, 109.496 158.876, 121.436 147.192 C 128.071 140.700, 134.544 134.673, 135.821 133.800 C 137.097 132.927, 144.568 125.943, 152.423 118.280 C 170.084 101.050, 175.449 97, 180.614 97 C 181.926 97, 183 96.550, 183 96 C 183 95.338, 236.282 95, 340.845 95 C 492.493 95, 498.755 94.928, 500.345 93.171 C 501.255 92.165, 502 90.815, 502 90.171 C 502 89.527, 502.450 89, 503 89 C 503.550 89, 504 88.100, 504 87 C 504 85.900, 504.450 85, 505 85 C 505.550 85, 506.010 84.213, 506.022 83.250 C 506.034 82.287, 506.924 80.375, 508 79 C 509.076 77.625, 509.966 75.975, 509.978 75.333 C 509.990 74.692, 510.337 74.017, 510.750 73.833 C 511.163 73.650, 512.737 71.843, 514.250 69.817 C 517.042 66.077, 518.027 59.753, 516.011 58.507 C 515.465 58.169, 515.266 58.530, 515.567 59.313 M 556.750 58.737 C 559.638 58.939, 564.362 58.939, 567.250 58.737 C 570.138 58.535, 567.775 58.370, 562 58.370 C 556.225 58.370, 553.862 58.535, 556.750 58.737 M 587.500 58.496 C 590.037 59.354, 597.905 59.655, 597.423 58.875 C 597.125 58.394, 594.546 58.036, 591.691 58.079 C 588.836 58.122, 586.950 58.310, 587.500 58.496 M 601 60.701 C 605.386 61.453, 615.307 65.168, 621.500 68.377 C 629.270 72.403, 630.022 72.673, 627 70.351 C 625.625 69.294, 622.250 67.384, 619.500 66.105 C 616.750 64.827, 613.719 63.380, 612.764 62.891 C 611.809 62.401, 610.148 62, 609.073 62 C 607.998 62, 606.840 61.550, 606.500 61 C 606.160 60.450, 604.221 60.061, 602.191 60.136 C 599.516 60.235, 599.188 60.390, 601 60.701 M 641.500 81.228 C 644.250 83.547, 652.490 91.306, 659.812 98.472 C 667.133 105.637, 673.658 111.669, 674.312 111.875 C 676.115 112.443, 644.904 82.092, 641.750 80.210 C 640.237 79.307, 639 78.216, 639 77.784 C 639 77.353, 638.438 77.003, 637.750 77.006 C 637.063 77.010, 638.750 78.910, 641.500 81.228 M 540 93.891 C 540 95.449, 546.891 95.742, 571.099 95.216 C 588.273 94.843, 594.892 95.016, 595.408 95.852 C 595.799 96.483, 597.306 97, 598.759 97 C 602.210 97, 600.601 95.650, 595.384 94.169 C 590.469 92.773, 540 92.520, 540 93.891 M 606.550 99.856 C 607.072 100.326, 609.975 102.603, 613 104.916 C 627.270 115.824, 630.774 119.087, 668.083 156.209 C 688.701 176.724, 695.638 184.262, 697.991 188.709 C 699.676 191.894, 700.775 193.375, 700.433 192 C 698.672 184.922, 692.465 177.845, 661 147.044 C 628.883 115.603, 620.958 108.374, 611.820 102.175 C 607.506 99.249, 604.319 97.846, 606.550 99.856 M 113 104.500 C 110.571 106.975, 108.809 109, 109.084 109 C 109.359 109, 111.571 106.975, 114 104.500 C 116.429 102.025, 118.191 100, 117.916 100 C 117.641 100, 115.429 102.025, 113 104.500 M 704.281 141.470 C 726.616 163.756, 729.231 166.997, 732.711 176.700 C 734.325 181.200, 734.434 200.387, 734.466 483.500 L 734.500 785.500 732.110 794.500 C 727.115 813.310, 723.555 818.127, 690.763 850.449 C 662.706 878.103, 656.569 883.228, 646.989 887.004 C 633.812 892.198, 643.604 892, 400.799 892 C 158.768 892, 172.509 892.277, 159.056 887.128 C 153.765 885.103, 144.071 879.606, 139 875.754 C 137.625 874.710, 131.775 869.292, 126 863.714 C 108.423 846.738, 104.721 843.411, 105.835 845.595 C 106.423 846.747, 108.388 848.847, 110.202 850.261 C 112.016 851.675, 118.900 858.092, 125.500 864.520 C 137.064 875.784, 144.685 882, 146.930 882 C 147.519 882, 148 882.366, 148 882.813 C 148 883.261, 149.575 884.245, 151.500 885 C 153.425 885.755, 155 886.739, 155 887.187 C 155 887.634, 155.873 888, 156.941 888 C 158.009 888, 159.160 888.450, 159.500 889 C 159.840 889.550, 161.179 890, 162.476 890 C 163.772 890, 164.991 890.472, 165.183 891.050 C 166.275 894.324, 178.557 894.500, 403.500 894.467 C 566.489 894.443, 628.249 894.126, 633 893.288 C 639.358 892.167, 644.760 890.600, 648.236 888.866 C 649.191 888.390, 650.654 888, 651.486 888 C 652.319 888, 653 887.550, 653 887 C 653 886.450, 653.675 886, 654.500 886 C 655.325 886, 656 885.550, 656 885 C 656 884.450, 656.608 884, 657.352 884 C 658.095 884, 660.021 882.763, 661.632 881.250 C 663.243 879.737, 666.638 876.821, 669.177 874.768 C 676.810 868.596, 721 824.090, 721 822.574 C 721 821.800, 721.392 821.017, 721.871 820.833 C 723.018 820.394, 730 809.401, 730 808.034 C 730 807.451, 730.450 806.079, 731 804.986 C 731.550 803.894, 732.450 802.106, 733 801.014 C 733.550 799.921, 734 797.473, 734 795.573 C 734 793.673, 734.450 791.840, 735 791.500 C 735.663 791.090, 736 687.843, 736 485 C 736 282.157, 735.663 178.910, 735 178.500 C 734.450 178.160, 734 176.559, 734 174.941 C 734 173.323, 733.550 172, 733 172 C 732.450 172, 732 171.259, 732 170.353 C 732 169.447, 730.327 166.635, 728.283 164.103 C 723.531 158.218, 688.465 123.544, 684.500 120.809 C 682.850 119.670, 691.751 128.968, 704.281 141.470 M 496.594 161.501 C 494.996 162.876, 494.031 164, 494.450 164 C 494.869 164, 496.548 162.875, 498.182 161.500 C 499.816 160.125, 500.781 159.001, 500.327 159.001 C 499.872 159.002, 498.193 160.127, 496.594 161.501 M 511.109 162.865 C 513.524 164.991, 516.933 168.069, 518.684 169.704 C 520.435 171.340, 524.874 175.335, 528.549 178.581 C 536.189 185.330, 545.947 196.726, 551.629 205.534 C 554.046 209.282, 557.178 216.667, 559.894 225.024 C 565.036 240.845, 566.139 242.785, 570.347 243.425 C 576.914 244.423, 591.266 244.782, 589.895 243.914 C 589.128 243.428, 584.877 243.024, 580.449 243.015 C 571.049 242.997, 567.771 241.750, 566.090 237.549 C 565.418 235.872, 564.448 233.719, 563.935 232.764 C 563.421 231.809, 563 230.148, 563 229.073 C 563 227.998, 562.550 226.840, 562 226.500 C 561.450 226.160, 561 224.777, 561 223.427 C 561 222.077, 560.480 219.966, 559.844 218.736 C 557.486 214.176, 557 213, 557 211.858 C 557 211.215, 555.875 209.214, 554.500 207.411 C 553.125 205.608, 551.999 203.766, 551.998 203.317 C 551.996 202.868, 550.647 200.925, 549 199 C 547.353 197.075, 546.004 195.120, 546.002 194.655 C 545.999 193.506, 525.941 173.702, 518.499 167.500 C 515.200 164.750, 511.772 161.713, 510.883 160.750 C 509.993 159.788, 508.692 159, 507.992 159 C 507.291 159, 508.694 160.739, 511.109 162.865 M 488.180 176.264 C 488.081 178.884, 488.397 181.809, 488.883 182.764 C 489.369 183.719, 490.345 185.738, 491.052 187.250 C 491.759 188.762, 492.676 190, 493.090 190 C 493.503 190, 492.778 187.999, 491.478 185.554 C 490.178 183.109, 488.944 178.947, 488.737 176.304 L 488.360 171.500 488.180 176.264 M 494 191.912 C 494 192.673, 498.275 197.495, 503.500 202.627 C 508.725 207.759, 513 212.333, 513 212.791 C 513 213.248, 513.806 214.495, 514.791 215.561 C 516.561 217.477, 521.858 224.719, 525.245 229.854 C 526.204 231.309, 526.992 232.044, 526.995 231.487 C 527.001 230.295, 521.441 221.772, 515.614 214.042 C 509.984 206.572, 494 190.207, 494 191.912 M 528 234.309 C 528 235.239, 528.450 236, 529 236 C 529.550 236, 530 236.900, 530 238 C 530 239.100, 530.450 240, 531 240 C 531.550 240, 532 240.675, 532 241.500 C 532 242.325, 532.398 243, 532.883 243 C 533.369 243, 534.032 243.787, 534.356 244.750 C 535.339 247.670, 539 253.556, 539 252.216 C 539 251.527, 537.200 248.001, 535 244.380 C 532.800 240.758, 530.986 237.504, 530.968 237.148 C 530.951 236.792, 530.276 235.626, 529.468 234.559 C 528.188 232.866, 528 232.834, 528 234.309 M 540.006 254.596 C 539.999 255.843, 542.939 262, 543.542 262 C 544.030 262, 543.034 259.321, 541.310 256 C 540.596 254.625, 540.010 253.993, 540.006 254.596 M 215.290 260.799 C 214.625 261.222, 218.900 261.614, 224.790 261.670 C 233.072 261.749, 234.480 261.588, 231 260.960 C 225.159 259.906, 216.830 259.821, 215.290 260.799 M 623.278 262.135 C 626.616 264.625, 629 268.946, 629 272.507 C 629 274.339, 630.532 276.581, 634.156 280.056 C 640.460 286.100, 642.971 286.639, 637.386 280.750 C 635.170 278.413, 632.495 274.475, 631.443 272 C 629.424 267.254, 623.434 259.978, 621.589 260.032 C 620.990 260.049, 621.750 260.996, 623.278 262.135 M 303.176 261.750 C 323.898 261.900, 358.098 261.901, 379.176 261.750 C 400.254 261.599, 383.300 261.475, 341.500 261.475 C 299.700 261.475, 282.454 261.599, 303.176 261.750 M 545.517 265.750 C 548.506 270.790, 549.483 271.704, 554.725 274.361 C 558.163 276.103, 561.535 277, 564.646 277 C 567.237 277, 570.965 277.491, 572.929 278.090 C 574.893 278.690, 578.075 279.632, 580 280.183 C 585.189 281.669, 589 283.389, 589 284.244 C 589 284.660, 589.707 285, 590.571 285 C 591.436 285, 592.733 285.563, 593.454 286.250 C 594.175 286.938, 596.597 288.987, 598.837 290.805 C 601.076 292.623, 606.233 297.348, 610.296 301.305 C 614.360 305.262, 621.226 311.650, 625.554 315.500 C 629.882 319.350, 637.874 326.775, 643.314 332 C 648.754 337.225, 654.384 342.400, 655.826 343.500 C 657.268 344.600, 662.308 349.100, 667.027 353.500 C 675.116 361.044, 676.706 362.407, 681.532 365.942 C 683.427 367.330, 683.426 367.307, 681.500 365.332 C 680.400 364.203, 666.900 351.634, 651.500 337.401 C 636.100 323.167, 622.565 310.617, 621.423 309.511 C 605.892 294.475, 592.258 283.124, 586.647 280.556 C 580.135 277.576, 570.504 275, 565.872 275 C 558.289 275, 550.398 271.559, 547.323 266.912 C 544.370 262.449, 543.061 261.607, 545.517 265.750 M 429.896 267.535 C 433.033 271.107, 433.682 274.035, 433.106 282 C 432.768 286.681, 428.714 291.765, 423.557 293.975 C 419.605 295.670, 412.949 295.800, 314.923 296.101 L 210.500 296.422 206.271 294.201 C 201.337 291.611, 198.854 287.529, 197.935 280.500 L 197.282 275.500 197.141 279.628 C 196.901 286.662, 200.519 293.076, 206.500 296.219 C 213.417 299.854, 217.348 300.315, 234.200 299.468 C 243.165 299.017, 288.593 298.573, 335.151 298.481 C 418.235 298.317, 419.882 298.276, 424.151 296.263 C 428.846 294.049, 434 288.945, 434 286.509 C 434 285.679, 434.450 285, 435 285 C 435.550 285, 436 282.552, 436 279.559 C 436 276.566, 435.550 273.840, 435 273.500 C 434.450 273.160, 434 272.189, 434 271.342 C 434 269.969, 428.545 264, 427.291 264 C 427.017 264, 428.189 265.591, 429.896 267.535 M 650 292.380 C 650 292.589, 652.362 294.572, 655.250 296.787 C 663.841 303.376, 665.839 305.036, 677.934 315.626 C 684.295 321.195, 691.051 327.382, 692.946 329.376 C 696.784 333.411, 698.114 333.775, 700.128 331.339 C 701.382 329.822, 701.309 329.798, 699.281 331.061 C 697.177 332.371, 696.575 331.946, 687.781 322.947 C 682.676 317.724, 676.925 312.349, 675 311.004 C 673.075 309.658, 669.773 306.969, 667.662 305.029 C 665.551 303.088, 663.076 301.078, 662.162 300.563 C 661.248 300.048, 659.150 298.362, 657.500 296.818 C 655.850 295.273, 653.938 294.007, 653.250 294.005 C 652.563 294.002, 652 293.550, 652 293 C 652 292.450, 651.550 292, 651 292 C 650.450 292, 650 292.171, 650 292.380 M 691.469 375.845 C 694.751 379.230, 697.574 382, 697.742 382 C 698.857 382, 694.294 376.848, 690.298 373.595 C 685.659 369.820, 685.698 369.894, 691.469 375.845 M 219.500 385.956 C 218.400 386.404, 277.800 386.723, 351.500 386.665 C 425.200 386.607, 483.700 386.234, 481.500 385.837 C 475.947 384.835, 221.968 384.950, 219.500 385.956 M 517 385.981 C 517 386.541, 518.425 387, 520.167 387 C 523.808 387, 523.676 386.563, 519.750 385.622 C 518.117 385.230, 517 385.376, 517 385.981 M 528 386 C 525.540 386.518, 527.472 386.771, 534.500 386.853 C 541.283 386.932, 544.017 386.658, 543 386 C 541.297 384.900, 533.228 384.900, 528 386 M 490.728 386.722 C 492.503 386.943, 495.653 386.946, 497.728 386.730 C 499.802 386.513, 498.350 386.333, 494.500 386.328 C 490.650 386.324, 488.952 386.501, 490.728 386.722 M 589.168 390.709 C 598.232 396.332, 598.336 412.797, 589.345 418.696 C 582.826 422.972, 585.679 422.910, 395.239 422.956 L 212.978 423 208.483 420.887 C 206.010 419.725, 202.865 417.440, 201.494 415.810 C 199.810 413.809, 199 413.358, 199 414.423 C 199 415.290, 199.450 416, 200 416 C 200.550 416, 201 416.675, 201 417.500 C 201 418.325, 201.380 419, 201.844 419 C 202.309 419, 203.996 420.124, 205.594 421.499 L 208.500 423.998 396.191 423.999 C 520.241 424, 584.092 423.661, 584.500 423 C 584.840 422.450, 586.216 422, 587.559 422 C 588.902 422, 590 421.550, 590 421 C 590 420.450, 590.590 420, 591.312 420 C 593.085 420, 597 414.562, 597 412.100 C 597 411.010, 597.450 409.840, 598 409.500 C 599.393 408.639, 599.222 404.224, 597.617 399.614 C 596.210 395.573, 590.108 388.980, 587.817 389.027 C 587.093 389.041, 587.701 389.798, 589.168 390.709 M 197.116 405.691 C 197.052 408.546, 197.346 411.096, 197.768 411.357 C 198.191 411.618, 198.392 409.957, 198.216 407.666 C 197.696 400.937, 197.241 400.118, 197.116 405.691 M 211.344 513.765 C 210.708 514.169, 231.786 514.360, 258.184 514.188 C 302.172 513.903, 309.956 514.203, 316.500 516.439 C 317.600 516.815, 316.925 516.214, 315 515.103 C 311.619 513.153, 309.811 513.083, 262 513.057 C 234.775 513.043, 211.980 513.361, 211.344 513.765 M 417 514.082 C 414.963 514.668, 415.287 514.819, 418.750 514.900 C 421.087 514.955, 423 514.827, 423 514.617 C 423 513.742, 419.325 513.415, 417 514.082 M 522.500 514 C 521.050 514.623, 522.013 514.875, 526 514.914 C 529.900 514.953, 531.064 514.687, 530 514 C 528.193 512.832, 525.217 512.832, 522.500 514 M 427.611 516.905 C 431.244 519.120, 434.434 523.365, 435.367 527.225 C 436.272 530.968, 436.320 655.180, 435.419 661.929 C 434.810 666.496, 434.032 668.021, 430.517 671.536 C 423.376 678.676, 414.829 678.677, 407.377 671.537 C 404.970 669.230, 403 667.896, 403 668.571 C 403 670.487, 409.986 677, 412.041 677 C 413.054 677, 414.160 677.450, 414.500 678 C 415.264 679.237, 421.410 679.314, 423.764 678.117 C 424.719 677.631, 426.850 676.618, 428.500 675.867 C 433.002 673.816, 436 669.909, 436 666.094 C 436 665.031, 436.688 661.475, 437.529 658.192 C 438.837 653.087, 439.018 643.231, 438.779 590.160 C 438.563 542.150, 438.217 527.816, 437.250 526.849 C 436.563 526.162, 436 524.945, 436 524.145 C 436 522.162, 428.327 514.999, 426.208 515.004 C 425.088 515.006, 425.571 515.660, 427.611 516.905 M 537.804 518.488 C 544.238 523.902, 544 520.945, 544 595.433 C 544 652.143, 543.767 663.623, 542.555 666.523 C 538.148 677.070, 524.593 680.197, 516.473 672.539 C 514.563 670.738, 513 669.857, 513 670.581 C 513 672.445, 518.745 676.419, 523.671 677.962 C 527.136 679.047, 528.626 679.036, 532.484 677.897 C 538.342 676.167, 544 671.144, 544 667.674 C 544 666.268, 544.450 664.840, 545 664.500 C 545.651 664.098, 546 639.823, 546 594.941 C 546 549.647, 545.657 526, 545 526 C 544.450 526, 544 525.273, 544 524.385 C 544 522.746, 537.344 516, 535.728 516 C 535.243 516, 536.177 517.120, 537.804 518.488 M 320 519.608 C 323.093 523.508, 324 526.115, 324 531.100 C 324 537.785, 320.864 543.410, 315.326 546.655 L 311.131 549.113 261.315 549.297 L 211.500 549.481 207.030 546.988 C 201.761 544.048, 198.116 538.297, 197.848 532.500 L 197.664 528.500 197.283 532.061 C 196.421 540.120, 203.643 549.659, 212 551.498 C 222.998 553.919, 308.258 552.599, 313.236 549.931 C 314.191 549.419, 315.448 549, 316.029 549 C 318.277 549, 325 542.120, 325 539.819 C 325 538.884, 325.450 537.840, 326 537.500 C 326.550 537.160, 327 534.926, 327 532.535 C 327 527.594, 323.925 521.047, 320.664 519.045 C 318.621 517.791, 318.584 517.823, 320 519.608 M 509.336 537 C 509.336 541.125, 509.513 542.813, 509.728 540.750 C 509.944 538.688, 509.944 535.313, 509.728 533.250 C 509.513 531.188, 509.336 532.875, 509.336 537 M 401.472 597 C 401.472 633.025, 401.597 647.763, 401.750 629.750 C 401.902 611.737, 401.902 582.263, 401.750 564.250 C 401.597 546.237, 401.472 560.975, 401.472 597 M 230 642.933 C 223.675 643.245, 239.115 643.544, 264.312 643.597 C 289.508 643.651, 309.592 643.366, 308.942 642.964 C 307.572 642.118, 247.017 642.094, 230 642.933 M 319.191 648.750 C 323.022 652.858, 324 655.340, 324 660.954 C 324 667.819, 320.703 672.984, 314.313 676.130 L 309.500 678.500 260.056 678.175 C 207.893 677.833, 208.019 677.844, 202.750 673.224 C 201.788 672.381, 201 672.150, 201 672.712 C 201 673.274, 202.912 675.032, 205.250 676.617 L 209.500 679.500 260.200 679.776 L 310.900 680.053 316.090 677.549 C 321.654 674.865, 323.781 672.539, 325.735 667 C 328.105 660.283, 326.599 653.872, 321.438 648.711 C 317.881 645.153, 315.868 645.188, 319.191 648.750 M 197.015 661.583 C 197.024 663.737, 197.425 666.123, 197.908 666.885 C 198.444 667.732, 198.581 666.371, 198.259 663.385 C 197.604 657.293, 196.995 656.411, 197.015 661.583 M 72.100 805.691 C 72.045 806.896, 72.450 808.160, 73 808.500 C 73.550 808.840, 74.003 809.879, 74.006 810.809 C 74.010 811.739, 75.922 814.932, 78.256 817.905 C 82.964 823.901, 103.052 844.282, 103.657 843.676 C 103.868 843.465, 99.934 839.289, 94.914 834.396 C 82.748 822.537, 75.183 812.629, 72.853 805.500 C 72.234 803.605, 72.194 803.615, 72.100 805.691 M 623 856 C 621.766 856.798, 621.854 856.951, 623.500 856.866 C 624.600 856.810, 626.850 856.420, 628.500 856 L 631.500 855.237 628 855.134 C 626.075 855.077, 623.825 855.467, 623 856" stroke="none" fill="#373330" fill-rule="evenodd"/><path d="M 176.500 58.969 C 167.507 60.167, 154.808 66.686, 146.904 74.162 C 146.126 74.898, 140.542 79.999, 134.495 85.497 C 128.448 90.995, 120.575 98.244, 117 101.605 C 113.425 104.967, 105.574 112.169, 99.554 117.609 C 75.892 138.991, 73.508 142.424, 69.428 161 C 67.221 171.044, 67.288 784.875, 69.497 794.188 C 74.038 813.338, 79.069 819.991, 112.050 850.459 C 115.597 853.737, 123.225 860.946, 129 866.481 C 139.679 876.714, 149.566 883.495, 159.167 887.170 C 172.489 892.270, 158.993 892, 400.799 892 C 643.604 892, 633.812 892.198, 646.989 887.004 C 656.569 883.228, 662.706 878.103, 690.763 850.449 C 723.555 818.127, 727.115 813.310, 732.110 794.500 L 734.500 785.500 734.466 483.500 C 734.434 200.387, 734.325 181.200, 732.711 176.700 C 728.526 165.029, 728.036 164.483, 678.973 116.865 C 639.139 78.203, 636.633 76.060, 623.311 69.249 C 604.734 59.753, 591.020 57.303, 564.500 58.741 L 550.500 59.500 548.233 67.500 C 546.987 71.900, 544.399 78.809, 542.483 82.854 C 540.568 86.898, 539 90.836, 539 91.604 C 539 92.763, 543.465 93, 565.351 93 C 593.196 93, 594.371 93.153, 604.500 98.111 C 617.050 104.253, 625.068 111.393, 674.556 160.500 C 691.191 177.007, 696.285 182.682, 698.366 187.024 L 701.014 192.549 700.757 261.915 C 700.455 343.332, 701.408 337.748, 689.762 326.394 C 683.537 320.324, 670.802 309.069, 664.407 303.984 C 655.992 297.294, 642.504 286.740, 637.821 283.182 C 631.577 278.437, 629 275.166, 629 271.986 C 629 265.783, 620.090 258.495, 601.328 249.349 C 592.521 245.056, 591.671 244.847, 579.966 244.116 C 568.887 243.424, 567.618 243.145, 566.044 241.059 C 565.092 239.796, 562.345 232.661, 559.941 225.204 C 557.176 216.626, 554.131 209.414, 551.653 205.572 C 545.905 196.660, 536.175 185.315, 528.428 178.492 C 524.687 175.196, 520.692 171.600, 519.551 170.500 C 511.198 162.446, 506.554 159, 504.053 159 C 500.625 159, 494.964 163.291, 491.586 168.450 C 486.004 176.976, 489.037 185.409, 502.792 199.600 C 507.582 204.541, 513.364 211.039, 515.643 214.042 C 519.671 219.349, 531 236.572, 531 237.389 C 531 237.612, 532.713 240.654, 534.807 244.148 C 536.901 247.642, 539.900 253.200, 541.470 256.500 C 546.669 267.423, 549.424 270.641, 555.536 272.927 C 558.582 274.067, 563.234 275, 565.872 275 C 570.504 275, 580.135 277.576, 586.647 280.556 C 592.903 283.419, 602.563 291.614, 627.939 315.588 C 632.648 320.036, 649.775 335.919, 666 350.882 C 688.457 371.592, 696.161 379.306, 698.267 383.190 L 701.033 388.292 700.767 587.896 C 700.536 760.365, 700.301 787.976, 699.037 791 C 695.530 799.394, 689.054 807.592, 678.969 816.406 C 676.511 818.554, 668.495 825.949, 661.156 832.840 C 653.817 839.730, 646.173 846.670, 644.169 848.263 C 638.551 852.727, 631.001 855.754, 622.552 856.929 C 611.400 858.481, 179.160 858.428, 175.297 856.875 C 173.759 856.257, 171.375 855.257, 170 854.652 C 165.364 852.615, 156.539 846.166, 150.380 840.315 C 147.014 837.117, 138.476 829.100, 131.406 822.500 C 110.972 803.422, 106.202 798.155, 103.980 792.217 C 102.022 786.985, 102 783.449, 102.015 478.212 C 102.027 235.837, 102.295 168.748, 103.265 166 C 106.073 158.041, 109.789 153.936, 134.500 131.499 C 140.550 126.006, 146.175 120.829, 147 119.995 C 147.825 119.161, 152.539 114.884, 157.476 110.489 C 162.413 106.095, 167.355 101.695, 168.457 100.711 C 169.560 99.726, 172.945 97.701, 175.981 96.211 L 181.500 93.500 339.851 93 L 498.203 92.500 500.376 88.500 C 501.571 86.300, 504.389 81.350, 506.637 77.500 C 514.360 64.278, 516.110 60.728, 515.583 59.356 C 515.138 58.195, 488.985 58.006, 348.278 58.142 C 256.550 58.230, 179.250 58.603, 176.500 58.969 M 213.992 262.019 C 211.512 262.305, 207.785 263.588, 205.710 264.870 C 195.191 271.371, 195.515 288.554, 206.263 294.198 L 210.500 296.422 314.923 296.101 C 412.949 295.800, 419.605 295.670, 423.557 293.975 C 428.714 291.765, 432.768 286.681, 433.106 282 C 433.646 274.535, 432.991 271.142, 430.418 268.085 C 425.039 261.692, 431.383 262.056, 320 261.765 C 264.175 261.619, 216.471 261.734, 213.992 262.019 M 259 387 C 207.625 387.530, 208.606 387.435, 203.155 392.375 C 199.540 395.651, 198 399.423, 198 405 C 198 410.861, 199.777 414.892, 203.730 418.003 C 210.453 423.292, 199.302 423.003, 395.372 422.956 C 534.219 422.922, 578.581 422.625, 582.047 421.706 C 591.584 419.177, 595.990 413.943, 595.996 405.136 C 596.003 395.417, 590.361 389.185, 580 387.467 C 574.820 386.608, 331.355 386.254, 259 387 M 212.230 514.945 C 203.966 516.289, 198.805 522.129, 198.273 530.737 C 197.814 538.171, 200.646 543.426, 207.030 546.988 L 211.500 549.481 261.263 549.297 L 311.025 549.114 315.111 546.818 C 320.812 543.613, 324.020 537.825, 323.927 530.912 C 323.811 522.351, 319.482 516.827, 311.423 514.957 C 306.908 513.911, 218.656 513.900, 212.230 514.945 M 410.389 516.905 C 408.677 517.948, 406.202 520.309, 404.889 522.151 L 402.500 525.500 402.189 593.500 C 401.976 640.256, 402.217 662.653, 402.962 665.191 C 404.295 669.733, 410.814 675.555, 415.564 676.446 C 421.463 677.553, 425.985 676.068, 430.517 671.536 C 434.032 668.021, 434.810 666.496, 435.419 661.929 C 436.311 655.247, 436.276 531.010, 435.382 527.225 C 434.488 523.444, 430.459 518.289, 426.998 516.499 C 422.868 514.363, 414.209 514.575, 410.389 516.905 M 516.306 518.470 C 513.386 520.970, 511.976 523.136, 511.263 526.220 C 510.629 528.962, 510.493 554.929, 510.886 598.500 C 511.467 662.861, 511.601 666.649, 513.382 669.276 C 516.779 674.287, 520.905 676.467, 526.990 676.467 C 534.101 676.467, 538.606 673.886, 541.696 668.042 L 544.040 663.611 543.770 594.477 L 543.500 525.343 540.698 521.671 C 536.907 516.701, 533.218 515, 526.230 515 C 520.977 515, 519.934 515.365, 516.306 518.470 M 228 643.950 C 211.738 644.433, 209.077 644.749, 206.001 646.556 C 200.635 649.707, 197.844 655.301, 198.259 662.065 C 198.667 668.708, 201.439 673.163, 206.898 675.948 C 210.388 677.729, 213.810 677.872, 260.064 678.176 L 309.500 678.500 314.313 676.130 C 320.703 672.984, 324 667.819, 324 660.954 C 324 658.157, 323.495 654.886, 322.878 653.684 C 320.955 649.942, 316.803 646.089, 313.585 645.061 C 309.921 643.891, 254.278 643.169, 228 643.950" stroke="none" fill="#c3b6a5" fill-rule="evenodd"/></svg>