<svg xmlns="http://www.w3.org/2000/svg" width="1024" height="1024" viewBox="0 0 1024 1024" version="1.1"><path d="M 422.789 187.820 C 421.848 188.194, 431.818 188.500, 444.944 188.500 C 458.070 188.500, 468.290 188.169, 467.655 187.765 C 466.208 186.845, 425.117 186.895, 422.789 187.820 M 539.500 189.637 C 546.109 190.335, 594.735 190.450, 593.657 189.765 C 593.020 189.361, 579.900 189.096, 564.500 189.175 C 549.100 189.255, 537.850 189.463, 539.500 189.637 M 378 192.002 C 380.475 192.415, 383.175 192.372, 384 191.907 C 384.936 191.379, 383.242 191.096, 379.500 191.156 L 373.500 191.250 378 192.002 M 431.804 192.494 C 431.422 192.896, 422.422 193.331, 411.804 193.460 C 391.929 193.703, 386.082 194.574, 381.816 197.930 C 380.471 198.988, 376.420 200.807, 372.815 201.972 C 369.210 203.136, 365.414 204.730, 364.380 205.513 C 362.570 206.884, 362.581 206.938, 364.691 206.968 C 365.896 206.986, 367.160 206.550, 367.500 206 C 367.840 205.450, 369.297 205, 370.738 205 C 374.036 205, 378.957 203.419, 386 200.095 C 391.056 197.709, 393.033 197.436, 410.500 196.701 C 433.992 195.713, 438.052 195.704, 514 196.479 C 561.945 196.968, 576.390 197.406, 579.538 198.469 C 582.259 199.388, 585.519 199.615, 589.538 199.166 C 597.512 198.275, 639.078 199.485, 646 200.810 C 654.382 202.414, 656.979 203.156, 657.574 204.119 C 657.873 204.604, 659.035 205, 660.155 205 C 662.381 205, 666.561 207.611, 672 212.398 C 673.925 214.092, 672.802 212.658, 669.504 209.212 C 665.174 204.686, 662.395 202.656, 659.504 201.907 C 657.302 201.337, 653.244 200.045, 650.487 199.038 C 641.769 195.851, 628.847 195.055, 576.500 194.482 C 548.450 194.175, 509.525 193.747, 490 193.533 C 470.475 193.318, 449.550 192.832, 443.500 192.453 C 437.450 192.074, 432.187 192.093, 431.804 192.494 M 355.002 199.672 C 351.429 201.017, 347.604 202.958, 346.502 203.986 C 345.401 205.014, 340 208.113, 334.500 210.872 C 328.784 213.739, 322.266 217.946, 319.286 220.694 C 316.418 223.337, 312.143 226.865, 309.786 228.533 C 306.318 230.987, 304.335 233.819, 299.400 243.365 L 293.300 255.164 292.537 267.832 C 290.898 295.015, 290.454 323.666, 290.855 376.500 C 291.461 456.542, 291.482 478.093, 290.981 511 C 290.734 527.225, 290.647 553.100, 290.789 568.500 C 290.930 583.900, 290.944 630.925, 290.820 673 C 290.613 743.408, 290.741 750.296, 292.425 759.500 C 294.356 770.056, 298.560 780.594, 303.987 788.480 C 307.940 794.227, 318.870 806, 320.251 806 C 320.814 806, 319.300 803.842, 316.887 801.205 C 307.106 790.515, 307.098 790.504, 300.175 777.250 C 297.347 771.836, 297 770.902, 297 768.714 C 297 767.441, 296.587 765.973, 296.083 765.450 C 294.312 763.615, 293.600 718.571, 294.123 641.500 C 294.224 626.650, 294.268 610.450, 294.222 605.500 C 294.045 586.636, 294.027 534.005, 294.170 453.250 C 294.223 423.137, 294.182 382.300, 294.078 362.500 C 293.824 313.978, 294.805 265.403, 296.140 260.500 C 299.501 248.145, 309.415 230.999, 314.348 229.007 C 315.532 228.529, 318.681 226.127, 321.347 223.669 C 324.013 221.211, 329.188 217.711, 332.847 215.890 C 336.506 214.070, 342.063 210.875, 345.195 208.790 C 348.327 206.706, 351.725 205, 352.745 205 C 353.765 205, 355.131 204.469, 355.780 203.820 C 356.686 202.914, 357.502 202.931, 359.300 203.893 C 361.282 204.954, 362.164 204.845, 365.070 203.182 C 366.956 202.103, 370.300 200.666, 372.500 199.989 C 379.503 197.835, 378.758 196.995, 369.950 197.114 C 363.635 197.199, 359.858 197.846, 355.002 199.672 M 678.349 212.250 C 686.088 221.367, 697.845 238.738, 699.411 243.369 C 700.316 246.047, 701.437 248.972, 701.901 249.869 C 702.558 251.141, 704.507 287.004, 704.163 291.500 C 704.121 292.050, 704.137 294.975, 704.198 298 C 704.524 314.205, 704.278 334.659, 703.548 352 C 702.662 373.062, 702.588 379.200, 702.789 415 C 702.861 427.925, 702.856 443.675, 702.778 450 C 702.700 456.325, 703.252 467.773, 704.005 475.439 C 705.122 486.817, 705.151 492.239, 704.160 504.939 C 703.493 513.498, 702.639 538.500, 702.264 560.500 C 701.484 606.277, 701.512 601.132, 701.783 649 C 701.896 669.075, 702.013 691.350, 702.043 698.500 C 702.080 707.690, 701.651 712.758, 700.578 715.791 C 699.389 719.150, 699.250 721.649, 699.935 727.291 C 701.343 738.878, 701.208 753.157, 699.620 760.596 C 698.810 764.393, 697.894 769.347, 697.585 771.604 C 697.276 773.861, 695.955 778.136, 694.650 781.104 C 693.345 784.072, 691.518 788.598, 690.589 791.163 C 689.441 794.336, 685.398 799.770, 677.944 808.163 C 668.545 818.746, 665.960 821.033, 659.762 824.250 L 652.537 828 660.518 827.926 C 664.908 827.885, 670.525 827.531, 673 827.139 C 677.412 826.439, 677.442 826.410, 674.510 825.633 C 672.866 825.198, 671.233 824.377, 670.883 823.810 C 669.941 822.287, 671.039 819, 672.489 819 C 673.690 819, 676.039 816.547, 685.957 804.938 C 690.441 799.688, 695 791.813, 695 789.317 C 695 788.578, 695.397 787.191, 695.883 786.236 C 696.369 785.281, 697.322 783.150, 698 781.500 C 698.678 779.850, 699.631 777.719, 700.117 776.764 C 700.603 775.809, 701 773.248, 701 771.073 C 701 768.898, 701.390 766.877, 701.867 766.582 C 703.282 765.708, 704.345 757.010, 703.955 749.500 C 703.755 745.650, 703.692 737.550, 703.816 731.500 C 703.939 725.450, 704.471 685.400, 704.997 642.500 C 706.514 518.895, 706.631 513.558, 707.867 511.248 C 709.214 508.731, 709.446 479.394, 708.125 478.577 C 706.606 477.638, 705.701 467.009, 705.841 451.750 C 705.980 436.677, 706.008 416.262, 705.929 388.250 C 705.905 379.587, 706.378 363.725, 706.980 353 C 708.337 328.866, 708.361 314.760, 707.089 291 C 706.544 280.825, 705.808 267.100, 705.455 260.500 C 705.101 253.900, 704.404 248.072, 703.906 247.550 C 703.408 247.028, 703 245.804, 703 244.830 C 703 242.833, 701.150 239.359, 695.168 230.124 C 687.186 217.802, 693.217 220.405, 709.738 236.412 C 715.932 242.413, 721 247.707, 721 248.177 C 721 249.818, 728.431 260.207, 728.804 259.088 C 729.011 258.466, 727.025 254.480, 724.391 250.229 C 719.270 241.965, 708.305 230.705, 698.596 223.737 C 695.349 221.407, 691.299 218.323, 689.596 216.885 C 687.893 215.446, 684.618 213.315, 682.318 212.149 C 680.018 210.983, 677.854 209.572, 677.509 209.014 C 677.164 208.456, 676.400 208, 675.811 208 C 675.223 208, 676.364 209.912, 678.349 212.250 M 689.673 211.274 C 694.950 215.518, 696.516 216.238, 692.583 212.612 C 690.429 210.625, 688.257 209, 687.757 209 C 687.256 209, 688.119 210.023, 689.673 211.274 M 352.750 215.598 C 348.226 219.956, 346.981 222, 348.852 222 C 349.603 222, 352.467 219.646, 358.250 214.275 C 359.212 213.381, 360 212.279, 360 211.825 C 360 209.869, 357.168 211.343, 352.750 215.598 M 677.022 218.747 C 677.034 219.161, 677.924 220.625, 679 222 C 680.076 223.375, 680.966 224.999, 680.978 225.609 C 680.990 226.219, 682.800 228.763, 685 231.263 C 687.200 233.762, 689 236.245, 689 236.781 C 689 237.317, 689.697 238.334, 690.550 239.041 C 691.402 239.748, 692.988 242.278, 694.074 244.664 C 695.161 247.049, 696.257 249, 696.510 249 C 697.765 249, 692.387 237.988, 688.275 232.138 C 683.233 224.964, 676.986 217.531, 677.022 218.747 M 714.209 230.857 C 728.114 243.997, 735.333 257.695, 738.529 277 C 739.567 283.269, 739.888 733.317, 738.863 745 C 735.955 778.154, 730.042 796.008, 717.360 809.933 C 707.418 820.849, 694.737 827.977, 682.500 829.528 C 679.750 829.877, 676.129 830.580, 674.454 831.091 C 670.582 832.272, 591.322 833.299, 513 833.182 C 479.725 833.133, 439.056 833.081, 422.624 833.067 C 406.192 833.054, 390.217 832.606, 387.124 832.074 C 384.031 831.541, 375.206 830.833, 367.512 830.500 L 353.525 829.895 342.145 824.930 C 320.526 815.496, 305.654 801.858, 294.789 781.500 C 290.193 772.890, 289.761 774.165, 294.260 783.057 C 298.522 791.479, 304.210 798.943, 312.652 807.192 C 320.604 814.964, 333.775 824.951, 336.110 824.980 C 337.450 824.997, 343.695 827.759, 352.236 832.115 C 353.191 832.602, 360.700 833, 368.921 833 C 377.257 833, 385.115 833.479, 386.685 834.084 C 390.236 835.450, 616.344 836.056, 632.500 834.743 C 642.958 833.892, 646.271 833.774, 655.500 833.924 C 662.322 834.034, 689.313 832.263, 692.982 831.463 C 697.162 830.553, 701.113 828.408, 707.633 823.509 C 713.608 819.019, 723 810.022, 723 808.789 C 723 808.291, 724.312 806.222, 725.917 804.191 C 729.573 799.563, 733 793.402, 733 791.456 C 733 790.640, 733.397 789.191, 733.883 788.236 C 735.782 784.504, 736.889 781.355, 737.483 778 C 739.314 767.660, 740.165 761.489, 741.070 752 C 742.214 739.999, 742.704 284.284, 741.581 277 C 741.199 274.525, 740.513 271.600, 740.057 270.500 C 739.601 269.400, 738.683 266.475, 738.017 264 C 737.350 261.525, 736.399 258.719, 735.903 257.764 C 735.406 256.809, 735 255.546, 735 254.959 C 735 254.371, 733.200 251.240, 731 248 C 728.800 244.760, 727 241.731, 727 241.267 C 727 239.669, 714.935 229.038, 707 223.645 C 706.175 223.084, 709.419 226.330, 714.209 230.857 M 227.418 271.935 C 238.164 280.475, 253.257 296.400, 249.120 294.833 C 248.334 294.536, 229.321 277.910, 223.346 272.295 C 221.268 270.343, 221 270.293, 221 271.858 C 221 273.828, 223.778 276.567, 232.141 282.842 C 235.243 285.170, 239.133 288.366, 240.785 289.945 C 245.317 294.276, 248.536 296.115, 250.359 295.416 C 253.362 294.263, 252.074 292.190, 242.750 283.174 C 230.824 271.642, 227.603 269, 225.468 269 C 224.254 269, 224.845 269.890, 227.418 271.935 M 804.030 271.284 C 803.330 272.503, 797.003 278.675, 789.969 285 C 780.418 293.589, 777.442 296.816, 778.213 297.750 C 778.780 298.438, 779.697 299, 780.250 299 C 780.803 299, 785.687 294.747, 791.103 289.549 C 796.518 284.350, 802.311 279.091, 803.975 277.861 C 806.067 276.313, 807 274.775, 807 272.871 C 807 269.253, 805.619 268.515, 804.030 271.284 M 733.147 292 C 733.079 303.431, 733.441 312.121, 734.023 313 C 735.164 314.726, 735.107 281.782, 733.958 276 C 733.576 274.075, 733.211 281.275, 733.147 292 M 699.355 286.500 C 699.352 291.450, 699.521 293.601, 699.731 291.280 C 699.940 288.959, 699.943 284.909, 699.736 282.280 C 699.530 279.651, 699.358 281.550, 699.355 286.500 M 285.667 284.667 C 285.300 285.033, 285.036 298.871, 285.079 315.417 C 285.122 331.962, 285.331 345.050, 285.543 344.500 C 285.852 343.698, 286.714 283.998, 286.417 284 C 286.371 284, 286.033 284.300, 285.667 284.667 M 356.667 287.667 C 355.424 288.909, 355.992 291.683, 357.829 293.345 C 359.496 294.854, 366.236 295, 434.129 295 C 490.717 295, 508.888 294.712, 509.800 293.800 C 511.677 291.923, 511.231 290.380, 508.250 288.440 C 506.074 287.024, 505.771 286.981, 506.799 288.236 C 507.683 289.316, 507.759 290.031, 507.036 290.478 C 506.238 290.971, 375.976 291.498, 359.633 291.074 C 357.274 291.013, 356.859 290.646, 357.290 289 C 357.848 286.865, 357.727 286.606, 356.667 287.667 M 699.070 306.583 C 699.109 308.738, 699.543 311.400, 700.035 312.500 C 700.619 313.806, 700.721 312.592, 700.329 309 C 699.608 302.394, 698.973 301.174, 699.070 306.583 M 638 322 C 637.078 322.596, 609.534 323.068, 566.500 323.225 L 496.500 323.481 572 323.991 C 638.218 324.437, 647.500 324.684, 647.500 326 C 647.500 327.325, 630.624 327.528, 502.590 327.743 C 422.890 327.877, 357.416 328.251, 357.092 328.575 C 356.768 328.899, 357.402 329.837, 358.502 330.660 C 359.906 331.712, 361.805 331.985, 364.890 331.578 C 367.304 331.260, 431.976 331, 508.604 331 C 647.767 331, 647.931 330.998, 649.020 328.962 C 649.620 327.841, 649.852 326.110, 649.536 325.114 C 648.475 321.772, 641.336 319.844, 638 322 M 388.322 323.750 C 405.274 323.903, 432.724 323.903, 449.322 323.749 C 465.920 323.595, 452.050 323.470, 418.500 323.470 C 384.950 323.470, 371.370 323.596, 388.322 323.750 M 483.750 323.732 C 486.087 323.943, 489.913 323.943, 492.250 323.732 C 494.587 323.522, 492.675 323.349, 488 323.349 C 483.325 323.349, 481.413 323.522, 483.750 323.732 M 699.336 335 C 699.336 339.125, 699.513 340.813, 699.728 338.750 C 699.944 336.688, 699.944 333.313, 699.728 331.250 C 699.513 329.188, 699.336 330.875, 699.336 335 M 735.336 339 C 735.336 343.125, 735.513 344.813, 735.728 342.750 C 735.944 340.688, 735.944 337.313, 735.728 335.250 C 735.513 333.188, 735.336 334.875, 735.336 339 M 733.956 351.250 C 733.340 368.592, 733.379 412.799, 734.011 414.364 C 734.521 415.628, 734.899 402.923, 734.937 383.250 C 734.971 364.962, 734.775 350, 734.500 350 C 734.225 350, 733.980 350.563, 733.956 351.250 M 285.238 380.500 C 285.185 395.900, 285.446 409.273, 285.820 410.218 C 286.462 411.838, 286.305 363.496, 285.645 356 C 285.475 354.075, 285.292 365.100, 285.238 380.500 M 453.986 357.992 C 544.852 358.470, 550.492 358.602, 550.810 360.250 C 551.106 361.787, 550.255 362.002, 543.823 362.015 C 448.040 362.216, 357.691 361.927, 356.866 361.417 C 356.113 360.952, 356.111 361.340, 356.862 362.742 C 358.456 365.721, 363.045 367.314, 366.381 366.045 C 368.221 365.346, 399.536 365, 461.030 365 L 552.930 365 554.045 362.917 C 554.934 361.255, 554.809 360.446, 553.425 358.917 C 551.735 357.050, 549.179 357.006, 454.595 357.242 L 357.500 357.485 453.986 357.992 M 791.475 364.040 C 791.058 364.715, 791.741 364.852, 793.416 364.432 C 798.358 363.191, 795.998 365.820, 788.452 369.962 C 783.329 372.774, 780.250 373.897, 778.866 373.458 C 777.056 372.883, 776.953 373.044, 777.949 374.905 C 779.382 377.582, 783.642 377.627, 787 375 C 788.375 373.924, 790.192 373.034, 791.038 373.022 C 791.884 373.010, 794.134 371.698, 796.038 370.108 C 799.472 367.238, 799.485 367.198, 797.595 365.108 C 795.562 362.858, 792.532 362.330, 791.475 364.040 M 232 366.858 C 232 368.546, 242.988 374.974, 246.956 375.609 C 250.556 376.185, 251 376.035, 251 374.243 C 251 372.028, 246.574 368.596, 244.689 369.349 C 244.035 369.610, 244.963 370.412, 246.750 371.131 C 249.797 372.357, 251.133 374, 249.083 374 C 247.362 374, 238.799 369.987, 236.262 367.991 C 233.567 365.872, 232 365.455, 232 366.858 M 697.493 422.147 C 697.842 465.340, 698.791 486.177, 700.483 487.773 C 701.507 488.739, 700.148 470.686, 698.779 465.129 C 698.053 462.184, 697.969 455.335, 698.521 444.129 C 698.972 434.983, 699.366 423.900, 699.396 419.500 C 699.457 410.765, 697.924 377.716, 697.432 377.147 C 697.264 376.952, 697.292 397.202, 697.493 422.147 M 488.387 397.817 C 488.671 398.277, 496.639 398.619, 506.093 398.577 C 522.863 398.502, 523.318 398.555, 524.758 400.753 C 526.341 403.170, 526.228 398.135, 527.488 522.071 L 528.053 577.642 525.922 579.571 C 523.858 581.439, 521.219 581.508, 443.138 581.737 C 364.409 581.968, 362.408 581.927, 359.243 580.002 L 356 578.029 356 490.449 C 356 431.990, 356.344 402.225, 357.035 400.934 C 357.763 399.575, 357.748 399, 356.987 399 C 354.968 399, 353.138 405.098, 354.224 408.211 C 354.770 409.780, 354.930 412.512, 354.578 414.282 C 354.001 417.180, 352.977 424.832, 351.376 438.205 C 350.752 443.419, 348.684 446.084, 346.758 444.158 C 346.121 443.521, 345.295 443, 344.921 443 C 342.800 443, 339.997 457.873, 340.006 469.082 C 340.012 477.504, 341.295 483.170, 343.635 485.112 C 345.012 486.255, 345.564 486.030, 347.570 483.514 C 349.286 481.363, 350.027 480.973, 350.367 482.044 C 351.641 486.050, 353 505.884, 353 520.460 C 353 529.473, 353.513 539.070, 354.140 541.787 C 354.989 545.462, 354.996 550.504, 354.169 561.483 C 353.004 576.962, 353.184 578.228, 357.183 582.626 L 359.115 584.752 442.347 584.901 L 525.578 585.050 528.301 582.208 L 531.023 579.366 530.601 498.433 C 530.369 453.920, 529.873 414.137, 529.499 410.027 C 529.074 405.364, 528.142 401.603, 527.019 400.027 L 525.220 397.500 506.545 397.241 C 496.274 397.098, 488.103 397.357, 488.387 397.817 M 590.280 398.736 C 592.909 398.943, 596.959 398.940, 599.280 398.731 C 601.601 398.521, 599.450 398.352, 594.500 398.355 C 589.550 398.358, 587.651 398.530, 590.280 398.736 M 619.250 398.735 C 621.862 398.941, 626.138 398.941, 628.750 398.735 C 631.362 398.529, 629.225 398.360, 624 398.360 C 618.775 398.360, 616.638 398.529, 619.250 398.735 M 557.825 401.750 C 554.273 405.581, 552.832 412.118, 554.167 418.342 C 554.749 421.056, 554.932 425.801, 554.575 428.888 C 554.217 431.974, 553.685 446.567, 553.391 461.315 L 552.858 488.130 556.248 491.315 C 562.076 496.791, 564.758 497.096, 604 496.737 C 626.760 496.529, 640.918 496.001, 643.450 495.267 C 651.223 493.011, 650.953 494.724, 650.978 447.594 L 651 405.689 648.449 402.344 C 647.036 400.492, 644.995 399, 643.872 399 C 642.109 399, 642.245 399.335, 644.925 401.590 L 648.003 404.180 647.470 445.653 C 647.086 475.569, 646.600 487.667, 645.727 489.066 C 645.061 490.132, 643.162 491.386, 641.508 491.852 C 639.854 492.318, 621.175 492.654, 600 492.600 C 559.911 492.496, 558.102 492.313, 556.525 488.205 C 556.243 487.469, 555.968 468.932, 555.914 447.011 C 555.809 404.085, 555.943 402.852, 561 400.294 C 562.498 399.536, 562.874 399.024, 561.937 399.015 C 561.077 399.007, 559.227 400.238, 557.825 401.750 M 440.254 402.756 L 360.007 403.012 360.011 489.349 L 360.016 575.686 362.555 576.843 C 364.115 577.554, 369.606 577.918, 376.797 577.786 L 388.500 577.572 377.376 577.255 C 368.294 576.995, 365.960 576.614, 364.659 575.175 C 363.229 573.596, 363.055 564.979, 362.965 491.641 C 362.890 429.779, 363.155 409.518, 364.055 408.433 C 365.069 407.212, 376.567 407, 441.922 407 C 500.227 407, 518.888 407.288, 519.800 408.200 C 520.651 409.051, 521.029 415.529, 521.100 430.450 C 521.155 442.027, 521.595 452.625, 522.078 454 C 522.608 455.506, 522.806 446.023, 522.576 430.147 C 522.366 415.653, 521.813 403.503, 521.347 403.147 C 520.881 402.791, 484.389 402.615, 440.254 402.756 M 560.958 405.079 C 559.070 408.607, 559.414 485.294, 561.325 486.815 C 561.971 487.329, 568.125 487.968, 575 488.235 C 582.587 488.530, 585.928 488.405, 583.500 487.918 C 581.300 487.476, 576.327 487.089, 572.450 487.058 C 568.376 487.024, 564.894 486.494, 564.200 485.800 C 562.315 483.915, 562.496 410.362, 564.389 408.468 C 565.502 407.355, 572.326 407, 598.639 406.684 C 616.713 406.467, 632.988 405.944, 634.806 405.523 C 637.519 404.894, 638.551 405.169, 640.556 407.053 L 643 409.349 643 406.174 L 643 403 602.535 403 C 562.579 403, 562.056 403.026, 560.958 405.079 M 595 427.845 C 595 428.310, 595.915 429.518, 597.032 430.529 C 598.150 431.541, 600.043 433.973, 601.239 435.934 C 603.467 439.589, 609.295 447.359, 618.687 459.197 C 621.609 462.880, 624 466.523, 624 467.292 C 624 468.061, 623.129 469.478, 622.065 470.441 C 620.333 472.009, 617.572 472.191, 595.612 472.183 C 582.126 472.179, 570.509 471.841, 569.796 471.433 C 569.083 471.025, 569.822 472.110, 571.437 473.845 L 574.374 477 585.140 477 C 591.182 477, 597.024 476.491, 598.454 475.839 C 600.406 474.950, 603.012 474.977, 609.596 475.957 C 616.677 477.010, 618.659 477.002, 620.846 475.911 C 627.360 472.660, 628.549 469.537, 625 465 C 623.924 463.625, 623.034 462.119, 623.022 461.653 C 623.010 461.188, 621.200 458.762, 619 456.263 C 615.827 452.658, 615 450.930, 615 447.906 C 615 444.527, 615.400 443.904, 618.527 442.420 C 622.510 440.530, 626 436.592, 626 433.988 C 626 431.815, 623.017 428.999, 622.970 431.128 C 622.920 433.355, 611.381 445.354, 610.069 444.542 C 609.182 443.994, 609.183 443.485, 610.074 442.411 C 611 441.295, 610.906 441, 609.627 441 C 608.737 441, 605.436 437.850, 602.290 434 C 596.944 427.456, 595 425.815, 595 427.845 M 587.670 437.250 C 585.780 440.137, 582.083 446.100, 579.455 450.500 C 576.826 454.900, 573.849 459.573, 572.838 460.885 C 571.827 462.197, 571 464.334, 571 465.635 C 571 467.763, 571.426 467.992, 575.250 467.921 C 577.587 467.878, 578.938 467.615, 578.250 467.338 C 575.893 466.387, 576.845 460.606, 579.959 456.962 C 581.587 455.058, 582.937 453.007, 582.959 452.405 C 582.982 451.803, 583.900 450.495, 585 449.500 C 586.100 448.505, 587 447.173, 587 446.541 C 587 445.909, 588.567 443.874, 590.482 442.018 C 593.625 438.971, 594.193 438.765, 596.313 439.900 C 597.604 440.591, 599.385 442.359, 600.269 443.828 C 602.160 446.973, 605.408 451.151, 609.286 455.427 C 610.819 457.117, 609.572 454.900, 606.516 450.500 C 598.084 438.361, 593.113 432, 592.059 432 C 591.535 432, 589.560 434.363, 587.670 437.250 M 420 433.973 C 418.547 434.423, 421.689 434.642, 427.500 434.495 C 438.964 434.206, 442 434.649, 442 436.608 C 442 438.286, 444.033 438.177, 413.750 438.129 C 400.137 438.107, 388.992 438.407, 388.981 438.795 C 388.971 439.183, 388.686 444.038, 388.347 449.585 C 388.009 455.132, 388.053 462.670, 388.445 466.335 C 389.157 472.979, 389.169 473, 392.280 473 C 394.707 473, 395.133 472.733, 394.200 471.800 C 393.404 471.004, 393 466.683, 393 458.974 C 393 448.201, 393.165 447.196, 395.250 445.269 C 398.823 441.968, 405.253 440.460, 409.866 441.842 C 411.992 442.479, 419.658 443, 426.901 443 C 440.833 443, 445 441.858, 445 438.040 C 445 434.181, 441.860 432.995, 431.921 433.100 C 426.740 433.155, 421.375 433.548, 420 433.973 M 735.407 459 C 735.407 468.075, 735.559 471.788, 735.744 467.250 C 735.929 462.712, 735.929 455.288, 735.744 450.750 C 735.559 446.212, 735.407 449.925, 735.407 459 M 383.343 464.500 C 383.346 468.900, 383.522 470.576, 383.733 468.224 C 383.945 465.872, 383.942 462.272, 383.727 460.224 C 383.512 458.176, 383.339 460.100, 383.343 464.500 M 613.027 462.128 C 613.012 463.573, 612.408 465.247, 611.684 465.847 C 610.923 466.479, 604.701 467.071, 596.934 467.251 C 584.146 467.548, 584.354 467.574, 601.250 467.782 C 611.013 467.902, 618.988 467.663, 618.973 467.250 C 618.958 466.837, 617.620 464.925, 616 463 L 613.054 459.500 613.027 462.128 M 521.461 469.571 C 521.039 474.079, 521.165 478.429, 521.774 480.321 C 522.613 482.931, 522.814 481.574, 522.898 472.750 C 522.954 466.837, 522.813 462, 522.585 462 C 522.357 462, 521.851 465.407, 521.461 469.571 M 420.707 474.986 C 421.253 477.074, 421.127 477.087, 403.127 476.795 C 393.156 476.633, 384.998 476.768, 384.999 477.095 C 384.999 477.422, 385.835 478.446, 386.856 479.369 C 388.469 480.829, 390.966 481.013, 405.998 480.774 C 421.192 480.533, 423.418 480.288, 424.387 478.750 C 425.681 476.696, 424.238 473.688, 421.721 473.192 C 420.574 472.966, 420.304 473.445, 420.707 474.986 M 285.630 478.250 C 284.796 481.362, 284.954 544.593, 285.808 549.395 C 286.188 551.537, 286.500 535.899, 286.500 514.645 C 286.500 493.390, 286.440 476, 286.367 476 C 286.293 476, 285.962 477.012, 285.630 478.250 M 735.443 513.500 C 735.443 530, 735.580 536.890, 735.748 528.812 C 735.915 520.733, 735.916 507.233, 735.748 498.812 C 735.581 490.390, 735.444 497, 735.443 513.500 M 616.500 488.010 C 618.700 488.439, 621.175 488.401, 622 487.925 C 622.967 487.368, 621.546 487.091, 618 487.145 C 612.540 487.229, 612.529 487.236, 616.500 488.010 M 805.418 497.972 C 822.478 498.365, 828.442 498.819, 828.751 499.750 C 829.209 501.128, 823.308 501.368, 796.250 501.071 C 787.443 500.974, 781 501.294, 781 501.829 C 781 504.658, 784.251 505.032, 806.517 504.769 C 826.630 504.531, 829.408 504.303, 830.350 502.809 C 831.167 501.512, 830.981 500.636, 829.553 499.059 C 827.765 497.083, 826.781 497.009, 805.095 497.222 L 782.500 497.443 805.418 497.972 M 221.570 501 C 197.424 501.484, 196.697 501.557, 198.469 503.327 C 200.098 504.956, 201.234 505.065, 208.899 504.327 C 219.891 503.270, 236.746 503.261, 240.063 504.312 C 241.985 504.920, 243.236 504.629, 245.063 503.148 C 246.403 502.061, 247.275 501.021, 247 500.836 C 246.725 500.651, 235.281 500.725, 221.570 501 M 442.750 511.732 C 445.087 511.943, 448.913 511.943, 451.250 511.732 C 453.587 511.522, 451.675 511.349, 447 511.349 C 442.325 511.349, 440.413 511.522, 442.750 511.732 M 481.728 511.722 C 483.503 511.943, 486.653 511.946, 488.728 511.730 C 490.802 511.513, 489.350 511.333, 485.500 511.328 C 481.650 511.324, 479.952 511.501, 481.728 511.722 M 494.453 514.587 C 493.645 515.820, 487.243 516.041, 452.297 516.039 C 429.636 516.038, 410.946 516.367, 410.764 516.769 C 410.582 517.171, 410.598 523.013, 410.800 529.750 L 411.167 542 414.334 541.985 C 416.075 541.976, 417.050 541.639, 416.500 541.235 C 413.017 538.676, 412.218 533.217, 414.304 526.242 C 415.970 520.674, 419.246 518.277, 423.167 519.757 C 425.124 520.496, 430.707 520.577, 440.767 520.015 C 448.870 519.561, 464.050 519.296, 474.500 519.425 C 484.950 519.553, 494.288 519.270, 495.250 518.794 C 497.029 517.915, 497.655 514.523, 496.203 513.625 C 495.765 513.355, 494.977 513.787, 494.453 514.587 M 405.667 514.667 C 404.631 515.702, 404.912 541.313, 405.977 542.998 C 406.596 543.976, 406.902 539.206, 406.860 529.248 C 406.825 520.862, 406.692 514, 406.565 514 C 406.437 514, 406.033 514.300, 405.667 514.667 M 697.607 520.582 C 696.730 522.867, 696.859 538, 697.755 538 C 698.170 538, 698.508 533.725, 698.505 528.500 C 698.502 523.275, 698.436 519, 698.357 519 C 698.278 519, 697.941 519.712, 697.607 520.582 M 645.750 525.662 C 647.800 526.489, 647.169 528.920, 644.750 529.515 C 643.513 529.820, 623.246 529.941, 599.713 529.785 C 562.980 529.540, 556.792 529.288, 555.979 528 C 555.146 526.682, 555.029 526.690, 555.015 528.065 C 555.007 528.925, 556.473 530.332, 558.274 531.191 C 561.066 532.522, 567.895 532.777, 604.656 532.923 C 643.186 533.076, 647.935 532.922, 649.382 531.475 C 652.249 528.608, 650.617 524.922, 646.550 525.079 C 645.423 525.122, 645.063 525.385, 645.750 525.662 M 433.655 541.746 C 442.211 541.990, 444.939 542.398, 445.362 543.500 C 445.665 544.290, 445.566 545.150, 445.141 545.413 C 443.794 546.245, 409.267 546.281, 407.854 545.451 C 407.109 545.014, 407.295 545.565, 408.266 546.675 C 411.124 549.941, 416.863 551, 431.711 551 C 443.984 551, 445.892 550.777, 447.345 549.171 C 449.496 546.794, 449.440 544.709, 447.171 542.655 C 445.661 541.288, 443.352 541.037, 433.921 541.214 L 422.500 541.428 433.655 541.746 M 495.677 542.601 C 496.015 543.482, 495.664 544.593, 494.896 545.072 C 493.039 546.229, 470.998 545.998, 468.679 544.797 C 466.943 543.898, 466.937 543.974, 468.544 546.427 C 470.221 548.986, 470.305 549, 484.080 549 C 496.906 549, 498.009 548.852, 499 547 C 499.760 545.579, 499.760 544.421, 499 543 C 497.709 540.588, 494.769 540.235, 495.677 542.601 M 735.443 577.500 C 735.443 594, 735.580 600.890, 735.748 592.812 C 735.915 584.733, 735.916 571.233, 735.748 562.812 C 735.581 554.390, 735.444 561, 735.443 577.500 M 646.421 557.249 L 646.500 559.500 601.727 559.774 L 556.953 560.048 556.145 557.864 C 555.431 555.933, 555.260 555.881, 554.672 557.412 C 554.306 558.365, 554.464 559.999, 555.023 561.042 C 555.993 562.855, 558.014 562.952, 600.269 563.220 C 624.596 563.374, 645.625 563.245, 647 562.933 C 650.119 562.225, 650.749 558.988, 648.215 556.694 C 646.435 555.084, 646.345 555.112, 646.421 557.249 M 697.405 585.500 C 697.406 594.300, 697.559 597.766, 697.745 593.203 C 697.930 588.639, 697.929 581.439, 697.742 577.203 C 697.555 572.966, 697.404 576.700, 697.405 585.500 M 520.506 574.994 C 518.758 576.925, 517.300 577.009, 481.595 577.237 L 444.500 577.474 480 577.775 C 499.525 577.941, 516.919 577.822, 518.653 577.511 C 520.388 577.200, 522.086 576.218, 522.427 575.330 C 523.362 572.893, 522.538 572.748, 520.506 574.994 M 396.750 577.744 C 401.288 577.929, 408.712 577.929, 413.250 577.744 C 417.788 577.559, 414.075 577.407, 405 577.407 C 395.925 577.407, 392.212 577.559, 396.750 577.744 M 427.250 577.739 C 430.413 577.937, 435.587 577.937, 438.750 577.739 C 441.913 577.541, 439.325 577.378, 433 577.378 C 426.675 577.378, 424.087 577.541, 427.250 577.739 M 601.500 577.984 C 639.715 578.432, 645.500 578.697, 645.500 580 C 645.500 581.307, 639.841 581.534, 601.615 581.761 C 570.047 581.948, 557.347 581.703, 556.365 580.888 C 555.320 580.021, 555 580.089, 555 581.178 C 555 584.893, 556.306 585, 601.545 585 C 642.843 585, 645.795 584.883, 647.325 583.194 C 648.802 581.561, 648.812 581.176, 647.423 579.194 L 645.887 577 601.693 577.234 L 557.500 577.468 601.500 577.984 M 285.630 590.250 C 284.817 593.284, 284.968 613.065, 285.820 615.213 C 286.194 616.155, 286.500 610.417, 286.500 602.463 C 286.500 594.508, 286.440 588, 286.367 588 C 286.293 588, 285.962 589.013, 285.630 590.250 M 354.932 617.126 C 353.354 620.075, 355.181 623.756, 358.654 624.628 C 360.152 625.004, 375.130 624.948, 391.938 624.504 C 408.747 624.061, 430.262 623.746, 439.750 623.805 C 449.238 623.864, 459.813 623.873, 463.250 623.825 C 474.280 623.672, 591.793 623.678, 612.500 623.833 C 638.534 624.029, 648.350 623.167, 648.833 620.644 C 649.028 619.623, 648.629 618.273, 647.947 617.644 C 647.016 616.785, 646.866 616.786, 647.348 617.645 C 647.700 618.275, 647.287 619.060, 646.429 619.389 C 643.885 620.365, 356.175 620.092, 355.570 619.113 C 354.018 616.602, 358.654 616.024, 382.581 615.750 L 407.500 615.463 381.785 615.232 C 356.468 615.004, 356.053 615.033, 354.932 617.126 M 456.776 615.733 C 459.128 615.945, 462.728 615.942, 464.776 615.727 C 466.824 615.512, 464.900 615.339, 460.500 615.343 C 456.100 615.346, 454.424 615.522, 456.776 615.733 M 516.250 615.750 C 539.763 615.899, 578.238 615.899, 601.750 615.750 C 625.263 615.600, 606.025 615.478, 559 615.478 C 511.975 615.478, 492.738 615.600, 516.250 615.750 M 697.462 664.500 C 697.463 690.900, 697.592 701.556, 697.749 688.181 C 697.907 674.805, 697.907 653.205, 697.749 640.181 C 697.591 627.156, 697.462 638.100, 697.462 664.500 M 285.642 629.750 C 284.801 634.836, 284.966 720.065, 285.820 722.190 C 286.194 723.120, 286.538 701.858, 286.585 674.940 C 286.632 648.023, 286.578 626, 286.466 626 C 286.354 626, 285.983 627.688, 285.642 629.750 M 246.835 627.906 C 246.651 628.412, 242.559 630.865, 237.741 633.358 C 230.574 637.067, 229.295 638.066, 230.702 638.853 C 232.381 639.793, 239.159 637.899, 241.450 635.850 C 241.972 635.382, 243.140 635, 244.045 635 C 246.083 635, 249 631.897, 249 629.730 C 249 627.901, 247.346 626.508, 246.835 627.906 M 784 628.054 C 784.825 628.617, 787.300 629.977, 789.500 631.077 L 793.500 633.076 790.038 630.038 C 788.134 628.367, 785.659 627.007, 784.538 627.015 C 782.837 627.028, 782.748 627.200, 784 628.054 M 779 629.878 C 779 631.163, 780.853 632.504, 787.374 635.934 C 793.365 639.085, 797.384 639.806, 798.539 637.937 C 799.263 636.766, 796.300 633, 794.654 633 C 794.084 633, 794.491 633.638, 795.557 634.418 C 796.624 635.198, 797.150 636.183, 796.726 636.607 C 796.302 637.032, 792.328 635.493, 787.896 633.189 C 779.139 628.637, 779 628.585, 779 629.878 M 735.428 664 C 735.428 676.375, 735.571 681.438, 735.747 675.250 C 735.922 669.063, 735.922 658.938, 735.747 652.750 C 735.571 646.563, 735.428 651.625, 735.428 664 M 467.500 649.993 C 575.401 650.490, 577.500 650.537, 577.500 652.434 C 577.500 654.334, 575.705 654.364, 472.500 654.156 C 414.750 654.039, 365.137 653.956, 362.250 653.972 C 358.150 653.994, 357 653.659, 357 652.441 C 357 651.584, 356.550 651.160, 356 651.500 C 354.377 652.503, 354.854 655.558, 356.927 657.434 C 358.537 658.891, 359.973 659.068, 365.677 658.514 C 379.046 657.215, 541.567 656.830, 559.801 658.055 C 575.884 659.135, 577.240 659.093, 579.051 657.453 C 581.624 655.126, 581.518 652.477, 578.777 650.557 C 576.794 649.167, 564.797 649.026, 467.027 649.243 L 357.500 649.487 467.500 649.993 M 360.500 682 C 360.119 682.617, 361.724 682.973, 364.691 682.930 C 368.298 682.877, 369 682.645, 367.500 682 C 364.721 680.806, 361.238 680.806, 360.500 682 M 505 681.885 C 502.385 682.307, 503.524 682.582, 509.500 682.975 C 516.514 683.435, 517.500 683.735, 517.500 685.403 C 517.500 687.258, 515.472 687.308, 438 687.346 L 358.500 687.386 358.595 685.044 C 358.685 682.841, 358.611 682.811, 357.345 684.542 C 355.549 686.999, 355.635 687.635, 358.098 690.098 C 359.624 691.624, 360.918 692.028, 362.848 691.579 C 368.606 690.240, 405.021 689.176, 433 689.529 C 449.225 689.734, 464.750 689.822, 467.500 689.726 C 477.296 689.381, 486.715 689.571, 502.037 690.421 C 516.079 691.200, 517.739 691.118, 519.287 689.570 C 524.818 684.039, 517.165 679.922, 505 681.885 M 735.231 712.429 C 735.104 726.690, 734.579 739.740, 734.064 741.429 C 733.022 744.845, 730.617 772.951, 731.308 773.641 C 731.548 773.882, 732.229 770.798, 732.821 766.789 C 735.122 751.206, 736.096 732.543, 735.785 710 L 735.461 686.500 735.231 712.429 M 249.863 713.730 C 249.663 714.228, 243.112 720.426, 235.305 727.503 C 227.498 734.580, 221.339 740.739, 221.617 741.189 C 222.962 743.365, 228.477 739.764, 238.500 730.166 C 250.043 719.112, 252.870 715.470, 251.202 713.802 C 250.642 713.242, 250.070 713.211, 249.863 713.730 M 792.930 725.617 C 801.114 733.512, 805.098 738.032, 804.594 738.848 C 804.065 739.704, 800.530 737.076, 793.164 730.350 C 787.299 724.994, 781.263 719.490, 779.750 718.119 C 778.237 716.748, 777 716.148, 777 716.787 C 777 718.209, 791.697 732.455, 798.334 737.465 C 803.434 741.316, 806.242 741.697, 806.835 738.620 C 807.256 736.433, 800.790 729.505, 790.500 721.116 C 779.207 711.910, 779.732 712.884, 792.930 725.617 M 486 717.878 C 486 718.495, 485.991 719.337, 485.981 719.750 C 485.971 720.163, 484.958 720.725, 483.731 721 C 482.504 721.275, 453.375 721.275, 419 721 C 384.625 720.725, 356.398 720.527, 356.273 720.560 C 356.148 720.594, 356.736 721.606, 357.580 722.810 L 359.113 725 422.857 725 C 471.101 725, 486.892 724.708, 487.800 723.800 C 489.444 722.156, 489.306 719.499, 487.500 718 C 486.464 717.140, 486 717.102, 486 717.878 M 693.406 762.386 C 693.113 763.148, 693.024 765.735, 693.208 768.136 C 693.532 772.360, 693.558 772.315, 694.022 766.749 C 694.507 760.911, 694.363 759.890, 693.406 762.386 M 649.593 763.618 C 649.231 764.562, 649.324 765.724, 649.800 766.200 C 651.122 767.522, 654.139 765.960, 653.788 764.136 C 653.357 761.898, 650.393 761.532, 649.593 763.618 M 634.278 781.345 C 633.833 781.980, 633.476 783.400, 633.486 784.500 C 633.498 785.962, 634.175 786.500, 636.001 786.500 C 638.093 786.500, 638.500 786.027, 638.500 783.595 C 638.500 780.535, 635.839 779.117, 634.278 781.345 M 619.125 798.625 C 616.457 800.494, 616.557 804.724, 619.309 806.399 C 620.753 807.278, 621.408 807.109, 622.559 805.559 C 625.859 801.115, 623.209 795.764, 619.125 798.625 M 328 812.095 C 331.106 814.794, 335.466 817.137, 345.500 821.497 C 353.327 824.899, 358.524 826, 366.785 826.008 C 371.578 826.013, 379.550 826.516, 384.500 827.127 C 389.450 827.737, 408.575 828.393, 427 828.584 C 445.425 828.775, 461.175 828.973, 462 829.024 C 470.015 829.515, 632.037 828.296, 632.593 827.740 C 633 827.333, 623.388 827, 611.232 827 C 598.488 827, 587.983 826.564, 586.421 825.970 C 584.586 825.272, 582.710 825.265, 580.606 825.949 C 577.784 826.865, 559.820 826.965, 419.256 826.848 C 406.915 826.837, 396.761 826.422, 396.447 825.914 C 396.136 825.412, 387.224 825, 376.641 825 C 366.058 825, 356.973 824.628, 356.450 824.174 C 355.928 823.720, 353.475 822.738, 351 821.993 C 344.177 819.940, 338.103 817.035, 331.805 812.816 C 324.977 808.241, 323.171 807.899, 328 812.095 M 362.570 810.887 C 361.889 811.988, 364.438 814.229, 365.342 813.325 C 365.704 812.963, 366 812.067, 366 811.333 C 366 809.844, 363.422 809.508, 362.570 810.887 M 698.203 819.429 C 696.390 820.711, 694.590 822.096, 694.203 822.507 C 693.159 823.617, 699.182 820.398, 701.500 818.608 C 704.686 816.148, 701.843 816.856, 698.203 819.429" stroke="none" fill="#11110f" fill-rule="evenodd"/><path d="M 409.500 188.970 C 398.935 189.337, 388.946 190.173, 387 190.852 C 385.075 191.524, 378.120 192.304, 371.544 192.586 C 364.968 192.867, 359.118 193.485, 358.544 193.959 C 357.970 194.433, 355.811 195.137, 353.747 195.522 C 351.682 195.908, 348.310 197.561, 346.253 199.196 C 344.196 200.831, 337.785 204.470, 332.007 207.283 C 326.228 210.097, 319.475 214.245, 317 216.503 C 314.525 218.761, 310.607 222.068, 308.294 223.853 C 304.731 226.602, 301.056 231.486, 294.263 242.500 C 289.876 249.614, 288.299 256.351, 288.062 269 C 287.974 273.675, 287.503 280.425, 287.015 284 C 286.265 289.501, 285.446 334.619, 285.836 349 C 285.903 351.475, 286.094 443.950, 286.260 554.500 C 286.426 665.050, 286.904 756.050, 287.323 756.722 C 287.741 757.394, 288.711 761.513, 289.478 765.874 C 293.607 789.360, 314.616 812.918, 342.145 824.930 L 353.525 829.895 367.512 830.500 C 375.206 830.833, 384.031 831.541, 387.124 832.074 C 390.217 832.606, 406.192 833.054, 422.624 833.067 C 439.056 833.081, 479.725 833.133, 513 833.182 C 591.322 833.299, 670.582 832.272, 674.454 831.091 C 676.129 830.580, 679.750 829.877, 682.500 829.528 C 694.737 827.977, 707.418 820.849, 717.360 809.933 C 730.042 796.008, 735.955 778.154, 738.863 745 C 739.888 733.317, 739.567 283.269, 738.529 277 C 735.242 257.148, 728.081 243.831, 713.406 230.283 C 708.191 225.469, 703.124 221.073, 702.147 220.515 C 701.169 219.957, 697.023 216.969, 692.935 213.877 C 683.636 206.843, 675.792 203.101, 655.500 196.021 C 647.202 193.125, 643.007 192.328, 632 191.554 C 623.989 190.991, 572.022 190.053, 513.500 189.415 C 489.300 189.151, 460.275 188.795, 449 188.623 C 437.725 188.451, 419.950 188.608, 409.500 188.970 M 431.804 192.494 C 431.422 192.896, 422.422 193.331, 411.804 193.460 C 391.959 193.702, 386.081 194.575, 381.841 197.910 C 380.510 198.957, 376.543 200.759, 373.025 201.914 C 369.507 203.069, 365.587 204.696, 364.314 205.530 C 363.041 206.364, 362 206.611, 362 206.080 C 362 204.555, 365.965 202.169, 371.455 200.389 C 379.354 197.829, 379.138 197, 370.571 197 C 362.077 197, 350.352 200.406, 346.500 203.993 C 345.400 205.018, 340 208.113, 334.500 210.872 C 328.784 213.739, 322.266 217.946, 319.286 220.694 C 316.418 223.337, 312.143 226.865, 309.786 228.533 C 306.318 230.987, 304.335 233.819, 299.400 243.365 L 293.300 255.164 292.537 267.832 C 290.898 295.015, 290.454 323.666, 290.855 376.500 C 291.461 456.542, 291.482 478.093, 290.981 511 C 290.734 527.225, 290.647 553.100, 290.789 568.500 C 290.930 583.900, 290.944 630.925, 290.820 673 C 290.613 743.408, 290.741 750.296, 292.425 759.500 C 296.170 779.966, 305.924 795.075, 324.795 809.642 C 329.537 813.302, 335.460 817.167, 337.958 818.230 C 340.456 819.294, 343.850 820.757, 345.500 821.483 C 353.222 824.877, 358.507 826, 366.785 826.008 C 371.578 826.013, 379.550 826.516, 384.500 827.127 C 392.388 828.100, 442.926 829.085, 470 828.794 C 475.225 828.738, 509.425 828.688, 546 828.682 C 625.969 828.671, 640.423 828.016, 650.500 823.948 C 661.539 819.490, 665.762 816.709, 671 810.445 C 674.025 806.828, 678.537 801.467, 681.027 798.533 C 686.501 792.083, 692.883 777.022, 694.034 767.842 C 694.472 764.354, 695.404 758.195, 696.107 754.157 C 697.131 748.269, 697.142 744.133, 696.163 733.294 C 695.177 722.375, 695.188 719.478, 696.221 718.233 C 697.228 717.020, 697.574 700.699, 697.848 641.596 C 698.351 532.884, 698.526 521.842, 699.966 508 C 701.380 494.410, 700.812 472.330, 698.874 465.500 C 698.071 462.668, 697.987 456.534, 698.587 444.500 C 699.054 435.150, 699.251 421.200, 699.026 413.500 C 698.382 391.488, 698.494 375.341, 699.468 350 C 700.543 322.011, 700.557 317.444, 699.672 282.699 C 699.030 257.478, 698.835 255.432, 696.379 248 C 694.657 242.788, 691.852 237.407, 688.134 232.180 C 676.259 215.484, 663.914 202, 660.504 202 C 659.656 202, 655.846 200.911, 652.038 199.581 C 641.125 195.768, 630.905 195.078, 576.500 194.482 C 548.450 194.175, 509.525 193.747, 490 193.533 C 470.475 193.318, 449.550 192.832, 443.500 192.453 C 437.450 192.074, 432.187 192.093, 431.804 192.494 M 678.349 212.250 C 686.088 221.367, 697.845 238.738, 699.411 243.369 C 700.316 246.047, 701.437 248.972, 701.901 249.869 C 702.558 251.141, 704.507 287.004, 704.163 291.500 C 704.121 292.050, 704.137 294.975, 704.198 298 C 704.524 314.205, 704.278 334.659, 703.548 352 C 702.662 373.062, 702.588 379.200, 702.789 415 C 702.861 427.925, 702.856 443.675, 702.778 450 C 702.700 456.325, 703.252 467.773, 704.005 475.439 C 705.122 486.817, 705.151 492.239, 704.160 504.939 C 703.493 513.498, 702.639 538.500, 702.264 560.500 C 701.484 606.277, 701.512 601.132, 701.783 649 C 701.896 669.075, 702.013 691.350, 702.043 698.500 C 702.080 707.690, 701.651 712.758, 700.578 715.791 C 699.389 719.150, 699.250 721.649, 699.935 727.291 C 701.343 738.878, 701.208 753.157, 699.620 760.596 C 698.810 764.393, 697.894 769.347, 697.585 771.604 C 697.276 773.861, 695.955 778.136, 694.650 781.104 C 693.345 784.072, 691.518 788.598, 690.589 791.163 C 689.441 794.336, 685.398 799.770, 677.944 808.163 C 668.545 818.746, 665.960 821.033, 659.762 824.250 L 652.537 828 659.462 828 C 670.951 828, 689.937 825.028, 695.127 822.418 C 704.746 817.580, 719.421 803.696, 721.993 797 C 722.732 795.075, 724.365 791.698, 725.620 789.495 C 729.114 783.365, 731.820 773.714, 733.748 760.500 C 735.379 749.326, 735.493 732.738, 735.404 519.500 C 735.351 393.550, 735.007 286.757, 734.639 282.183 C 734.271 277.609, 733.037 271.309, 731.896 268.183 C 730.755 265.057, 729.462 261.051, 729.023 259.280 C 727.471 253.024, 717.550 239.841, 708.330 231.784 C 699.562 224.122, 691.129 217.606, 685.636 214.250 C 684.061 213.288, 681.228 211.488, 679.341 210.250 C 674.449 207.041, 674.256 207.429, 678.349 212.250 M 222 270.333 C 222 271.066, 223.912 273.183, 226.250 275.038 C 228.588 276.893, 234.465 282.031, 239.311 286.455 C 248.498 294.842, 250 295.910, 250 294.047 C 250 292.874, 233.777 276.988, 227.418 271.935 C 223.361 268.711, 222 268.308, 222 270.333 M 790.922 279.602 C 784.090 285.433, 778.124 290.557, 777.665 290.987 C 777.206 291.417, 776.981 292.804, 777.165 294.069 C 777.469 296.153, 778.252 295.680, 785.500 289.038 C 803.987 272.095, 806.871 269, 804.172 269 C 803.717 269, 797.754 273.771, 790.922 279.602 M 357.328 288.588 C 357.012 289.412, 357.021 290.354, 357.348 290.682 C 358.169 291.502, 505.694 291.307, 507.026 290.484 C 507.780 290.018, 507.760 289.416, 506.960 288.452 C 506.016 287.314, 493.278 287.082, 431.863 287.086 C 367.092 287.090, 357.831 287.277, 357.328 288.588 M 417.750 323.758 C 357.933 324.011, 357 324.046, 357 325.998 C 357 327.965, 358.089 327.980, 501.959 327.960 C 602.736 327.946, 647.118 327.618, 647.572 326.883 C 647.932 326.302, 647.823 325.423, 647.332 324.932 C 646.376 323.976, 519.380 323.327, 417.750 323.758 M 356.651 359.468 C 356.341 360.275, 356.505 361.194, 357.016 361.510 C 358.130 362.198, 550.080 362.253, 550.768 361.565 C 551.032 361.302, 550.981 360.392, 550.655 359.543 C 550.127 358.167, 539.624 358, 453.638 358 C 369.785 358, 357.141 358.191, 356.651 359.468 M 786.340 367.404 C 778.806 371.015, 776.946 372.658, 779.350 373.581 C 780.970 374.202, 796 366.375, 796 364.910 C 796 363.304, 793.607 363.922, 786.340 367.404 M 236.079 367.917 C 241.298 371.361, 248.822 374.512, 249.708 373.625 C 250.487 372.846, 250.910 373.121, 242.147 368.705 C 233.369 364.282, 229.882 363.829, 236.079 367.917 M 401.500 398.753 C 362.492 398.983, 358.384 399.163, 357.250 400.694 C 356.272 402.015, 356 421.514, 356 490.206 L 356 578.029 359.243 580.002 C 362.408 581.927, 364.409 581.968, 443.138 581.737 C 521.219 581.508, 523.858 581.439, 525.922 579.571 L 528.053 577.642 527.488 522.071 C 526.229 398.212, 526.340 403.144, 524.766 400.773 L 523.297 398.562 483.899 398.531 C 462.229 398.514, 425.150 398.614, 401.500 398.753 M 561 400.294 C 555.943 402.852, 555.809 404.085, 555.914 447.011 C 555.968 468.932, 556.243 487.469, 556.525 488.205 C 558.102 492.313, 559.911 492.496, 600 492.600 C 621.175 492.654, 639.854 492.318, 641.508 491.852 C 643.162 491.386, 645.061 490.132, 645.727 489.066 C 646.600 487.667, 647.086 475.569, 647.470 445.653 L 648.003 404.180 644.925 401.590 L 641.847 399 602.673 399.015 C 573.104 399.026, 562.887 399.340, 561 400.294 M 440.254 402.756 L 360.007 403.012 360.011 489.388 L 360.016 575.764 362.758 576.880 C 364.714 577.677, 387.792 577.926, 443.287 577.748 C 511.138 577.532, 521.199 577.308, 522.062 576 C 523.424 573.934, 522.872 404.397, 521.500 403.299 C 520.950 402.860, 484.389 402.615, 440.254 402.756 M 560.958 405.079 C 559.847 407.155, 559.576 423.895, 559.967 466.190 C 560.116 482.174, 560.428 486.110, 561.627 487.105 C 562.734 488.024, 572.966 488.352, 602.467 488.416 C 624.117 488.462, 642.083 488.248, 642.392 487.940 C 642.834 487.499, 643.180 443.772, 643.023 408.250 L 643 403 602.535 403 C 562.579 403, 562.056 403.026, 560.958 405.079 M 582.351 438.750 C 570.355 456.782, 569 459.507, 569 465.601 C 569 468.505, 569.471 471.173, 570.046 471.529 C 570.622 471.884, 582.126 472.179, 595.612 472.183 C 617.572 472.191, 620.333 472.009, 622.065 470.441 C 623.129 469.478, 624 468.060, 624 467.289 C 624 466.519, 620.736 461.751, 616.746 456.694 C 607.163 444.548, 603.908 440.221, 601.500 436.421 C 597.925 430.781, 594.172 427, 592.149 427 C 590.731 427, 587.948 430.337, 582.351 438.750 M 617.539 434.250 C 615.507 436.587, 612.725 439.692, 611.356 441.150 C 609.606 443.013, 609.218 444.017, 610.051 444.531 C 611.336 445.326, 622.917 433.420, 622.970 431.250 C 623.025 428.980, 621.282 429.943, 617.539 434.250 M 587.706 437.196 C 585.796 440.113, 582.083 446.100, 579.455 450.500 C 576.826 454.900, 573.849 459.573, 572.838 460.885 C 571.827 462.197, 571 464.334, 571 465.635 C 571 467.736, 571.474 468.010, 575.250 468.094 C 583.765 468.281, 618.509 467.820, 618.816 467.515 C 618.990 467.342, 615.615 462.494, 611.316 456.741 C 607.017 450.988, 601.250 443.205, 598.500 439.446 C 595.750 435.687, 592.978 432.449, 592.339 432.252 C 591.701 432.054, 589.616 434.279, 587.706 437.196 M 404.500 435 L 385.500 435.500 384.862 445 C 383.843 460.178, 383.916 472.975, 385.035 475.066 C 385.998 476.865, 387.293 477, 403.609 477 C 419.773 477, 421.120 476.863, 420.811 475.250 C 420.510 473.686, 418.806 473.471, 404.814 473.225 L 389.154 472.950 388.443 466.310 C 388.052 462.659, 388.009 455.132, 388.347 449.585 C 388.686 444.038, 388.971 439.183, 388.981 438.795 C 388.992 438.407, 400.137 438.107, 413.750 438.129 C 444.137 438.177, 442 438.300, 442 436.500 C 442 435.675, 441.212 434.939, 440.250 434.865 C 435.476 434.497, 421.627 434.549, 404.500 435 M 201.823 497.809 C 200.351 497.980, 198.608 498.767, 197.951 499.559 C 196.915 500.807, 200.048 501, 221.319 501 C 244.267 501, 249.110 500.470, 245.766 498.326 C 244.581 497.566, 207.685 497.132, 201.823 497.809 M 781.459 499.067 C 781.096 499.653, 781.030 500.363, 781.311 500.644 C 781.984 501.317, 828.007 501.326, 828.680 500.653 C 828.966 500.367, 828.904 499.653, 828.541 499.067 C 827.629 497.591, 782.371 497.591, 781.459 499.067 M 407.437 513.102 C 406.413 514.759, 406.824 544.224, 407.887 545.287 C 408.842 546.242, 443.610 546.359, 445.141 545.413 C 445.566 545.150, 445.654 544.262, 445.338 543.439 C 444.856 542.183, 442.128 541.973, 428.379 542.135 C 419.367 542.241, 411.812 542.141, 411.590 541.914 C 411.367 541.686, 411.042 535.875, 410.867 529 L 410.549 516.500 451.981 516.244 C 475.031 516.101, 493.815 515.585, 494.319 515.081 C 497.134 512.266, 493.070 511.979, 450.973 512.022 C 422.502 512.051, 407.862 512.414, 407.437 513.102 M 557.004 525.833 C 554.936 526.520, 556.101 528.859, 558.750 529.339 C 562.674 530.050, 642.944 530.153, 645.159 529.450 C 647.391 528.741, 647.580 526.436, 645.472 525.628 C 643.912 525.029, 558.831 525.227, 557.004 525.833 M 468.323 542.601 C 467.327 545.197, 469.532 545.723, 481.840 545.829 C 493.977 545.934, 496.711 545.296, 495.677 542.601 C 495.157 541.246, 493.055 541, 482 541 C 470.945 541, 468.843 541.246, 468.323 542.601 M 556.187 557.298 L 556.500 559.500 601.500 559.500 C 645.833 559.500, 646.500 559.470, 646.500 557.500 C 646.500 555.532, 645.766 555.497, 601.187 555.298 L 555.874 555.096 556.187 557.298 M 556.453 579.077 C 556.079 579.680, 556.190 580.590, 556.698 581.098 C 557.242 581.642, 575.645 581.914, 601.561 581.761 C 639.835 581.534, 645.500 581.307, 645.500 580 C 645.500 578.693, 639.808 578.466, 601.315 578.240 C 570.062 578.055, 556.932 578.300, 556.453 579.077 M 356.131 617.342 C 355.519 618.080, 355.313 618.980, 355.675 619.341 C 356.677 620.343, 645.293 620.093, 646.885 619.089 C 651.483 616.188, 642.566 616, 500.688 616 C 381.908 616, 357.053 616.231, 356.131 617.342 M 237.401 630.645 C 230.741 634.162, 228.573 635.906, 229.593 636.927 C 230.241 637.574, 247 628.763, 247 627.774 C 247 626.226, 244.159 627.075, 237.401 630.645 M 779.639 627.774 C 779.146 628.573, 790.754 635.240, 794.750 636.452 C 799.558 637.911, 796.657 634.989, 789.423 631.087 C 781.572 626.852, 780.445 626.471, 779.639 627.774 M 357 651.996 C 357 653.751, 357.653 653.997, 362.250 653.972 C 365.137 653.956, 414.750 654.039, 472.500 654.156 C 575.705 654.364, 577.500 654.334, 577.500 652.434 C 577.500 650.535, 575.485 650.495, 467.250 650.246 C 357.502 649.992, 357 650, 357 651.996 M 358.382 684.447 C 358.074 685.248, 358.045 686.263, 358.316 686.702 C 358.587 687.141, 394.514 687.456, 438.154 687.401 C 515.423 687.305, 517.500 687.253, 517.500 685.401 C 517.500 683.551, 515.369 683.493, 438.221 683.244 C 369.533 683.023, 358.867 683.184, 358.382 684.447 M 241.871 717.261 C 239.325 719.592, 233.362 724.816, 228.621 728.869 C 223.462 733.280, 220 736.994, 220 738.119 C 220 739.154, 220.351 740, 220.779 740 C 221.657 740, 249.315 715.068, 249.833 713.810 C 250.806 711.446, 245.897 713.573, 241.871 717.261 M 777.602 714.835 C 777.318 715.295, 783.114 721.146, 790.483 727.837 C 799.394 735.930, 804.127 739.603, 804.620 738.806 C 805.090 738.045, 800.885 733.305, 793.088 725.804 C 781.564 714.720, 778.858 712.803, 777.602 714.835 M 358.104 716.880 C 357.337 717.385, 356.981 718.508, 357.314 719.377 C 357.855 720.787, 364.503 720.984, 419.710 721.228 C 453.695 721.377, 482.400 721.275, 483.500 721 C 484.600 720.725, 485.632 719.712, 485.794 718.750 C 486.071 717.101, 482.787 716.997, 428.794 716.943 C 397.282 716.911, 368.800 716.678, 365.500 716.424 C 362.200 716.170, 358.872 716.376, 358.104 716.880" stroke="none" fill="#d2cfc5" fill-rule="evenodd"/></svg>