<svg xmlns="http://www.w3.org/2000/svg" width="721" height="746" viewBox="0 0 721 746" version="1.1"><path d="M 265.789 34.820 C 264.848 35.194, 274.818 35.500, 287.944 35.500 C 301.070 35.500, 311.290 35.169, 310.655 34.765 C 309.208 33.845, 268.117 33.895, 265.789 34.820 M 345.750 36.706 C 346.988 36.944, 349.012 36.944, 350.250 36.706 C 351.488 36.467, 350.475 36.272, 348 36.272 C 345.525 36.272, 344.512 36.467, 345.750 36.706 M 368.264 36.718 C 369.784 36.947, 372.034 36.941, 373.264 36.704 C 374.494 36.467, 373.250 36.279, 370.500 36.286 C 367.750 36.294, 366.744 36.488, 368.264 36.718 M 382.500 36.637 C 389.109 37.335, 437.735 37.450, 436.657 36.765 C 436.020 36.361, 422.900 36.096, 407.500 36.175 C 392.100 36.255, 380.850 36.463, 382.500 36.637 M 221 39.002 C 223.475 39.415, 226.175 39.372, 227 38.907 C 227.936 38.379, 226.242 38.096, 222.500 38.156 L 216.500 38.250 221 39.002 M 271.200 39.881 C 268.835 40.303, 260.510 40.570, 252.700 40.475 C 237.289 40.287, 229.497 41.517, 224.992 44.848 C 223.460 45.980, 219.294 47.848, 215.734 48.998 C 212.173 50.148, 208.414 51.730, 207.380 52.513 C 205.570 53.884, 205.581 53.938, 207.691 53.968 C 208.896 53.986, 210.160 53.550, 210.500 53 C 210.840 52.450, 212.297 52, 213.738 52 C 217.036 52, 221.957 50.419, 229 47.095 C 234.056 44.709, 236.033 44.436, 253.500 43.701 C 276.992 42.713, 281.052 42.704, 357 43.479 C 404.945 43.968, 419.390 44.406, 422.538 45.469 C 425.259 46.388, 428.519 46.615, 432.538 46.166 C 440.512 45.275, 482.078 46.485, 489 47.810 C 497.382 49.414, 499.979 50.156, 500.574 51.119 C 500.873 51.604, 502.035 52, 503.155 52 C 505.381 52, 509.561 54.611, 515 59.398 C 516.925 61.092, 515.802 59.658, 512.504 56.212 C 508.174 51.686, 505.395 49.656, 502.504 48.907 C 500.302 48.337, 496.244 47.045, 493.487 46.038 C 484.769 42.851, 471.847 42.055, 419.500 41.482 C 391.450 41.175, 352.525 40.747, 333 40.533 C 313.475 40.318, 292.550 39.911, 286.500 39.629 C 280.450 39.346, 273.565 39.460, 271.200 39.881 M 198.002 46.672 C 194.429 48.017, 190.604 49.958, 189.502 50.986 C 188.401 52.014, 183 55.113, 177.500 57.872 C 171.784 60.739, 165.266 64.946, 162.286 67.694 C 159.418 70.337, 155.143 73.865, 152.786 75.533 C 149.318 77.987, 147.335 80.819, 142.400 90.365 L 136.300 102.164 135.537 114.832 C 133.898 142.015, 133.454 170.666, 133.855 223.500 C 134.461 303.542, 134.482 325.093, 133.981 358 C 133.734 374.225, 133.647 400.100, 133.789 415.500 C 133.930 430.900, 133.944 477.925, 133.820 520 C 133.613 590.408, 133.741 597.296, 135.425 606.500 C 137.356 617.056, 141.560 627.594, 146.987 635.480 C 150.940 641.227, 161.870 653, 163.251 653 C 163.814 653, 162.300 650.842, 159.887 648.205 C 150.106 637.515, 150.098 637.504, 143.175 624.250 C 140.347 618.836, 140 617.902, 140 615.714 C 140 614.441, 139.587 612.973, 139.083 612.450 C 137.312 610.615, 136.600 565.571, 137.123 488.500 C 137.224 473.650, 137.268 457.450, 137.222 452.500 C 137.045 433.636, 137.027 381.005, 137.170 300.250 C 137.223 270.137, 137.182 229.300, 137.078 209.500 C 136.824 160.978, 137.805 112.403, 139.140 107.500 C 142.501 95.145, 152.415 77.999, 157.348 76.007 C 158.532 75.529, 161.681 73.127, 164.347 70.669 C 167.013 68.211, 172.188 64.711, 175.847 62.890 C 179.506 61.070, 185.063 57.875, 188.195 55.790 C 191.327 53.706, 194.725 52, 195.745 52 C 196.765 52, 198.131 51.469, 198.780 50.820 C 199.686 49.914, 200.502 49.931, 202.300 50.893 C 204.282 51.954, 205.164 51.845, 208.070 50.182 C 209.956 49.103, 213.300 47.666, 215.500 46.989 C 222.503 44.835, 221.758 43.995, 212.950 44.114 C 206.635 44.199, 202.858 44.846, 198.002 46.672 M 507.344 46.116 C 509.459 47.232, 511.399 47.934, 511.657 47.677 C 512.223 47.110, 506.142 43.982, 504.596 44.044 C 503.993 44.069, 505.230 45.001, 507.344 46.116 M 521.349 59.250 C 529.088 68.367, 540.845 85.738, 542.411 90.369 C 543.316 93.047, 544.437 95.972, 544.901 96.869 C 545.558 98.141, 547.507 134.004, 547.163 138.500 C 547.121 139.050, 547.137 141.975, 547.198 145 C 547.524 161.205, 547.278 181.659, 546.548 199 C 545.662 220.062, 545.588 226.200, 545.789 262 C 545.861 274.925, 545.856 290.675, 545.778 297 C 545.700 303.325, 546.252 314.773, 547.005 322.439 C 548.120 333.791, 548.150 339.268, 547.169 351.939 C 546.506 360.498, 545.651 385.500, 545.269 407.500 C 544.480 452.913, 544.509 447.599, 544.783 496 C 544.896 516.075, 545.013 538.350, 545.043 545.500 C 545.080 554.690, 544.651 559.758, 543.578 562.791 C 542.389 566.150, 542.250 568.649, 542.935 574.291 C 544.343 585.878, 544.208 600.157, 542.620 607.596 C 541.810 611.393, 540.894 616.347, 540.585 618.604 C 540.276 620.861, 538.955 625.136, 537.650 628.104 C 536.345 631.072, 534.518 635.598, 533.589 638.163 C 532.441 641.336, 528.398 646.770, 520.944 655.163 C 511.545 665.746, 508.960 668.033, 502.762 671.250 L 495.537 675 503.518 674.926 C 507.908 674.885, 513.525 674.531, 516 674.139 C 520.412 673.439, 520.442 673.410, 517.510 672.633 C 515.866 672.198, 514.233 671.377, 513.883 670.810 C 512.941 669.287, 514.039 666, 515.489 666 C 516.690 666, 519.039 663.547, 528.957 651.938 C 533.441 646.688, 538 638.813, 538 636.317 C 538 635.578, 538.397 634.191, 538.883 633.236 C 539.369 632.281, 540.322 630.150, 541 628.500 C 541.678 626.850, 542.631 624.719, 543.117 623.764 C 543.603 622.809, 544 620.248, 544 618.073 C 544 615.898, 544.390 613.877, 544.867 613.582 C 546.282 612.708, 547.345 604.010, 546.955 596.500 C 546.755 592.650, 546.692 584.550, 546.816 578.500 C 546.939 572.450, 547.471 532.400, 547.997 489.500 C 549.514 365.895, 549.631 360.558, 550.867 358.248 C 552.214 355.731, 552.446 326.394, 551.125 325.577 C 549.606 324.638, 548.701 314.009, 548.841 298.750 C 548.980 283.677, 549.008 263.262, 548.929 235.250 C 548.905 226.588, 549.378 210.725, 549.980 200 C 551.337 175.866, 551.361 161.760, 550.089 138 C 549.544 127.825, 548.808 114.100, 548.455 107.500 C 548.101 100.900, 547.404 95.073, 546.906 94.550 C 546.408 94.027, 546 92.804, 546 91.830 C 546 89.833, 544.150 86.359, 538.168 77.124 C 530.186 64.802, 536.217 67.405, 552.738 83.412 C 558.932 89.413, 564 94.707, 564 95.177 C 564 96.818, 571.431 107.207, 571.804 106.088 C 572.011 105.466, 570.025 101.480, 567.391 97.229 C 562.270 88.965, 551.305 77.705, 541.596 70.737 C 538.349 68.407, 534.299 65.323, 532.596 63.885 C 530.893 62.446, 527.618 60.315, 525.318 59.149 C 523.018 57.983, 520.854 56.572, 520.509 56.014 C 520.164 55.456, 519.400 55, 518.811 55 C 518.223 55, 519.364 56.913, 521.349 59.250 M 532.673 58.274 C 537.950 62.518, 539.516 63.238, 535.583 59.612 C 533.429 57.625, 531.257 56, 530.757 56 C 530.256 56, 531.119 57.023, 532.673 58.274 M 195.750 62.598 C 191.226 66.956, 189.981 69, 191.852 69 C 192.603 69, 195.467 66.646, 201.250 61.275 C 202.213 60.381, 203 59.279, 203 58.825 C 203 56.869, 200.168 58.343, 195.750 62.598 M 520.022 65.747 C 520.034 66.161, 520.924 67.625, 522 69 C 523.076 70.375, 523.966 71.999, 523.978 72.609 C 523.990 73.219, 525.800 75.763, 528 78.263 C 530.200 80.762, 532 83.245, 532 83.781 C 532 84.317, 532.697 85.334, 533.550 86.041 C 534.402 86.748, 535.988 89.278, 537.074 91.664 C 538.161 94.049, 539.257 96, 539.510 96 C 540.765 96, 535.387 84.988, 531.275 79.138 C 526.233 71.964, 519.986 64.531, 520.022 65.747 M 557.209 77.857 C 570.592 90.504, 578.130 104.388, 581.154 121.958 C 582.513 129.854, 583.189 576.933, 581.865 592 C 578.949 625.170, 573.041 643.008, 560.360 656.933 C 550.418 667.849, 537.737 674.977, 525.500 676.528 C 522.750 676.877, 519.129 677.580, 517.454 678.091 C 513.582 679.272, 434.322 680.299, 356 680.182 C 322.725 680.133, 282.056 680.081, 265.624 680.067 C 249.192 680.054, 233.217 679.606, 230.124 679.074 C 227.031 678.541, 218.206 677.833, 210.512 677.500 L 196.525 676.895 185.145 671.930 C 163.526 662.496, 148.654 648.858, 137.789 628.500 C 133.193 619.890, 132.761 621.165, 137.260 630.057 C 141.522 638.479, 147.210 645.943, 155.652 654.192 C 163.604 661.964, 176.775 671.951, 179.110 671.980 C 180.450 671.997, 186.695 674.759, 195.236 679.115 C 196.191 679.602, 203.700 680, 211.921 680 C 220.257 680, 228.115 680.479, 229.685 681.084 C 233.236 682.450, 459.344 683.056, 475.500 681.743 C 485.958 680.892, 489.271 680.774, 498.500 680.924 C 505.322 681.034, 532.313 679.263, 535.982 678.463 C 540.162 677.553, 544.113 675.408, 550.633 670.509 C 556.608 666.019, 566 657.022, 566 655.789 C 566 655.291, 567.312 653.222, 568.917 651.191 C 572.573 646.563, 576 640.402, 576 638.456 C 576 637.640, 576.397 636.191, 576.883 635.236 C 578.782 631.504, 579.889 628.355, 580.483 625 C 582.314 614.660, 583.165 608.489, 584.070 599 C 585.214 586.999, 585.704 131.284, 584.581 124 C 584.199 121.525, 583.513 118.600, 583.057 117.500 C 582.601 116.400, 581.683 113.475, 581.017 111 C 580.350 108.525, 579.399 105.719, 578.903 104.764 C 578.406 103.809, 578 102.546, 578 101.959 C 578 101.371, 576.200 98.240, 574 95 C 571.800 91.760, 570 88.731, 570 88.267 C 570 86.669, 557.935 76.038, 550 70.645 C 549.175 70.084, 552.419 73.330, 557.209 77.857 M 540.115 100 C 540.069 101.375, 540.467 103.175, 541 104 C 541.862 105.333, 541.960 105.333, 541.885 104 C 541.839 103.175, 541.440 101.375, 541 100 L 540.199 97.500 540.115 100 M 70.418 118.935 C 81.164 127.475, 96.257 143.400, 92.120 141.833 C 91.334 141.536, 72.321 124.910, 66.346 119.295 C 64.268 117.343, 64 117.293, 64 118.858 C 64 120.828, 66.778 123.567, 75.141 129.842 C 78.243 132.170, 82.133 135.366, 83.785 136.945 C 88.317 141.276, 91.536 143.115, 93.359 142.416 C 96.362 141.263, 95.074 139.190, 85.750 130.174 C 73.824 118.642, 70.603 116, 68.468 116 C 67.254 116, 67.845 116.890, 70.418 118.935 M 647.030 118.284 C 646.330 119.503, 640.003 125.675, 632.969 132 C 623.418 140.589, 620.442 143.816, 621.213 144.750 C 621.780 145.438, 622.697 146, 623.250 146 C 623.803 146, 628.687 141.747, 634.103 136.549 C 639.518 131.350, 645.311 126.091, 646.975 124.861 C 649.067 123.313, 650 121.775, 650 119.871 C 650 116.253, 648.619 115.515, 647.030 118.284 M 130.300 122 C 130.300 125.025, 130.487 126.263, 130.716 124.750 C 130.945 123.237, 130.945 120.763, 130.716 119.250 C 130.487 117.737, 130.300 118.975, 130.300 122 M 576.147 139 C 576.079 150.431, 576.441 159.121, 577.023 160 C 578.164 161.726, 578.107 128.782, 576.958 123 C 576.576 121.075, 576.211 128.275, 576.147 139 M 542.355 133.500 C 542.352 138.450, 542.521 140.601, 542.731 138.280 C 542.940 135.959, 542.943 131.909, 542.736 129.280 C 542.530 126.651, 542.358 128.550, 542.355 133.500 M 128.667 131.667 C 128.300 132.033, 128.036 145.871, 128.079 162.417 C 128.122 178.963, 128.331 192.050, 128.543 191.500 C 128.852 190.698, 129.714 130.998, 129.417 131 C 129.371 131, 129.033 131.300, 128.667 131.667 M 199.667 134.667 C 198.424 135.909, 198.992 138.683, 200.829 140.345 C 202.496 141.854, 209.236 142, 277.129 142 C 333.717 142, 351.888 141.712, 352.800 140.800 C 354.677 138.923, 354.231 137.380, 351.250 135.440 C 349.074 134.024, 348.771 133.981, 349.799 135.236 C 350.688 136.323, 350.761 137.029, 350.030 137.481 C 349.224 137.980, 218.209 138.512, 202.633 138.080 C 200.275 138.014, 199.859 137.645, 200.290 136 C 200.848 133.865, 200.727 133.606, 199.667 134.667 M 542.070 153.583 C 542.109 155.738, 542.543 158.400, 543.035 159.500 C 543.619 160.806, 543.721 159.592, 543.329 156 C 542.608 149.394, 541.973 148.174, 542.070 153.583 M 481 169 C 480.078 169.596, 452.534 170.068, 409.500 170.225 L 339.500 170.481 415 170.991 C 481.218 171.437, 490.500 171.684, 490.500 173 C 490.500 174.325, 473.624 174.528, 345.590 174.743 C 265.890 174.877, 200.416 175.251, 200.092 175.575 C 199.768 175.899, 200.402 176.837, 201.502 177.660 C 202.906 178.712, 204.805 178.985, 207.890 178.578 C 210.304 178.260, 274.976 178, 351.604 178 C 490.767 178, 490.931 177.998, 492.020 175.962 C 492.620 174.841, 492.852 173.110, 492.536 172.114 C 491.475 168.772, 484.336 166.844, 481 169 M 231.322 170.750 C 248.274 170.903, 275.724 170.903, 292.322 170.749 C 308.920 170.595, 295.050 170.470, 261.500 170.470 C 227.950 170.470, 214.370 170.596, 231.322 170.750 M 326.750 170.732 C 329.087 170.943, 332.913 170.943, 335.250 170.732 C 337.587 170.522, 335.675 170.349, 331 170.349 C 326.325 170.349, 324.413 170.522, 326.750 170.732 M 542.336 182 C 542.336 186.125, 542.513 187.813, 542.728 185.750 C 542.944 183.688, 542.944 180.313, 542.728 178.250 C 542.513 176.188, 542.336 177.875, 542.336 182 M 578.336 186 C 578.336 190.125, 578.513 191.813, 578.728 189.750 C 578.944 187.688, 578.944 184.313, 578.728 182.250 C 578.513 180.188, 578.336 181.875, 578.336 186 M 576.956 198.250 C 576.340 215.592, 576.379 259.799, 577.011 261.364 C 577.521 262.628, 577.899 249.923, 577.937 230.250 C 577.971 211.963, 577.775 197, 577.500 197 C 577.225 197, 576.980 197.563, 576.956 198.250 M 128.255 227.500 C 128.192 242.900, 128.446 256.274, 128.820 257.220 C 129.453 258.821, 129.327 215.638, 128.666 204.500 C 128.503 201.750, 128.318 212.100, 128.255 227.500 M 296.986 204.992 C 387.852 205.470, 393.492 205.602, 393.810 207.250 C 394.106 208.787, 393.255 209.002, 386.823 209.015 C 291.040 209.216, 200.691 208.927, 199.866 208.417 C 199.113 207.952, 199.111 208.340, 199.862 209.742 C 201.456 212.721, 206.045 214.314, 209.381 213.045 C 211.221 212.346, 242.536 212, 304.030 212 L 395.930 212 397.045 209.917 C 397.934 208.255, 397.809 207.446, 396.425 205.917 C 394.735 204.050, 392.179 204.006, 297.595 204.242 L 200.500 204.485 296.986 204.992 M 634.475 211.040 C 634.058 211.715, 634.741 211.852, 636.416 211.432 C 641.358 210.191, 638.998 212.820, 631.452 216.962 C 626.329 219.774, 623.250 220.897, 621.866 220.458 C 620.056 219.883, 619.953 220.044, 620.949 221.905 C 622.382 224.582, 626.642 224.627, 630 222 C 631.375 220.924, 633.192 220.034, 634.038 220.022 C 634.884 220.010, 637.134 218.698, 639.038 217.108 C 642.472 214.238, 642.485 214.198, 640.595 212.108 C 638.562 209.858, 635.532 209.330, 634.475 211.040 M 75 213.858 C 75 215.546, 85.988 221.974, 89.956 222.609 C 93.556 223.185, 94 223.035, 94 221.243 C 94 219.028, 89.574 215.596, 87.689 216.349 C 87.035 216.610, 87.963 217.412, 89.750 218.131 C 92.797 219.357, 94.133 221, 92.083 221 C 90.362 221, 81.799 216.987, 79.262 214.991 C 76.567 212.872, 75 212.455, 75 213.858 M 540.493 269.147 C 540.842 312.340, 541.791 333.177, 543.483 334.773 C 544.507 335.739, 543.148 317.686, 541.779 312.129 C 541.053 309.184, 540.969 302.335, 541.521 291.129 C 541.972 281.983, 542.366 270.900, 542.396 266.500 C 542.457 257.765, 540.924 224.716, 540.432 224.147 C 540.264 223.952, 540.292 244.202, 540.493 269.147 M 331.387 244.817 C 331.671 245.277, 339.639 245.619, 349.093 245.577 C 365.863 245.502, 366.318 245.555, 367.758 247.753 C 369.341 250.170, 369.228 245.135, 370.488 369.071 L 371.053 424.642 368.922 426.571 C 366.858 428.439, 364.219 428.508, 286.138 428.737 C 207.409 428.968, 205.408 428.927, 202.243 427.002 L 199 425.029 199 337.449 C 199 278.990, 199.344 249.225, 200.035 247.934 C 200.763 246.575, 200.748 246, 199.987 246 C 197.968 246, 196.138 252.098, 197.224 255.211 C 197.770 256.780, 197.930 259.512, 197.578 261.282 C 197.001 264.180, 195.977 271.832, 194.376 285.205 C 193.752 290.419, 191.684 293.084, 189.758 291.158 C 189.121 290.521, 188.295 290, 187.921 290 C 185.800 290, 182.997 304.873, 183.006 316.082 C 183.012 324.504, 184.295 330.170, 186.635 332.112 C 188.012 333.255, 188.564 333.030, 190.570 330.514 C 192.286 328.363, 193.027 327.973, 193.367 329.044 C 194.641 333.050, 196 352.884, 196 367.460 C 196 376.473, 196.513 386.070, 197.140 388.787 C 197.989 392.462, 197.996 397.504, 197.169 408.483 C 196.004 423.962, 196.184 425.228, 200.183 429.626 L 202.115 431.752 285.347 431.901 L 368.578 432.050 371.301 429.208 L 374.023 426.366 373.601 345.433 C 373.369 300.920, 372.873 261.137, 372.499 257.027 C 372.074 252.364, 371.142 248.603, 370.019 247.027 L 368.220 244.500 349.545 244.241 C 339.274 244.098, 331.103 244.357, 331.387 244.817 M 409.264 245.718 C 410.784 245.947, 413.034 245.941, 414.264 245.704 C 415.494 245.467, 414.250 245.279, 411.500 245.286 C 408.750 245.294, 407.744 245.488, 409.264 245.718 M 433.280 245.736 C 435.909 245.943, 439.959 245.940, 442.280 245.731 C 444.601 245.521, 442.450 245.352, 437.500 245.355 C 432.550 245.358, 430.651 245.530, 433.280 245.736 M 462.250 245.735 C 464.863 245.941, 469.137 245.941, 471.750 245.735 C 474.363 245.529, 472.225 245.360, 467 245.360 C 461.775 245.360, 459.637 245.529, 462.250 245.735 M 400.825 248.750 C 397.273 252.581, 395.832 259.118, 397.167 265.342 C 397.749 268.056, 397.932 272.801, 397.575 275.888 C 397.217 278.974, 396.685 293.567, 396.391 308.315 L 395.858 335.130 399.248 338.315 C 405.076 343.791, 407.758 344.096, 447 343.737 C 469.760 343.529, 483.918 343.001, 486.450 342.267 C 494.223 340.011, 493.953 341.724, 493.978 294.594 L 494 252.689 491.449 249.344 C 490.036 247.492, 487.995 246, 486.872 246 C 485.103 246, 485.233 246.325, 487.893 248.563 L 490.939 251.126 490.507 292.516 C 490.040 337.351, 490.049 337.278, 484.508 338.867 C 482.854 339.342, 464.175 339.678, 443 339.615 C 402.917 339.495, 401.101 339.311, 399.525 335.205 C 399.243 334.469, 398.968 315.932, 398.914 294.011 C 398.809 251.085, 398.943 249.852, 404 247.294 C 405.498 246.536, 405.874 246.024, 404.937 246.015 C 404.077 246.007, 402.227 247.238, 400.825 248.750 M 283.254 249.756 L 203.007 250.012 203.011 336.349 L 203.016 422.686 205.555 423.843 C 207.115 424.554, 212.606 424.918, 219.797 424.786 L 231.500 424.572 220.376 424.255 C 211.294 423.995, 208.960 423.614, 207.659 422.175 C 206.229 420.596, 206.055 411.979, 205.965 338.641 C 205.890 276.779, 206.155 256.518, 207.055 255.433 C 208.069 254.212, 219.567 254, 284.922 254 C 343.227 254, 361.888 254.288, 362.800 255.200 C 363.651 256.051, 364.029 262.529, 364.100 277.450 C 364.155 289.027, 364.595 299.625, 365.078 301 C 365.608 302.506, 365.806 293.023, 365.576 277.147 C 365.366 262.653, 364.813 250.503, 364.347 250.147 C 363.881 249.791, 327.389 249.615, 283.254 249.756 M 403.958 252.079 C 402.070 255.607, 402.414 332.294, 404.325 333.815 C 404.971 334.329, 411.125 334.968, 418 335.235 C 425.587 335.530, 428.928 335.405, 426.500 334.918 C 424.300 334.476, 419.327 334.089, 415.450 334.058 C 411.376 334.024, 407.894 333.494, 407.200 332.800 C 405.315 330.915, 405.496 257.362, 407.389 255.468 C 408.502 254.355, 415.326 254, 441.639 253.684 C 459.713 253.467, 475.988 252.944, 477.806 252.523 C 480.519 251.894, 481.551 252.169, 483.556 254.053 L 486 256.349 486 253.174 L 486 250 445.535 250 C 405.579 250, 405.056 250.026, 403.958 252.079 M 578.286 272.500 C 578.294 275.250, 578.488 276.256, 578.718 274.736 C 578.947 273.216, 578.941 270.966, 578.704 269.736 C 578.467 268.506, 578.279 269.750, 578.286 272.500 M 438 274.845 C 438 275.310, 438.915 276.518, 440.032 277.529 C 441.150 278.541, 443.043 280.973, 444.239 282.934 C 446.467 286.589, 452.295 294.359, 461.687 306.197 C 464.609 309.880, 467 313.523, 467 314.292 C 467 315.061, 466.131 316.477, 465.068 317.438 C 463.344 318.999, 460.519 319.191, 438.699 319.233 C 425.258 319.258, 413.640 318.922, 412.880 318.485 C 412.121 318.048, 412.822 319.110, 414.437 320.845 L 417.374 324 428.140 324 C 434.182 324, 440.024 323.491, 441.454 322.839 C 443.406 321.950, 446.012 321.977, 452.596 322.957 C 459.677 324.010, 461.659 324.002, 463.846 322.911 C 470.360 319.660, 471.549 316.537, 468 312 C 466.924 310.625, 466.034 309.119, 466.022 308.653 C 466.010 308.188, 464.200 305.762, 462 303.263 C 458.827 299.658, 458 297.930, 458 294.906 C 458 291.527, 458.400 290.904, 461.527 289.420 C 465.510 287.530, 469 283.592, 469 280.988 C 469 278.815, 466.017 275.999, 465.970 278.128 C 465.920 280.355, 454.381 292.354, 453.069 291.542 C 452.182 290.994, 452.183 290.485, 453.074 289.411 C 454 288.295, 453.906 288, 452.627 288 C 451.737 288, 448.436 284.850, 445.290 281 C 439.944 274.456, 438 272.815, 438 274.845 M 430.670 284.250 C 428.780 287.137, 425.083 293.100, 422.455 297.500 C 419.826 301.900, 416.849 306.573, 415.838 307.885 C 414.827 309.197, 414 311.334, 414 312.635 C 414 314.763, 414.426 314.992, 418.250 314.921 C 420.587 314.878, 421.938 314.615, 421.250 314.338 C 418.893 313.387, 419.845 307.606, 422.959 303.962 C 424.587 302.058, 425.937 300.007, 425.959 299.405 C 425.982 298.803, 426.900 297.495, 428 296.500 C 429.100 295.505, 430 294.173, 430 293.541 C 430 292.909, 431.567 290.874, 433.482 289.018 C 436.625 285.971, 437.193 285.765, 439.313 286.900 C 440.604 287.591, 442.385 289.359, 443.269 290.828 C 445.160 293.973, 448.408 298.151, 452.286 302.427 C 453.819 304.117, 452.572 301.900, 449.516 297.500 C 441.084 285.361, 436.113 279, 435.059 279 C 434.535 279, 432.560 281.363, 430.670 284.250 M 263 280.973 C 261.547 281.423, 264.689 281.642, 270.500 281.495 C 281.964 281.206, 285 281.649, 285 283.608 C 285 285.286, 287.033 285.177, 256.750 285.129 C 243.137 285.107, 231.992 285.407, 231.981 285.795 C 231.971 286.183, 231.686 291.038, 231.347 296.585 C 231.009 302.132, 231.053 309.670, 231.445 313.335 C 232.157 319.979, 232.169 320, 235.280 320 C 237.707 320, 238.133 319.733, 237.200 318.800 C 236.404 318.004, 236 313.683, 236 305.974 C 236 295.201, 236.165 294.196, 238.250 292.269 C 241.823 288.968, 248.253 287.460, 252.866 288.842 C 254.992 289.479, 262.658 290, 269.901 290 C 283.833 290, 288 288.858, 288 285.040 C 288 281.181, 284.860 279.995, 274.921 280.100 C 269.740 280.155, 264.375 280.548, 263 280.973 M 578.407 306 C 578.407 315.075, 578.559 318.788, 578.744 314.250 C 578.929 309.712, 578.929 302.288, 578.744 297.750 C 578.559 293.212, 578.407 296.925, 578.407 306 M 226.343 311.500 C 226.346 315.900, 226.522 317.576, 226.733 315.224 C 226.945 312.872, 226.942 309.272, 226.727 307.224 C 226.512 305.176, 226.339 307.100, 226.343 311.500 M 456.027 309.128 C 456.012 310.573, 455.408 312.247, 454.684 312.847 C 453.923 313.479, 447.701 314.071, 439.934 314.251 C 427.146 314.548, 427.354 314.574, 444.250 314.782 C 454.012 314.902, 461.988 314.663, 461.973 314.250 C 461.958 313.837, 460.620 311.925, 459 310 L 456.054 306.500 456.027 309.128 M 364.461 316.571 C 364.039 321.079, 364.165 325.429, 364.774 327.321 C 365.613 329.931, 365.814 328.574, 365.898 319.750 C 365.954 313.837, 365.813 309, 365.585 309 C 365.357 309, 364.851 312.407, 364.461 316.571 M 263.707 321.986 C 264.253 324.074, 264.127 324.087, 246.127 323.795 C 236.156 323.633, 227.998 323.768, 227.999 324.095 C 227.999 324.422, 228.835 325.446, 229.856 326.369 C 231.469 327.829, 233.966 328.013, 248.998 327.774 C 264.192 327.533, 266.418 327.288, 267.387 325.750 C 268.681 323.696, 267.238 320.688, 264.721 320.192 C 263.574 319.966, 263.304 320.445, 263.707 321.986 M 128.630 325.250 C 127.796 328.362, 127.954 391.593, 128.808 396.395 C 129.188 398.537, 129.500 382.899, 129.500 361.645 C 129.500 340.390, 129.440 323, 129.367 323 C 129.293 323, 128.962 324.012, 128.630 325.250 M 484.295 332 C 483.656 333.520, 483.612 334.639, 484.184 334.854 C 485.659 335.409, 486.197 334.375, 485.754 331.836 L 485.347 329.500 484.295 332 M 578.443 360.500 C 578.443 377, 578.580 383.890, 578.748 375.812 C 578.915 367.733, 578.916 354.233, 578.748 345.812 C 578.581 337.390, 578.444 344, 578.443 360.500 M 459.500 335.010 C 461.700 335.439, 464.175 335.401, 465 334.925 C 465.967 334.368, 464.546 334.091, 461 334.145 C 455.540 334.229, 455.529 334.236, 459.500 335.010 M 68.264 344.718 C 69.784 344.947, 72.034 344.941, 73.264 344.704 C 74.494 344.467, 73.250 344.279, 70.500 344.286 C 67.750 344.294, 66.744 344.488, 68.264 344.718 M 648.418 344.972 C 665.478 345.365, 671.442 345.819, 671.751 346.750 C 672.234 348.202, 671.685 348.228, 643.750 348.105 C 632.888 348.057, 624 348.408, 624 348.886 C 624 351.652, 627.358 352.031, 649.517 351.769 C 669.630 351.531, 672.408 351.303, 673.350 349.809 C 674.167 348.512, 673.981 347.636, 672.553 346.059 C 670.765 344.083, 669.781 344.009, 648.095 344.222 L 625.500 344.443 648.418 344.972 M 64.570 348 C 40.424 348.484, 39.697 348.557, 41.469 350.327 C 43.098 351.956, 44.234 352.065, 51.899 351.327 C 62.891 350.270, 79.746 350.261, 83.063 351.312 C 84.985 351.920, 86.236 351.629, 88.063 350.148 C 89.403 349.061, 90.275 348.021, 90 347.836 C 89.725 347.651, 78.281 347.725, 64.570 348 M 542.300 356 C 542.300 359.025, 542.487 360.262, 542.716 358.750 C 542.945 357.238, 542.945 354.762, 542.716 353.250 C 542.487 351.738, 542.300 352.975, 542.300 356 M 254.750 358.706 C 255.988 358.944, 258.012 358.944, 259.250 358.706 C 260.488 358.467, 259.475 358.272, 257 358.272 C 254.525 358.272, 253.512 358.467, 254.750 358.706 M 285.750 358.732 C 288.087 358.943, 291.913 358.943, 294.250 358.732 C 296.587 358.522, 294.675 358.349, 290 358.349 C 285.325 358.349, 283.413 358.522, 285.750 358.732 M 324.728 358.722 C 326.503 358.943, 329.653 358.946, 331.728 358.730 C 333.802 358.513, 332.350 358.333, 328.500 358.328 C 324.650 358.324, 322.952 358.501, 324.728 358.722 M 337.453 361.587 C 336.645 362.820, 330.243 363.041, 295.297 363.039 C 272.636 363.038, 253.946 363.367, 253.764 363.769 C 253.582 364.171, 253.598 370.012, 253.800 376.750 L 254.167 389 257.334 388.985 C 259.075 388.976, 260.050 388.639, 259.500 388.235 C 256.017 385.676, 255.218 380.217, 257.304 373.242 C 258.970 367.674, 262.246 365.277, 266.167 366.757 C 268.124 367.496, 273.707 367.577, 283.767 367.015 C 291.870 366.561, 307.050 366.296, 317.500 366.425 C 327.950 366.553, 337.288 366.270, 338.250 365.794 C 340.029 364.915, 340.655 361.523, 339.203 360.625 C 338.765 360.355, 337.977 360.787, 337.453 361.587 M 248.667 361.667 C 247.631 362.702, 247.912 388.313, 248.977 389.998 C 249.596 390.976, 249.902 386.206, 249.860 376.248 C 249.825 367.862, 249.692 361, 249.565 361 C 249.437 361, 249.033 361.300, 248.667 361.667 M 540.607 367.582 C 539.730 369.867, 539.859 385, 540.755 385 C 541.170 385, 541.508 380.725, 541.505 375.500 C 541.502 370.275, 541.436 366, 541.357 366 C 541.278 366, 540.941 366.712, 540.607 367.582 M 488.750 372.662 C 490.800 373.489, 490.169 375.920, 487.750 376.515 C 486.512 376.820, 466.246 376.941, 442.713 376.785 C 405.980 376.540, 399.792 376.288, 398.979 375 C 398.146 373.682, 398.029 373.690, 398.015 375.065 C 398.007 375.925, 399.473 377.332, 401.274 378.191 C 404.066 379.522, 410.895 379.777, 447.656 379.923 C 486.186 380.076, 490.935 379.922, 492.382 378.475 C 495.249 375.608, 493.617 371.922, 489.550 372.079 C 488.423 372.122, 488.063 372.385, 488.750 372.662 M 276.655 388.746 C 285.211 388.990, 287.939 389.398, 288.362 390.500 C 288.665 391.290, 288.566 392.150, 288.141 392.413 C 286.794 393.245, 252.267 393.281, 250.854 392.451 C 250.109 392.014, 250.295 392.565, 251.266 393.675 C 254.124 396.941, 259.863 398, 274.711 398 C 286.984 398, 288.892 397.777, 290.345 396.171 C 292.496 393.794, 292.440 391.709, 290.171 389.655 C 288.661 388.288, 286.352 388.037, 276.921 388.214 L 265.500 388.428 276.655 388.746 M 338.677 389.601 C 339.015 390.482, 338.665 391.589, 337.898 392.063 C 335.973 393.253, 314.003 393.072, 311.716 391.848 C 309.937 390.896, 309.930 390.963, 311.544 393.427 C 313.221 395.986, 313.305 396, 327.080 396 C 339.906 396, 341.009 395.852, 342 394 C 342.760 392.579, 342.760 391.421, 342 390 C 340.709 387.588, 337.769 387.235, 338.677 389.601 M 578.442 424 C 578.442 440.225, 578.580 446.863, 578.748 438.750 C 578.916 430.637, 578.916 417.362, 578.748 409.250 C 578.580 401.137, 578.442 407.775, 578.442 424 M 489.421 404.249 L 489.500 406.500 444.727 406.774 L 399.953 407.048 399.145 404.864 C 398.431 402.933, 398.260 402.881, 397.672 404.412 C 397.306 405.365, 397.464 406.999, 398.023 408.042 C 398.993 409.855, 401.014 409.952, 443.269 410.220 C 467.596 410.374, 488.625 410.245, 490 409.933 C 493.119 409.225, 493.749 405.988, 491.215 403.694 C 489.435 402.084, 489.345 402.112, 489.421 404.249 M 540.405 432.500 C 540.406 441.300, 540.559 444.766, 540.745 440.203 C 540.930 435.639, 540.929 428.439, 540.742 424.203 C 540.555 419.966, 540.404 423.700, 540.405 432.500 M 363.506 421.994 C 361.758 423.925, 360.300 424.009, 324.595 424.237 L 287.500 424.474 323 424.775 C 342.525 424.941, 359.919 424.822, 361.653 424.511 C 363.388 424.200, 365.086 423.218, 365.427 422.330 C 366.362 419.893, 365.538 419.748, 363.506 421.994 M 239.750 424.744 C 244.287 424.929, 251.713 424.929, 256.250 424.744 C 260.788 424.559, 257.075 424.407, 248 424.407 C 238.925 424.407, 235.213 424.559, 239.750 424.744 M 270.250 424.739 C 273.413 424.937, 278.587 424.937, 281.750 424.739 C 284.913 424.541, 282.325 424.378, 276 424.378 C 269.675 424.378, 267.087 424.541, 270.250 424.739 M 444.500 424.984 C 482.715 425.432, 488.500 425.697, 488.500 427 C 488.500 428.307, 482.841 428.534, 444.615 428.761 C 413.047 428.948, 400.347 428.703, 399.365 427.888 C 398.320 427.021, 398 427.089, 398 428.178 C 398 431.893, 399.306 432, 444.545 432 C 485.843 432, 488.795 431.883, 490.325 430.194 C 491.802 428.561, 491.812 428.176, 490.423 426.194 L 488.887 424 444.693 424.234 L 400.500 424.468 444.500 424.984 M 128.630 437.250 C 127.817 440.284, 127.968 460.065, 128.820 462.213 C 129.194 463.155, 129.500 457.417, 129.500 449.463 C 129.500 441.508, 129.440 435, 129.367 435 C 129.293 435, 128.962 436.012, 128.630 437.250 M 197.932 464.126 C 196.354 467.075, 198.181 470.756, 201.654 471.628 C 203.152 472.004, 218.130 471.948, 234.938 471.504 C 251.747 471.061, 273.262 470.746, 282.750 470.805 C 292.238 470.864, 302.813 470.873, 306.250 470.825 C 317.280 470.672, 434.793 470.678, 455.500 470.833 C 481.534 471.029, 491.350 470.167, 491.833 467.644 C 492.028 466.623, 491.629 465.273, 490.947 464.644 C 490.016 463.785, 489.866 463.786, 490.348 464.645 C 490.700 465.275, 490.287 466.060, 489.429 466.389 C 486.885 467.365, 199.175 467.092, 198.570 466.113 C 197.018 463.602, 201.654 463.024, 225.581 462.750 L 250.500 462.463 224.785 462.232 C 199.468 462.004, 199.053 462.033, 197.932 464.126 M 275.250 462.716 C 276.762 462.945, 279.238 462.945, 280.750 462.716 C 282.262 462.487, 281.025 462.300, 278 462.300 C 274.975 462.300, 273.738 462.487, 275.250 462.716 M 299.776 462.733 C 302.128 462.945, 305.728 462.942, 307.776 462.727 C 309.824 462.512, 307.900 462.339, 303.500 462.343 C 299.100 462.346, 297.424 462.522, 299.776 462.733 M 359.250 462.750 C 382.763 462.899, 421.238 462.899, 444.750 462.750 C 468.263 462.600, 449.025 462.478, 402 462.478 C 354.975 462.478, 335.738 462.600, 359.250 462.750 M 540.462 511.500 C 540.463 537.900, 540.592 548.556, 540.749 535.181 C 540.907 521.805, 540.907 500.205, 540.749 487.181 C 540.591 474.156, 540.462 485.100, 540.462 511.500 M 128.642 476.750 C 127.801 481.836, 127.966 567.065, 128.820 569.190 C 129.194 570.120, 129.538 548.858, 129.585 521.940 C 129.632 495.023, 129.578 473, 129.466 473 C 129.354 473, 128.983 474.688, 128.642 476.750 M 81.405 476.233 C 80.340 477.481, 80.185 477.940, 81.054 477.273 C 81.908 476.617, 83.708 475.641, 85.054 475.104 C 87.285 474.213, 87.316 474.121, 85.405 474.063 C 84.253 474.029, 82.453 475.005, 81.405 476.233 M 89.835 474.906 C 89.651 475.412, 85.559 477.865, 80.741 480.358 C 73.574 484.067, 72.295 485.066, 73.702 485.853 C 75.381 486.793, 82.159 484.899, 84.450 482.850 C 84.973 482.382, 86.140 482, 87.045 482 C 89.083 482, 92 478.897, 92 476.730 C 92 474.901, 90.346 473.508, 89.835 474.906 M 627 475.054 C 627.825 475.617, 630.300 476.977, 632.500 478.077 L 636.500 480.076 633.038 477.038 C 631.134 475.367, 628.659 474.007, 627.538 474.015 C 625.837 474.028, 625.748 474.200, 627 475.054 M 622 476.878 C 622 478.163, 623.853 479.504, 630.374 482.934 C 636.365 486.085, 640.384 486.806, 641.539 484.937 C 642.263 483.766, 639.300 480, 637.654 480 C 637.084 480, 637.491 480.638, 638.557 481.418 C 639.624 482.198, 640.150 483.183, 639.726 483.607 C 639.302 484.032, 635.328 482.493, 630.896 480.189 C 622.139 475.637, 622 475.585, 622 476.878 M 578.428 511 C 578.428 523.375, 578.571 528.438, 578.747 522.250 C 578.922 516.063, 578.922 505.938, 578.747 499.750 C 578.571 493.563, 578.428 498.625, 578.428 511 M 310.500 496.993 C 418.658 497.492, 420.500 497.533, 420.500 499.447 C 420.500 501.365, 418.955 501.390, 315.500 501.166 C 257.750 501.042, 208.137 500.953, 205.250 500.970 C 201.149 500.993, 200 500.659, 200 499.441 C 200 498.584, 199.550 498.160, 199 498.500 C 197.377 499.503, 197.854 502.558, 199.927 504.434 C 201.537 505.891, 202.973 506.068, 208.677 505.514 C 222.046 504.215, 384.567 503.830, 402.801 505.055 C 418.884 506.135, 420.240 506.093, 422.051 504.453 C 424.624 502.126, 424.518 499.477, 421.777 497.557 C 419.794 496.167, 407.797 496.026, 310.027 496.243 L 200.500 496.487 310.500 496.993 M 203.500 529 C 203.119 529.617, 204.724 529.973, 207.691 529.930 C 211.298 529.877, 212 529.645, 210.500 529 C 207.721 527.806, 204.238 527.806, 203.500 529 M 348 528.885 C 345.385 529.307, 346.524 529.582, 352.500 529.975 C 359.514 530.435, 360.500 530.735, 360.500 532.403 C 360.500 534.258, 358.472 534.308, 281 534.346 L 201.500 534.386 201.595 532.044 C 201.685 529.841, 201.611 529.811, 200.345 531.542 C 198.549 533.999, 198.635 534.635, 201.098 537.098 C 202.624 538.624, 203.918 539.028, 205.848 538.579 C 211.606 537.240, 248.021 536.176, 276 536.529 C 292.225 536.734, 307.750 536.822, 310.500 536.726 C 320.296 536.381, 329.715 536.571, 345.037 537.421 C 359.079 538.200, 360.739 538.118, 362.287 536.570 C 367.818 531.039, 360.165 526.922, 348 528.885 M 578.436 559.500 C 578.436 573.800, 578.577 579.511, 578.748 572.191 C 578.919 564.871, 578.918 553.171, 578.747 546.191 C 578.575 539.211, 578.435 545.200, 578.436 559.500 M 92.862 560.730 C 92.663 561.228, 86.112 567.426, 78.305 574.503 C 70.498 581.580, 64.339 587.739, 64.617 588.189 C 65.962 590.365, 71.477 586.764, 81.500 577.166 C 93.043 566.112, 95.870 562.470, 94.202 560.802 C 93.642 560.242, 93.070 560.211, 92.862 560.730 M 635.930 572.617 C 644.114 580.512, 648.098 585.032, 647.594 585.848 C 647.065 586.704, 643.530 584.076, 636.164 577.350 C 630.299 571.994, 624.263 566.490, 622.750 565.119 C 621.237 563.748, 620 563.148, 620 563.787 C 620 565.209, 634.697 579.455, 641.334 584.465 C 646.434 588.316, 649.242 588.697, 649.835 585.620 C 650.256 583.433, 643.790 576.505, 633.500 568.116 C 622.207 558.910, 622.732 559.884, 635.930 572.617 M 203 562.387 C 203 563.208, 209.116 563.621, 209.603 562.833 C 209.886 562.375, 208.516 562, 206.559 562 C 204.602 562, 203 562.174, 203 562.387 M 329 564.878 C 329 565.495, 328.991 566.337, 328.981 566.750 C 328.971 567.163, 327.958 567.725, 326.731 568 C 325.504 568.275, 296.375 568.275, 262 568 C 227.625 567.725, 199.398 567.527, 199.273 567.560 C 199.148 567.594, 199.736 568.606, 200.580 569.810 L 202.113 572 265.857 572 C 314.101 572, 329.892 571.708, 330.800 570.800 C 332.444 569.156, 332.306 566.499, 330.500 565 C 329.464 564.140, 329 564.102, 329 564.878 M 577.081 587.849 C 576.486 588.960, 576 591.905, 576 594.395 C 576 596.885, 575.510 603.430, 574.910 608.941 C 573.548 621.456, 574.278 624.466, 575.894 613 C 577.254 603.343, 578.830 586.669, 578.429 586.164 C 578.282 585.980, 577.676 586.738, 577.081 587.849 M 510.262 589.167 C 510.186 590.175, 510.771 591, 511.562 591 C 512.353 591, 513 590.175, 513 589.167 C 513 588.158, 512.415 587.333, 511.700 587.333 C 510.985 587.333, 510.338 588.158, 510.262 589.167 M 536.406 609.386 C 536.113 610.148, 536.024 612.735, 536.208 615.136 C 536.532 619.360, 536.558 619.315, 537.022 613.749 C 537.507 607.911, 537.363 606.890, 536.406 609.386 M 492.593 610.618 C 492.231 611.562, 492.324 612.724, 492.800 613.200 C 494.122 614.522, 497.139 612.960, 496.788 611.136 C 496.357 608.898, 493.393 608.532, 492.593 610.618 M 477.278 628.345 C 476.833 628.980, 476.476 630.400, 476.486 631.500 C 476.498 632.962, 477.175 633.500, 479.001 633.500 C 481.093 633.500, 481.500 633.027, 481.500 630.595 C 481.500 627.535, 478.839 626.117, 477.278 628.345 M 462.125 645.625 C 459.457 647.494, 459.557 651.724, 462.309 653.399 C 463.753 654.278, 464.408 654.109, 465.559 652.559 C 468.859 648.115, 466.209 642.764, 462.125 645.625 M 171 659.095 C 174.106 661.794, 178.466 664.137, 188.500 668.497 C 196.327 671.899, 201.524 673, 209.785 673.008 C 214.578 673.013, 222.550 673.516, 227.500 674.127 C 232.450 674.737, 251.575 675.393, 270 675.584 C 288.425 675.775, 304.175 675.973, 305 676.024 C 313.015 676.515, 475.037 675.296, 475.593 674.740 C 476 674.333, 466.388 674, 454.232 674 C 441.488 674, 430.983 673.564, 429.421 672.970 C 427.586 672.272, 425.710 672.265, 423.606 672.949 C 420.784 673.865, 402.820 673.965, 262.256 673.848 C 249.915 673.837, 239.761 673.422, 239.447 672.914 C 239.136 672.412, 230.224 672, 219.641 672 C 209.058 672, 199.973 671.628, 199.450 671.174 C 198.928 670.720, 196.475 669.738, 194 668.993 C 187.177 666.940, 181.103 664.035, 174.805 659.816 C 167.977 655.241, 166.171 654.899, 171 659.095 M 205.570 657.887 C 204.889 658.988, 207.438 661.229, 208.342 660.325 C 208.704 659.963, 209 659.067, 209 658.333 C 209 656.844, 206.422 656.508, 205.570 657.887 M 541.203 666.429 C 539.390 667.711, 537.590 669.096, 537.203 669.507 C 536.159 670.617, 542.182 667.398, 544.500 665.608 C 547.686 663.148, 544.843 663.856, 541.203 666.429" stroke="none" fill="#111110" fill-rule="evenodd"/></svg>